<svg width="139" height="130" viewBox="0 0 139 130" fill="none" xmlns="http://www.w3.org/2000/svg">
<path fill-rule="evenodd" clip-rule="evenodd" d="M20.7171 0.277778C19.9233 0.411111 18.7383 0.655556 18.071 0.822222C17.4037 0.988889 16.2648 1.35556 15.54 1.63333C14.8152 1.9 13.7567 2.36667 13.1815 2.65556C12.6062 2.95556 11.7089 3.46667 11.1681 3.8C10.6274 4.13333 9.67251 4.81111 9.03975 5.3C8.40699 5.78889 7.39456 6.68889 6.80782 7.28889C6.20957 7.9 5.3122 8.91111 4.81749 9.55556C4.32278 10.2 3.60949 11.2444 3.22983 11.8889C2.85017 12.5333 2.27493 13.6556 1.9528 14.3889C1.63066 15.1222 1.19348 16.3 0.986393 17C0.779307 17.7 0.480182 18.9222 0.33062 19.7222L0.0660095 21.1667V108.833C0.480182 111.067 0.779307 112.3 0.986393 113C1.19348 113.7 1.63066 114.878 1.9528 115.611C2.27493 116.344 2.85017 117.467 3.22983 118.111C3.60949 118.756 4.32278 119.8 4.81749 120.444C5.3122 121.089 6.20957 122.1 6.80782 122.711C7.39456 123.311 8.40699 124.211 9.03975 124.7C9.67251 125.189 10.6274 125.867 11.1681 126.211C11.7089 126.544 12.6638 127.078 13.2965 127.389C13.9293 127.7 14.9877 128.167 15.655 128.411C16.3223 128.667 17.4843 129.022 18.2436 129.211C19.0029 129.4 20.2799 129.656 21.0968 129.778C22.5464 130 22.8685 130 69.0603 130H115.574C118.335 129.556 119.739 129.256 120.464 129.056C121.188 128.856 122.408 128.433 123.167 128.122C123.927 127.811 125.089 127.256 125.756 126.889C126.423 126.522 127.539 125.811 128.229 125.311C128.92 124.822 130.116 123.811 130.887 123.067C131.646 122.322 132.682 121.189 133.188 120.544C133.683 119.889 134.419 118.811 134.81 118.156C135.213 117.489 135.8 116.344 136.122 115.611C136.444 114.878 136.881 113.7 137.088 113C137.295 112.3 137.594 111.1 137.744 110.333L138.008 108.944L138.066 21.7222C137.606 19.0556 137.295 17.7 137.088 17C136.881 16.3 136.444 15.1222 136.122 14.3889C135.8 13.6556 135.224 12.5333 134.845 11.8889C134.465 11.2444 133.729 10.1778 133.211 9.5C132.705 8.83333 131.658 7.67778 130.887 6.93333C130.116 6.18889 128.92 5.17778 128.229 4.68889C127.539 4.18889 126.423 3.47778 125.756 3.11111C125.089 2.74444 123.927 2.18889 123.167 1.87778C122.408 1.56667 121.188 1.14444 120.464 0.944444C119.739 0.744444 118.347 0.444444 117.392 0.288889L115.632 0L22.1552 0.0222222L20.7171 0.277778ZM96.0505 29.0667C95.6824 29.1556 95.0381 29.3889 94.6239 29.5778C94.1982 29.7778 93.5655 30.1667 93.2088 30.4445C92.8522 30.7222 92.369 31.2 92.1274 31.5C91.8973 31.8111 91.5751 32.3 91.4141 32.6111C91.2645 32.9111 91.0574 33.4889 90.9424 33.8889C90.8158 34.3556 90.7468 35.0222 90.7468 35.7778C90.7468 36.4778 90.8273 37.2333 90.9424 37.6667C91.0459 38.0667 91.322 38.7667 91.5521 39.2222C91.8513 39.8222 92.1964 40.2778 92.7831 40.8333C93.3584 41.3889 93.8531 41.7445 94.4628 42.0333C94.9345 42.2556 95.6593 42.5111 96.0735 42.6C96.4877 42.7 97.316 42.7778 97.9143 42.7778C98.5125 42.7778 99.3409 42.7 99.755 42.6C100.169 42.5111 100.836 42.2778 101.251 42.0778C101.688 41.8667 102.332 41.4222 102.804 40.9778C103.253 40.5778 103.782 39.9778 103.977 39.6445C104.184 39.3222 104.495 38.6778 104.656 38.2222C104.886 37.5889 104.967 37.0889 105.013 36.1667C105.059 35.2889 105.013 34.7111 104.886 34.1111C104.783 33.6556 104.484 32.8556 104.219 32.3333C103.874 31.6445 103.529 31.1889 102.988 30.6667C102.516 30.2111 101.952 29.8111 101.481 29.5889C101.067 29.3889 100.399 29.1556 99.9851 29.0667C99.5365 28.9556 98.7426 28.9 97.9718 28.9C97.2815 28.9 96.4072 28.9778 96.0505 29.0667ZM48.0065 33.2445C47.949 33.3222 47.8684 33.9667 47.8339 34.6667C47.7879 35.3667 47.6843 36.3222 47.5923 36.7778C47.5003 37.2333 47.2587 38.1111 47.0631 38.7222C46.856 39.3333 42.5762 51.2556 37.5601 65.2222C32.5325 79.1889 28.4138 90.7667 28.3908 90.9667C28.3793 91.1667 28.4368 91.3889 28.5174 91.4667C28.6324 91.5778 29.8864 91.6111 34.5114 91.6111C40.2062 91.6111 40.3673 91.6 40.6089 91.3889C40.7815 91.2334 41.1726 90.2111 41.8399 88.2222C42.1232 87.3723 42.536 86.141 42.9642 84.8641C43.3531 83.7039 43.7547 82.5061 44.0833 81.5222L45.3374 77.7778L66.7593 77.8334C70.4408 88.2 71.6028 91.3 71.7179 91.4111C71.9134 91.6 72.3046 91.6111 78.1605 91.6334C83.0271 91.6556 84.4537 91.6334 84.6838 91.5222C84.8448 91.4445 84.9829 91.2889 85.0059 91.1667C85.0289 91.0445 80.3004 78 74.4905 62.1667C68.6921 46.3333 63.8831 33.3222 63.8141 33.2445C63.7105 33.1333 62.1344 33.1 55.9103 33.1111C49.8242 33.1111 48.0985 33.1445 48.0065 33.2445ZM91.345 69.6111C91.3335 49.6556 91.345 47.9222 91.5291 47.6889L91.7132 47.4445H97.7417C103.632 47.4445 103.793 47.4556 104.012 47.6667C104.242 47.8889 104.242 48.0333 104.242 69.6667C104.242 91.3 104.242 91.4445 104.012 91.6667C103.793 91.8778 103.632 91.8889 91.8167 91.8889L91.5866 91.5778C91.345 91.2778 91.345 91.2222 91.345 69.6111ZM55.6056 44.1969L55.606 44.1952C55.6861 43.8677 55.7443 43.6297 55.7607 43.5556C55.8067 43.3334 55.8413 43.3111 55.9218 43.4445C55.9678 43.5334 56.382 44.8889 56.8307 46.4445C57.2909 48 58.4413 51.6778 59.3847 54.6111C60.3396 57.5445 61.4671 61 61.9043 62.2778C62.3415 63.5556 62.8247 65.0111 62.9857 65.5C63.1353 65.9889 63.2388 66.4223 63.2043 66.4778C63.1583 66.5222 59.914 66.5556 55.9908 66.5556C52.0562 66.5556 48.8233 66.5334 48.7888 66.5C48.7543 66.4778 49.0189 65.5889 49.3756 64.5334C49.7437 63.4778 50.2729 61.8111 50.5721 60.8334C50.8712 59.8556 51.8031 56.9 52.6429 54.2778C53.4828 51.6556 54.3341 48.9778 54.5297 48.3334C54.7138 47.6889 55.0589 46.4223 55.289 45.5C55.4033 45.0237 55.5176 44.5566 55.6056 44.1969Z" fill="url(#paint0_linear_199_1640)"/>
<defs>
<linearGradient id="paint0_linear_199_1640" x1="-9.93899" y1="145.444" x2="135.254" y2="-5.63759" gradientUnits="userSpaceOnUse">
<stop offset="0.159082" stop-color="#3A1562"/>
<stop offset="1" stop-color="#D56B46"/>
</linearGradient>
</defs>
</svg>
