<svg width="115" height="130" viewBox="0 0 115 130" fill="none" xmlns="http://www.w3.org/2000/svg">
<path fill-rule="evenodd" clip-rule="evenodd" d="M104.219 116.986L114.662 0H0.0343018L10.4661 117.005L57.2778 130L104.219 116.986ZM57.348 23.9172H57.2984H21.3647L22.6691 38.2675L57.2983 38.2675H77.5191L76.2134 52.9623H57.2983L23.9489 52.9623L25.2351 67.3123H57.348L74.9689 67.3123L73.3033 85.9233L57.2983 90.2432V90.2444L57.285 90.2479L41.3032 85.9325L40.2815 74.4876H32.5156H25.8762L27.8867 97.0194L57.2819 105.18L57.3479 105.161V105.159L86.7169 97.0194L86.9328 94.595L90.3049 56.8157L90.655 52.9623L93.2457 23.9172L57.348 23.9172Z" fill="url(#paint0_linear_199_1716)"/>
<path fill-rule="evenodd" clip-rule="evenodd" d="M104.203 9.56686L95.2786 109.537L57.348 120.053V105.159L86.7169 97.0194L86.9327 94.595L90.3048 56.8157L90.655 52.9623L93.2456 23.9172L57.348 23.9172H57.348V9.56686H104.203ZM57.348 38.2675V52.9623H76.2133L77.5191 38.2675H57.348ZM57.348 90.2298L73.3032 85.9233L74.9689 67.3123L57.348 67.3123V90.2298Z" fill="#CB6C66"/>
<defs>
<linearGradient id="paint0_linear_199_1716" x1="-8.27619" y1="145.444" x2="135.501" y2="21.1748" gradientUnits="userSpaceOnUse">
<stop offset="0.159082" stop-color="#3A1562"/>
<stop offset="1" stop-color="#D56B46"/>
</linearGradient>
</defs>
</svg>
