<svg width="103" height="130" viewBox="0 0 103 130" fill="none" xmlns="http://www.w3.org/2000/svg">
<path fill-rule="evenodd" clip-rule="evenodd" d="M45.9391 0H67.2686V48.7817C67.2686 75.6133 67.2495 97.5762 67.2178 97.5889C67.1924 97.6079 66.8433 97.6777 66.4433 97.7476C66.0434 97.8174 65.0849 97.9888 64.3167 98.1284C63.5486 98.2617 62.5456 98.4395 62.0949 98.5156C61.6442 98.5918 60.9142 98.7061 60.4762 98.7759C60.0382 98.8394 58.9971 98.9917 58.1591 99.1123C57.3212 99.2393 55.9183 99.4233 55.0486 99.5249C54.1726 99.6328 52.9029 99.7725 52.2237 99.8486C51.5445 99.9185 50.5986 100.001 50.1288 100.039C49.6591 100.071 48.7005 100.147 48.0022 100.198C47.304 100.249 45.9645 100.318 45.0187 100.356C44.0728 100.388 42.3779 100.439 41.2416 100.458C39.991 100.483 38.3786 100.471 37.1471 100.426C36.0298 100.388 34.7285 100.325 34.2587 100.293C33.789 100.255 32.8177 100.172 32.1004 100.096C31.383 100.026 30.5134 99.9248 30.1642 99.874C29.8151 99.8232 29.3136 99.7534 29.0533 99.7217C28.793 99.6836 28.0503 99.5566 27.4028 99.436C26.7553 99.3154 25.9555 99.1631 25.6254 99.0933C25.2953 99.0234 24.6922 98.8838 24.2923 98.7759C23.8923 98.6743 23.2512 98.5093 22.864 98.4014C22.4767 98.2935 21.6959 98.0522 21.1183 97.8618C20.5406 97.6714 19.7979 97.4111 19.4678 97.2842C19.1377 97.1509 18.6679 96.9668 18.4203 96.8652C18.1728 96.7637 17.6459 96.5352 17.2459 96.3574C16.846 96.1733 16.116 95.8115 15.6272 95.5576C15.1384 95.2974 14.6559 95.0308 14.548 94.9736C14.4401 94.9102 14.2116 94.7769 14.0402 94.6753C13.8624 94.5737 13.38 94.2627 12.961 93.9897C12.542 93.7104 11.939 93.2915 11.6279 93.0566C11.3169 92.8281 10.7836 92.4092 10.4472 92.1299C10.1171 91.8569 9.54575 91.3555 9.19026 91.0254C8.82842 90.6953 8.23171 90.0859 7.85717 89.6733C7.48898 89.2544 6.91766 88.5879 6.59391 88.1816C6.26381 87.769 5.70518 86.9946 5.34334 86.4551C4.98785 85.9155 4.56253 85.2427 4.40383 84.9634C4.25148 84.6841 3.97216 84.1699 3.78807 83.8208C3.61033 83.4717 3.31831 82.8687 3.14057 82.4878C2.96917 82.1069 2.68986 81.4341 2.51846 80.9961C2.35341 80.5581 2.13123 79.9487 2.02331 79.6313C1.9154 79.314 1.75669 78.8188 1.67417 78.5205C1.5853 78.2222 1.4266 77.6382 1.31868 77.2192C1.21076 76.8003 1.05206 76.1147 0.969536 75.6958C0.880663 75.2769 0.753702 74.604 0.683874 74.2041C0.614045 73.8042 0.512476 73.1187 0.455344 72.6807C0.40456 72.2427 0.302991 71.3159 0.233162 70.6177C0.125245 69.5449 0.106201 68.9038 0.106201 66.5234C0.106201 64.9683 0.137941 63.4575 0.169682 63.1592C0.201422 62.8608 0.302991 61.9912 0.391863 61.2231C0.480736 60.4551 0.614045 59.4966 0.683874 59.0967C0.753702 58.6968 0.899708 57.9668 1.00762 57.478C1.10919 56.9893 1.29329 56.2021 1.4139 55.7324C1.54086 55.2627 1.82017 54.3359 2.03601 53.6694C2.25819 53.0029 2.58194 52.1079 2.75969 51.6699C2.93108 51.2319 3.26753 50.4639 3.50241 49.9561C3.73094 49.4482 4.11182 48.6929 4.34035 48.2739C4.56888 47.855 4.89898 47.271 5.07673 46.9727C5.25447 46.6743 5.62901 46.0903 5.90197 45.6714C6.18129 45.2524 6.68278 44.5542 7.01288 44.1162C7.34933 43.6782 7.781 43.1387 7.97144 42.9102C8.16823 42.6816 8.44119 42.3706 8.5745 42.2119C8.71416 42.0532 9.27279 41.4819 9.81872 40.9424C10.3583 40.4028 11.1518 39.6729 11.5644 39.3237C11.9834 38.9683 12.6563 38.4414 13.0562 38.1431C13.4562 37.8447 13.9386 37.4956 14.1227 37.3687C14.3004 37.2417 14.7892 36.9243 15.1955 36.6704C15.6081 36.4102 16.3572 35.9722 16.8651 35.6929C17.3729 35.4136 18.0712 35.0518 18.4203 34.8867C18.7695 34.7153 19.2837 34.4805 19.563 34.3599C19.8423 34.2456 20.1978 34.0869 20.3565 34.0234C20.5152 33.9536 20.9024 33.8013 21.2135 33.6807C21.5245 33.5664 22.1403 33.3442 22.5783 33.1982C23.0163 33.0522 23.7146 32.8301 24.1336 32.7158C24.5525 32.5952 25.308 32.3984 25.8158 32.2715C26.3237 32.1445 27.1679 31.9604 27.6885 31.8589C28.209 31.7573 29.2374 31.5923 29.9738 31.4907C30.7102 31.3892 31.9036 31.2495 32.64 31.186C33.6747 31.0972 34.6015 31.0718 36.7662 31.0718C38.9944 31.0718 39.7879 31.0972 40.702 31.186C41.3304 31.2495 42.3461 31.3828 42.9555 31.4844C43.565 31.5859 44.4854 31.7637 45.9391 32.0874V0ZM36.671 48.8452C36.1949 48.896 35.4712 49.0103 35.0522 49.0991C34.6333 49.188 34.0746 49.3213 33.8144 49.3911C33.5477 49.4673 33.0653 49.6196 32.7352 49.7339C32.3987 49.8481 31.8147 50.0894 31.4338 50.2607C31.0466 50.4385 30.5197 50.6987 30.2594 50.8447C29.9928 50.9971 29.6119 51.2319 29.4025 51.3716C29.193 51.5112 28.774 51.8159 28.482 52.0444C28.1836 52.273 27.6694 52.7363 27.333 53.0664C27.0029 53.3965 26.5458 53.8979 26.3237 54.1772C26.1015 54.4565 25.7333 54.9707 25.4984 55.3198C25.2699 55.6689 24.9017 56.2974 24.6922 56.7163C24.4764 57.1353 24.2161 57.7065 24.1018 57.9858C23.9939 58.2651 23.8352 58.6904 23.7463 58.938C23.6638 59.1855 23.5242 59.6299 23.4353 59.9409C23.3464 60.2456 23.2004 60.8296 23.1115 61.2422C23.029 61.6484 22.9021 62.3848 22.8322 62.8735C22.7687 63.3623 22.6799 64.1938 22.6354 64.7144C22.5846 65.3237 22.572 66.2759 22.5973 67.3486C22.6227 68.6436 22.6672 69.3037 22.7878 70.2051C22.8767 70.8525 23.0354 71.7666 23.1433 72.2363C23.2448 72.7061 23.448 73.436 23.5813 73.855C23.721 74.2739 23.9241 74.8389 24.032 75.1118C24.1399 75.3784 24.3685 75.8799 24.5398 76.2227C24.7112 76.5591 24.9461 76.9971 25.0604 77.1875C25.181 77.3843 25.473 77.8223 25.7206 78.1714C25.9745 78.5332 26.5331 79.1743 27.0219 79.6694C27.4917 80.1455 28.1455 80.7358 28.482 80.977C28.8121 81.2183 29.3263 81.561 29.6246 81.7388C29.9166 81.9102 30.4435 82.1895 30.78 82.3481C31.1228 82.5132 31.5925 82.7227 31.8274 82.8115C32.0623 82.9004 32.513 83.0527 32.8304 83.1543C33.1415 83.2559 33.7826 83.4209 34.2587 83.5288C34.7285 83.6304 35.4014 83.7637 35.7505 83.8145C36.0997 83.8652 36.7091 83.9414 37.1153 83.9858C37.5787 84.0303 38.715 84.043 40.2576 84.0239C42.2827 84.0049 42.9175 83.9731 44.2252 83.8335C45.0758 83.7383 45.8947 83.6494 46.0344 83.6304C46.174 83.605 46.3645 83.5796 46.4597 83.5605L46.6374 83.5352V49.7339C46.0724 49.5625 45.7043 49.4546 45.463 49.3848C45.2155 49.3213 44.6568 49.188 44.2252 49.0991C43.7871 49.0103 43.0698 48.8896 42.6381 48.8389C42.1113 48.769 41.2035 48.731 39.9402 48.7183C38.8928 48.7056 37.9215 48.7119 37.7819 48.7246C37.6422 48.7437 37.1407 48.7944 36.671 48.8452V48.8452ZM78.6316 0H89.2646C98.6597 0 99.8976 0.0126953 99.9293 0.0952148C99.942 0.145996 99.961 4.97656 99.961 10.8228C99.961 16.6689 99.942 21.4995 99.9293 21.5503C99.8976 21.6328 98.6597 21.6455 78.6316 21.6455V0ZM102.05 33.6426L102.031 61.75C102.018 81.3071 101.986 90.2383 101.935 91.1206C101.897 91.8188 101.821 93.1646 101.764 94.104C101.713 95.0435 101.624 96.2876 101.573 96.8652C101.523 97.4429 101.44 98.3252 101.389 98.833C101.339 99.3408 101.237 100.198 101.167 100.737C101.091 101.277 100.964 102.153 100.875 102.673C100.786 103.2 100.628 104.057 100.52 104.578C100.418 105.104 100.259 105.828 100.171 106.196C100.082 106.564 99.9357 107.117 99.8531 107.434C99.7643 107.751 99.6246 108.234 99.5357 108.513C99.4532 108.792 99.2501 109.389 99.0914 109.846C98.9327 110.303 98.628 111.084 98.4185 111.592C98.209 112.1 97.7773 113.039 97.4536 113.687C97.1298 114.334 96.7172 115.134 96.5331 115.464C96.3427 115.794 96.0379 116.321 95.8475 116.638C95.6571 116.956 95.2952 117.508 95.054 117.876C94.8064 118.244 94.3875 118.828 94.1272 119.177C93.8606 119.526 93.3908 120.11 93.0734 120.479C92.7624 120.847 92.1149 121.532 91.6451 122.002C91.1753 122.478 90.4009 123.189 89.9311 123.589C89.455 123.982 88.7313 124.566 88.3124 124.877C87.8934 125.195 87.2078 125.684 86.7825 125.963C86.3635 126.249 85.8366 126.591 85.6081 126.737C85.3859 126.877 84.9416 127.156 84.6305 127.347C84.3131 127.537 83.5704 127.962 82.98 128.299C82.3833 128.629 81.4692 129.124 80.9486 129.391C80.4217 129.664 79.9647 129.911 79.9329 129.943C79.9012 129.975 79.7869 130 79.679 130C79.5711 130 79.4568 129.975 79.4251 129.943C79.387 129.911 78.8284 129.638 78.1872 129.333C77.5397 129.029 76.5558 128.565 75.9972 128.305C75.4385 128.039 74.6958 127.689 74.3467 127.524C73.9975 127.359 73.2358 127.004 72.6644 126.731C72.0868 126.464 70.8743 125.893 69.9665 125.461C69.0587 125.03 67.8145 124.446 67.2051 124.16C66.5893 123.875 65.8339 123.513 65.5229 123.367C65.2055 123.214 64.4627 122.865 63.8724 122.586C63.2757 122.307 62.26 121.831 61.6188 121.526C60.9713 121.221 60.3492 120.929 60.2349 120.885C60.1207 120.834 60.0318 120.758 60.0318 120.72C60.0318 120.675 60.7237 120.294 61.568 119.882C62.4123 119.469 63.5486 118.885 64.0946 118.587C64.6341 118.295 65.4213 117.851 65.8403 117.609C66.2592 117.362 66.7544 117.063 66.9512 116.937C67.1416 116.816 67.6431 116.486 68.0621 116.207C68.4811 115.927 69.1349 115.464 69.5221 115.172C69.903 114.886 70.5061 114.41 70.8552 114.118C71.2044 113.833 71.8582 113.223 72.3153 112.766C72.7723 112.315 73.3945 111.643 73.6992 111.274C74.0039 110.906 74.48 110.291 74.7529 109.91C75.0259 109.529 75.4512 108.881 75.6924 108.481C75.9337 108.082 76.2955 107.434 76.4987 107.053C76.7018 106.672 77.0192 106.012 77.216 105.593C77.4064 105.174 77.654 104.59 77.7746 104.292C77.8889 103.994 78.0857 103.454 78.2126 103.086C78.3396 102.718 78.5427 102.089 78.657 101.689C78.7776 101.29 78.9617 100.591 79.0633 100.134C79.1712 99.6772 79.3235 98.9409 79.4124 98.4839C79.5013 98.0269 79.6282 97.2715 79.7044 96.8018C79.7742 96.332 79.9076 95.3164 79.9964 94.5483C80.0853 93.7803 80.2123 92.4219 80.2757 91.5332C80.3456 90.6445 80.4281 89.375 80.4662 88.7085C80.5043 88.042 80.5677 86.6582 80.6122 85.6299C80.663 84.3286 80.6884 76.1021 80.7011 58.7793C80.7138 45.043 80.7391 33.7632 80.7582 33.7188C80.7772 33.6616 82.9673 33.6426 102.05 33.6426V33.6426Z" fill="url(#paint0_linear_199_1754)"/>
<defs>
<linearGradient id="paint0_linear_199_1754" x1="-7.28469" y1="145.444" x2="133.136" y2="37.5057" gradientUnits="userSpaceOnUse">
<stop offset="0.159082" stop-color="#3A1562"/>
<stop offset="1" stop-color="#D56B46"/>
</linearGradient>
</defs>
</svg>
