<svg width="131" height="130" viewBox="0 0 131 130" fill="none" xmlns="http://www.w3.org/2000/svg">
<path fill-rule="evenodd" clip-rule="evenodd" d="M41.2954 0.156031C41.7376 0.0988198 42.2163 0.0468094 42.362 0.0364073C42.5025 0.0260052 47.8149 0.0156031 65.698 0V43.3247L53.7985 43.3091L53.7638 43.309C41.9716 43.2935 41.8878 43.2934 41.1653 43.1842C40.7646 43.1218 40.0726 42.997 39.6304 42.9086C39.1881 42.8202 38.4649 42.6381 38.0278 42.5133C37.5959 42.3885 36.9716 42.1856 36.6542 42.0712C36.3316 41.9516 35.8217 41.7487 35.5199 41.6239C35.2181 41.4939 34.677 41.239 34.3076 41.057C33.9434 40.875 33.3814 40.5681 33.064 40.3809C32.7414 40.1884 32.1847 39.8348 31.8257 39.5903C31.4667 39.3511 30.962 38.987 30.707 38.7842C30.4521 38.5813 29.9942 38.2016 29.6924 37.9416C29.3906 37.6763 28.8183 37.125 28.4228 36.7141C28.0222 36.3033 27.4603 35.6687 27.1741 35.3099C26.8827 34.951 26.4613 34.3893 26.2323 34.0616C26.0034 33.7339 25.634 33.1618 25.4102 32.7926C25.1865 32.4233 24.8067 31.7211 24.5673 31.2322C24.328 30.7433 24.0054 30.0204 23.8493 29.6199C23.6932 29.2194 23.4695 28.5849 23.3498 28.2156C23.2353 27.8464 23.0688 27.2587 22.9856 26.9154C22.8971 26.5721 22.7723 25.974 22.6994 25.5891C22.6266 25.2042 22.5277 24.5489 22.4757 24.1328C22.408 23.5555 22.3872 22.9886 22.382 21.7143C22.382 20.6689 22.408 19.816 22.4497 19.4259C22.4913 19.0826 22.5745 18.4637 22.6474 18.0476C22.715 17.6315 22.8659 16.919 22.9804 16.4613C23.0896 16.0036 23.2926 15.3015 23.4226 14.901C23.5579 14.5005 23.7817 13.8816 23.9273 13.5227C24.073 13.1638 24.3904 12.4721 24.635 11.9884C24.8743 11.5047 25.2177 10.8702 25.3894 10.5841C25.5611 10.2981 25.8421 9.85077 26.0138 9.59592C26.1855 9.34107 26.5029 8.89378 26.7214 8.60772C26.94 8.32166 27.325 7.84317 27.5799 7.54151C27.8349 7.23985 28.3604 6.67814 28.7506 6.29326C29.1409 5.90318 29.7288 5.36747 30.0566 5.09182C30.3844 4.81616 30.8423 4.45209 31.0712 4.28046C31.3002 4.10882 31.7893 3.76555 32.1639 3.5211C32.5385 3.27666 33.1421 2.90738 33.5167 2.69934C33.8913 2.4913 34.5105 2.17924 34.8955 2.0024C35.2806 1.82557 35.8737 1.57071 36.2119 1.43549C36.5449 1.30546 37.1537 1.09222 37.5595 0.967394C37.9706 0.842569 38.5481 0.681336 38.8499 0.608522C39.1517 0.535707 39.6408 0.426485 39.9426 0.364073C40.2443 0.306861 40.8531 0.213243 41.2954 0.156031ZM65.6981 43.3507V21.6883V0L77.5508 0.0156031L77.5551 0.0156088C89.3879 0.0312062 89.3984 0.0312201 90.1788 0.145629C90.6055 0.202841 91.3079 0.327666 91.7398 0.416083C92.1664 0.4993 92.8844 0.676135 93.3267 0.80096C93.769 0.925785 94.435 1.13903 94.8096 1.27425C95.1842 1.40948 95.8346 1.67474 96.2665 1.86717C96.6931 2.05961 97.3955 2.40808 97.8274 2.64733C98.2541 2.88138 98.9721 3.31826 99.4144 3.60952C99.8566 3.90598 100.512 4.37928 100.871 4.66533C101.23 4.94619 101.813 5.45069 102.172 5.77836C102.531 6.11122 103.098 6.68334 103.431 7.05261C103.769 7.42189 104.243 7.9784 104.487 8.29566C104.737 8.61292 105.179 9.23185 105.476 9.67394C105.773 10.116 106.158 10.7349 106.335 11.0522C106.506 11.3695 106.782 11.8948 106.943 12.2224C107.099 12.5501 107.354 13.1222 107.505 13.4967C107.661 13.866 107.89 14.5005 108.026 14.901C108.156 15.3015 108.359 16.0036 108.468 16.4613C108.582 16.919 108.733 17.6315 108.801 18.0476C108.874 18.4637 108.957 19.0826 108.999 19.4259C109.04 19.816 109.066 20.6689 109.066 21.7143C109.066 22.9886 109.04 23.5555 108.972 24.1328C108.92 24.5489 108.822 25.2042 108.749 25.5891C108.676 25.974 108.551 26.5721 108.463 26.9154C108.379 27.2587 108.213 27.8464 108.098 28.2156C107.979 28.5849 107.755 29.2194 107.599 29.6199C107.443 30.0204 107.12 30.7434 106.881 31.2322C106.641 31.7211 106.256 32.4337 106.022 32.8186C105.788 33.2034 105.419 33.7756 105.2 34.0876C104.982 34.3997 104.555 34.9614 104.253 35.3359C103.957 35.7103 103.291 36.4385 102.77 36.9586C102.255 37.4735 101.579 38.108 101.272 38.3629C100.96 38.6177 100.445 39.013 100.127 39.2419C99.8046 39.4707 99.2531 39.8452 98.894 40.074C98.535 40.2977 97.8222 40.6981 97.3071 40.9634C96.792 41.2286 96.0219 41.5875 95.5901 41.7644C95.1634 41.936 94.5286 42.17 94.1852 42.2845C93.8418 42.3937 93.2435 42.5705 92.8584 42.6693C92.4734 42.7682 91.8386 42.9138 91.4536 42.9814C91.0686 43.0542 90.4806 43.153 90.1528 43.1998C89.7886 43.2467 88.826 43.2987 87.7073 43.3247C86.6933 43.3507 81.329 43.3715 65.7239 43.3767L65.7363 64.0871C65.7389 64.0239 65.7416 63.9598 65.7447 63.8948C65.7759 63.2966 65.8383 62.5321 65.88 62.2044C65.9216 61.8767 66.0048 61.3462 66.0673 61.0342C66.1245 60.7221 66.2546 60.1344 66.3535 59.7339C66.4523 59.3334 66.6708 58.5949 66.8373 58.0956C67.009 57.5963 67.2536 56.9254 67.3889 56.6133C67.5242 56.3012 67.7583 55.7811 67.9092 55.4691C68.0653 55.157 68.3567 54.6057 68.5648 54.2468C68.7677 53.888 69.1215 53.3158 69.3557 52.9726C69.5846 52.6293 69.9488 52.1144 70.1673 51.8335C70.3859 51.5475 70.8125 51.0326 71.1143 50.6893C71.4161 50.3408 71.9884 49.7479 72.3891 49.363C72.7845 48.9782 73.4089 48.4269 73.7679 48.1408C74.1269 47.8495 74.6889 47.4283 75.0166 47.1994C75.3444 46.9706 75.9116 46.6013 76.2862 46.3776C76.6608 46.1592 77.3372 45.7899 77.7951 45.5663C78.253 45.3426 78.919 45.041 79.278 44.8954C79.637 44.7497 80.2198 44.5365 80.5788 44.4169C80.9378 44.2972 81.5934 44.1048 82.0357 43.9956C82.4779 43.8811 83.2428 43.7199 83.7267 43.6367C84.2106 43.5535 84.8818 43.4651 85.2096 43.4339C85.5374 43.4027 85.9588 43.3662 86.1461 43.3558C86.3334 43.3454 87.0827 43.3454 87.8111 43.3558C88.5916 43.361 89.4293 43.4027 89.8403 43.4547C90.2254 43.4963 90.8706 43.5951 91.2712 43.6679C91.6718 43.7407 92.3274 43.8811 92.7281 43.98C93.1287 44.084 93.8311 44.2868 94.289 44.4429C94.7469 44.5937 95.4545 44.8589 95.8604 45.0358C96.2714 45.2126 96.8333 45.4675 97.1091 45.6079C97.3901 45.7483 97.8531 45.9928 98.1393 46.1592C98.4255 46.3204 98.9614 46.6585 99.336 46.903C99.7107 47.1422 100.2 47.4855 100.429 47.6571C100.658 47.8339 101.126 48.2136 101.469 48.4997C101.813 48.7909 102.385 49.3214 102.739 49.6751C103.093 50.0288 103.587 50.5541 103.832 50.8401C104.081 51.1262 104.461 51.5943 104.674 51.8803C104.893 52.1664 105.257 52.6813 105.486 53.0246C105.715 53.3678 106.038 53.8827 106.204 54.1688C106.365 54.4549 106.652 54.9802 106.829 55.339C107.011 55.6979 107.276 56.2804 107.427 56.6393C107.578 56.9982 107.838 57.7003 108.004 58.1996C108.166 58.6989 108.384 59.4479 108.488 59.8639C108.587 60.28 108.733 60.9822 108.801 61.4243C108.873 61.8663 108.962 62.4749 108.998 62.7765C109.04 63.1198 109.066 63.9416 109.066 65.013C109.066 66.3236 109.045 66.8749 108.972 67.4575C108.92 67.8736 108.821 68.5289 108.748 68.9138C108.681 69.2986 108.551 69.9072 108.462 70.266C108.374 70.6249 108.166 71.327 108.004 71.8263C107.838 72.3256 107.567 73.0486 107.406 73.4231C107.245 73.8027 106.985 74.3801 106.823 74.6973C106.662 75.0198 106.386 75.5295 106.215 75.8311C106.043 76.1328 105.715 76.6581 105.486 77.0014C105.257 77.3446 104.893 77.8595 104.674 78.1456C104.461 78.4317 104.133 78.8425 103.946 79.0558C103.759 79.269 103.42 79.6435 103.192 79.8879C102.963 80.1324 102.515 80.5745 102.198 80.8709C101.886 81.1674 101.324 81.6563 100.949 81.9528C100.574 82.2544 99.9084 82.7381 99.4661 83.0346C99.0238 83.331 98.4255 83.7055 98.1393 83.8667C97.8531 84.0332 97.3901 84.2776 97.1091 84.4181C96.8333 84.5585 96.2714 84.8133 95.8604 84.9902C95.4545 85.167 94.7469 85.4323 94.289 85.5831C93.8311 85.7391 93.1287 85.942 92.7281 86.046C92.3274 86.1448 91.6718 86.2852 91.2712 86.358C90.8706 86.4309 90.2254 86.5297 89.8403 86.5713C89.4553 86.6181 88.5656 86.6701 87.8632 86.6857C86.9006 86.7065 86.3438 86.6909 85.5998 86.6285C85.0535 86.5817 84.2106 86.4725 83.7267 86.3893C83.2428 86.306 82.4779 86.1448 82.0357 86.0304C81.5934 85.9212 80.9378 85.7287 80.5788 85.6091C80.2198 85.4895 79.637 85.2762 79.278 85.1306C78.919 84.985 78.2634 84.6937 77.8211 84.4753C77.3789 84.2568 76.6869 83.8823 76.2862 83.6431C75.8856 83.3987 75.334 83.0502 75.0635 82.8577C74.7929 82.6705 74.3454 82.3428 74.0749 82.1296C73.8043 81.9164 73.336 81.5263 73.0343 81.2662C72.7325 81.001 72.1966 80.4861 71.8375 80.1168C71.4785 79.7475 71.0102 79.2326 70.7969 78.9778C70.5836 78.7177 70.261 78.3224 70.0893 78.0936C69.9124 77.8647 69.5846 77.3967 69.3557 77.0534C69.1267 76.7101 68.8041 76.1952 68.6376 75.9091C68.4659 75.6231 68.1745 75.0718 67.982 74.6869C67.7895 74.302 67.5242 73.7247 67.3889 73.4127C67.2536 73.1006 67.009 72.4297 66.8373 71.9304C66.6708 71.4311 66.4523 70.6925 66.3535 70.292C66.2546 69.8915 66.1245 69.3038 66.0673 68.9918C66.0048 68.6797 65.9216 68.1492 65.88 67.8215C65.8383 67.4939 65.7759 66.7189 65.7447 66.1052C65.7421 66.0484 65.7397 65.9924 65.7374 65.9371L65.7499 86.7014C65.7499 86.7014 65.75 86.7013 65.75 86.7013V97.8679C65.75 104.78 65.7292 109.326 65.698 109.794C65.6668 110.21 65.5991 110.897 65.5367 111.328C65.4795 111.755 65.3754 112.389 65.3026 112.733C65.2297 113.076 65.0996 113.627 65.0112 113.955C64.9279 114.282 64.7614 114.834 64.647 115.177C64.5325 115.52 64.3296 116.082 64.1891 116.425C64.0538 116.769 63.7885 117.367 63.6063 117.752C63.419 118.136 63.086 118.771 62.8623 119.156C62.6386 119.541 62.316 120.071 62.1443 120.326C61.9726 120.581 61.6552 121.028 61.4418 121.314C61.2285 121.6 60.8331 122.089 60.5729 122.406C60.3076 122.724 59.7404 123.322 59.319 123.743C58.8923 124.164 58.346 124.674 58.1014 124.882C57.8569 125.09 57.3418 125.496 56.9568 125.782C56.5717 126.073 55.9265 126.51 55.5259 126.765C55.1253 127.015 54.4124 127.415 53.9389 127.654C53.4655 127.894 52.7734 128.221 52.404 128.377C52.0346 128.533 51.4102 128.767 51.0252 128.897C50.6402 129.027 49.9586 129.23 49.5163 129.345C49.074 129.459 48.3924 129.61 48.0074 129.683C47.6224 129.75 46.9772 129.854 46.5765 129.906C45.9938 129.979 45.4891 130 44.053 130C42.6378 130 42.0966 129.979 41.5035 129.906C41.0872 129.854 40.338 129.73 39.8385 129.631C39.339 129.532 38.5533 129.345 38.0954 129.215C37.6376 129.085 36.9456 128.861 36.5605 128.715C36.1755 128.575 35.5199 128.304 35.1037 128.117C34.6874 127.935 34.011 127.597 33.5947 127.363C33.1785 127.134 32.5385 126.744 32.1639 126.505C31.7893 126.26 31.3002 125.917 31.0712 125.746C30.8423 125.574 30.3844 125.21 30.0566 124.934C29.7288 124.664 29.1409 124.123 28.7506 123.733C28.3656 123.348 27.8349 122.786 27.5799 122.484C27.325 122.183 26.94 121.704 26.7214 121.418C26.5029 121.132 26.1855 120.685 26.0138 120.43C25.8421 120.175 25.5455 119.691 25.3478 119.364C25.1501 119.036 24.8223 118.428 24.6142 118.012C24.406 117.595 24.1095 116.94 23.9534 116.555C23.7973 116.17 23.5631 115.536 23.4331 115.151C23.303 114.766 23.1053 114.064 22.9856 113.591C22.8711 113.117 22.7202 112.394 22.6474 111.978C22.5797 111.562 22.4913 110.943 22.4497 110.6C22.408 110.21 22.382 109.352 22.382 108.312C22.382 107.032 22.408 106.476 22.4757 105.893C22.5277 105.477 22.6266 104.822 22.6994 104.437C22.7723 104.052 22.8971 103.454 22.9856 103.111C23.0688 102.767 23.2353 102.185 23.3498 101.81C23.4695 101.436 23.6932 100.807 23.8493 100.406C24.0054 100.006 24.328 99.2774 24.5673 98.7937C24.8067 98.31 25.1969 97.5923 25.4258 97.2074C25.66 96.8225 26.0294 96.2504 26.2479 95.9383C26.4665 95.6263 26.8827 95.075 27.1741 94.7161C27.4603 94.3572 28.0118 93.7383 28.3968 93.3378C28.7819 92.9426 29.349 92.3912 29.6664 92.1104C29.9838 91.8295 30.5925 91.3354 31.0296 91.013C31.4615 90.6853 32.1275 90.2224 32.5125 89.9832C32.8923 89.7387 33.626 89.3226 34.1411 89.0626C34.6562 88.7973 35.4262 88.4384 35.8581 88.2616C36.2848 88.09 36.9195 87.8559 37.2629 87.7415C37.6064 87.6323 38.2047 87.4555 38.5897 87.3566C38.9748 87.2578 39.5991 87.1174 39.9686 87.0446C40.338 86.977 40.952 86.8833 41.3214 86.8365C41.6908 86.7897 42.081 86.7481 42.1799 86.7377C42.2786 86.7273 47.6041 86.7118 65.6571 86.7014H54.4487C47.0551 86.7014 42.8978 86.6805 42.4399 86.6493C42.0549 86.6181 41.3525 86.5349 40.879 86.4725C40.4055 86.4049 39.6458 86.2593 39.188 86.1552C38.7301 86.0512 38.0173 85.8588 37.601 85.7288C37.1848 85.6039 36.5188 85.3699 36.1181 85.2087C35.7175 85.0526 35.0619 84.7666 34.6613 84.5741C34.2606 84.3817 33.6779 84.0748 33.3605 83.898C33.0431 83.716 32.4863 83.3675 32.1117 83.123C31.7371 82.8838 31.248 82.5405 31.0191 82.3689C30.7901 82.1921 30.3687 81.8592 30.0825 81.6147C29.7963 81.3755 29.224 80.8502 28.8129 80.4445C28.4019 80.0388 27.8244 79.4251 27.5382 79.0818C27.2468 78.7386 26.867 78.2705 26.6901 78.0416C26.5184 77.8128 26.1906 77.3447 25.9616 77.0014C25.7327 76.6581 25.4049 76.1328 25.2332 75.8312C25.0615 75.5295 24.7753 75.0042 24.6036 74.6609C24.4319 74.3177 24.177 73.756 24.0313 73.4127C23.8856 73.0694 23.6723 72.5077 23.5526 72.1644C23.4329 71.8212 23.2456 71.2127 23.1311 70.8122C23.0167 70.4117 22.8554 69.746 22.7721 69.3299C22.6889 68.9138 22.5692 68.1752 22.5068 67.6916C22.4027 66.9166 22.3871 66.5837 22.3871 65.013C22.3819 63.4319 22.3975 63.1146 22.5016 62.3345C22.5692 61.8508 22.6889 61.1122 22.7721 60.6962C22.8554 60.2801 23.0167 59.6143 23.1311 59.2139C23.2456 58.8134 23.4329 58.2049 23.5526 57.8616C23.6723 57.5183 23.8856 56.9566 24.0313 56.6133C24.177 56.2701 24.4371 55.698 24.6192 55.3391C24.7961 54.9802 25.0771 54.4549 25.2436 54.1688C25.4101 53.8828 25.7327 53.3679 25.9616 53.0246C26.1906 52.6814 26.5548 52.1664 26.7733 51.8804C26.9866 51.5943 27.3665 51.1262 27.6162 50.8402C27.8608 50.5541 28.3551 50.0288 28.7089 49.6751C29.0627 49.3215 29.635 48.791 29.9784 48.4997C30.3218 48.2137 30.7901 47.834 31.0191 47.6623C31.248 47.4855 31.6799 47.1839 31.9816 46.981C32.2834 46.7834 32.7933 46.4609 33.1159 46.2737C33.4333 46.0812 33.9744 45.79 34.3074 45.6183C34.6456 45.4519 35.2388 45.1814 35.6238 45.015C36.0089 44.8538 36.7009 44.5937 37.1588 44.4429C37.6166 44.2869 38.3659 44.0684 38.8237 43.9592C39.2816 43.8448 39.9372 43.7044 40.2806 43.6471C40.624 43.5847 41.2328 43.5015 41.6334 43.4599C42.0341 43.4131 42.4763 43.3715 42.622 43.3611C42.7624 43.3507 48.0178 43.3455 65.6981 43.3507Z" fill="url(#paint0_linear_199_1659)"/>
<defs>
<linearGradient id="paint0_linear_199_1659" x1="16.0974" y1="145.444" x2="149.19" y2="58.4519" gradientUnits="userSpaceOnUse">
<stop offset="0.159082" stop-color="#3A1562"/>
<stop offset="1" stop-color="#D56B46"/>
</linearGradient>
</defs>
</svg>
