<svg width="130" height="130" viewBox="0 0 130 130" fill="none" xmlns="http://www.w3.org/2000/svg">
<rect x="1" y="1" width="128" height="128" rx="31" fill="url(#paint0_linear_942_4909)"/>
<rect x="1" y="1" width="128" height="128" rx="31" stroke="#862DB7" stroke-width="2"/>
<path d="M25.1538 45.52C24.8244 44.9133 24.3478 44.454 23.7238 44.142C23.1171 43.8127 22.3978 43.648 21.5658 43.648C20.1271 43.648 18.9744 44.1247 18.1078 45.078C17.2411 46.014 16.8078 47.2707 16.8078 48.848C16.8078 50.5293 17.2584 51.8467 18.1598 52.8C19.0784 53.736 20.3351 54.204 21.9298 54.204C23.0218 54.204 23.9404 53.9267 24.6858 53.372C25.4484 52.8173 26.0031 52.02 26.3498 50.98H20.7078V47.704H30.3798V51.838C30.0504 52.9473 29.4871 53.9787 28.6898 54.932C27.9098 55.8853 26.9131 56.6567 25.6998 57.246C24.4864 57.8353 23.1171 58.13 21.5918 58.13C19.7891 58.13 18.1771 57.74 16.7558 56.96C15.3518 56.1627 14.2511 55.062 13.4538 53.658C12.6738 52.254 12.2838 50.6507 12.2838 48.848C12.2838 47.0453 12.6738 45.442 13.4538 44.038C14.2511 42.6167 15.3518 41.516 16.7558 40.736C18.1598 39.9387 19.7631 39.54 21.5658 39.54C23.7498 39.54 25.5871 40.0687 27.0778 41.126C28.5858 42.1833 29.5824 43.648 30.0678 45.52H25.1538ZM37.2885 45.91C37.8085 45.1127 38.4585 44.4887 39.2385 44.038C40.0185 43.57 40.8851 43.336 41.8385 43.336V48.042H40.6165C39.5071 48.042 38.6751 48.2847 38.1205 48.77C37.5658 49.238 37.2885 50.07 37.2885 51.266V58H32.8425V43.492H37.2885V45.91ZM43.0796 50.72C43.0796 49.2293 43.3569 47.9207 43.9116 46.794C44.4836 45.6673 45.2549 44.8007 46.2256 44.194C47.1962 43.5873 48.2796 43.284 49.4756 43.284C50.4982 43.284 51.3909 43.492 52.1536 43.908C52.9336 44.324 53.5316 44.87 53.9476 45.546V43.492H58.3936V58H53.9476V55.946C53.5142 56.622 52.9076 57.168 52.1276 57.584C51.3649 58 50.4722 58.208 49.4496 58.208C48.2709 58.208 47.1962 57.9047 46.2256 57.298C45.2549 56.674 44.4836 55.7987 43.9116 54.672C43.3569 53.528 43.0796 52.2107 43.0796 50.72ZM53.9476 50.746C53.9476 49.6367 53.6356 48.7613 53.0116 48.12C52.4049 47.4787 51.6596 47.158 50.7756 47.158C49.8916 47.158 49.1376 47.4787 48.5136 48.12C47.9069 48.744 47.6036 49.6107 47.6036 50.72C47.6036 51.8293 47.9069 52.7133 48.5136 53.372C49.1376 54.0133 49.8916 54.334 50.7756 54.334C51.6596 54.334 52.4049 54.0133 53.0116 53.372C53.6356 52.7307 53.9476 51.8553 53.9476 50.746ZM66.056 45.546C66.4894 44.87 67.0874 44.324 67.85 43.908C68.6127 43.492 69.5054 43.284 70.528 43.284C71.724 43.284 72.8074 43.5873 73.778 44.194C74.7487 44.8007 75.5114 45.6673 76.066 46.794C76.638 47.9207 76.924 49.2293 76.924 50.72C76.924 52.2107 76.638 53.528 76.066 54.672C75.5114 55.7987 74.7487 56.674 73.778 57.298C72.8074 57.9047 71.724 58.208 70.528 58.208C69.5227 58.208 68.63 58 67.85 57.584C67.0874 57.168 66.4894 56.6307 66.056 55.972V64.916H61.61V43.492H66.056V45.546ZM72.4 50.72C72.4 49.6107 72.088 48.744 71.464 48.12C70.8574 47.4787 70.1034 47.158 69.202 47.158C68.318 47.158 67.564 47.4787 66.94 48.12C66.3334 48.7613 66.03 49.6367 66.03 50.746C66.03 51.8553 66.3334 52.7307 66.94 53.372C67.564 54.0133 68.318 54.334 69.202 54.334C70.086 54.334 70.84 54.0133 71.464 53.372C72.088 52.7133 72.4 51.8293 72.4 50.72ZM88.1745 43.336C89.8385 43.336 91.1732 43.8907 92.1785 45C93.1839 46.092 93.6865 47.6 93.6865 49.524V58H89.2665V50.122C89.2665 49.1513 89.0152 48.3973 88.5125 47.86C88.0099 47.3227 87.3339 47.054 86.4845 47.054C85.6352 47.054 84.9592 47.3227 84.4565 47.86C83.9539 48.3973 83.7025 49.1513 83.7025 50.122V58H79.2565V38.76H83.7025V45.442C84.1532 44.8007 84.7685 44.2893 85.5485 43.908C86.3285 43.5267 87.2039 43.336 88.1745 43.336ZM99.0121 41.984C98.2321 41.984 97.5907 41.7587 97.0881 41.308C96.6027 40.84 96.3601 40.268 96.3601 39.592C96.3601 38.8987 96.6027 38.3267 97.0881 37.876C97.5907 37.408 98.2321 37.174 99.0121 37.174C99.7747 37.174 100.399 37.408 100.884 37.876C101.387 38.3267 101.638 38.8987 101.638 39.592C101.638 40.268 101.387 40.84 100.884 41.308C100.399 41.7587 99.7747 41.984 99.0121 41.984ZM101.222 43.492V58H96.7761V43.492H101.222ZM103.56 50.746C103.56 49.238 103.863 47.9207 104.47 46.794C105.094 45.6673 105.952 44.8007 107.044 44.194C108.153 43.5873 109.419 43.284 110.84 43.284C112.66 43.284 114.177 43.7607 115.39 44.714C116.621 45.6673 117.427 47.0107 117.808 48.744H113.076C112.677 47.6347 111.906 47.08 110.762 47.08C109.947 47.08 109.297 47.4007 108.812 48.042C108.327 48.666 108.084 49.5673 108.084 50.746C108.084 51.9247 108.327 52.8347 108.812 53.476C109.297 54.1 109.947 54.412 110.762 54.412C111.906 54.412 112.677 53.8573 113.076 52.748H117.808C117.427 54.4467 116.621 55.7813 115.39 56.752C114.159 57.7227 112.643 58.208 110.84 58.208C109.419 58.208 108.153 57.9047 107.044 57.298C105.952 56.6913 105.094 55.8247 104.47 54.698C103.863 53.5713 103.56 52.254 103.56 50.746ZM27.3279 71.748C29.2519 71.748 30.9333 72.1293 32.3719 72.892C33.8106 73.6547 34.9199 74.7293 35.6999 76.116C36.4973 77.4853 36.8959 79.0713 36.8959 80.874C36.8959 82.6593 36.4973 84.2453 35.6999 85.632C34.9199 87.0187 33.8019 88.0933 32.3459 88.856C30.9073 89.6187 29.2346 90 27.3279 90H20.4899V71.748H27.3279ZM27.0419 86.152C28.7233 86.152 30.0319 85.6927 30.9679 84.774C31.9039 83.8553 32.3719 82.5553 32.3719 80.874C32.3719 79.1927 31.9039 77.884 30.9679 76.948C30.0319 76.012 28.7233 75.544 27.0419 75.544H24.9359V86.152H27.0419ZM53.0566 82.512C53.0566 82.928 53.0306 83.3613 52.9786 83.812H42.9166C42.9859 84.7133 43.2719 85.4067 43.7746 85.892C44.2946 86.36 44.9272 86.594 45.6726 86.594C46.7819 86.594 47.5532 86.126 47.9866 85.19H52.7186C52.4759 86.1433 52.0339 87.0013 51.3926 87.764C50.7686 88.5267 49.9799 89.1247 49.0266 89.558C48.0732 89.9913 47.0072 90.208 45.8286 90.208C44.4072 90.208 43.1419 89.9047 42.0326 89.298C40.9232 88.6913 40.0566 87.8247 39.4326 86.698C38.8086 85.5713 38.4966 84.254 38.4966 82.746C38.4966 81.238 38.7999 79.9207 39.4066 78.794C40.0306 77.6673 40.8972 76.8007 42.0066 76.194C43.1159 75.5873 44.3899 75.284 45.8286 75.284C47.2326 75.284 48.4806 75.5787 49.5726 76.168C50.6646 76.7573 51.5139 77.598 52.1206 78.69C52.7446 79.782 53.0566 81.056 53.0566 82.512ZM48.5066 81.342C48.5066 80.5793 48.2466 79.9727 47.7266 79.522C47.2066 79.0713 46.5566 78.846 45.7766 78.846C45.0312 78.846 44.3986 79.0627 43.8786 79.496C43.3759 79.9293 43.0639 80.5447 42.9426 81.342H48.5066ZM61.304 90.208C60.0387 90.208 58.912 89.9913 57.924 89.558C56.936 89.1247 56.156 88.5353 55.584 87.79C55.012 87.0273 54.6914 86.178 54.622 85.242H59.016C59.068 85.7447 59.302 86.152 59.718 86.464C60.134 86.776 60.6454 86.932 61.252 86.932C61.8067 86.932 62.2314 86.828 62.526 86.62C62.838 86.3947 62.994 86.1087 62.994 85.762C62.994 85.346 62.7774 85.0427 62.344 84.852C61.9107 84.644 61.2087 84.4187 60.238 84.176C59.198 83.9333 58.3314 83.682 57.638 83.422C56.9447 83.1447 56.3467 82.72 55.844 82.148C55.3414 81.5587 55.09 80.77 55.09 79.782C55.09 78.95 55.3154 78.196 55.766 77.52C56.234 76.8267 56.91 76.2807 57.794 75.882C58.6954 75.4833 59.7614 75.284 60.992 75.284C62.812 75.284 64.242 75.7347 65.282 76.636C66.3394 77.5373 66.946 78.7333 67.102 80.224H62.994C62.9247 79.7213 62.6994 79.3227 62.318 79.028C61.954 78.7333 61.4687 78.586 60.862 78.586C60.342 78.586 59.9434 78.69 59.666 78.898C59.3887 79.0887 59.25 79.3573 59.25 79.704C59.25 80.12 59.4667 80.432 59.9 80.64C60.3507 80.848 61.044 81.056 61.98 81.264C63.0547 81.5413 63.93 81.8187 64.606 82.096C65.282 82.356 65.8714 82.7893 66.374 83.396C66.894 83.9853 67.1627 84.7827 67.18 85.788C67.18 86.6373 66.9374 87.4 66.452 88.076C65.984 88.7347 65.2994 89.2547 64.398 89.636C63.514 90.0173 62.4827 90.208 61.304 90.208ZM72.1361 73.984C71.3561 73.984 70.7148 73.7587 70.2121 73.308C69.7268 72.84 69.4841 72.268 69.4841 71.592C69.4841 70.8987 69.7268 70.3267 70.2121 69.876C70.7148 69.408 71.3561 69.174 72.1361 69.174C72.8988 69.174 73.5228 69.408 74.0081 69.876C74.5108 70.3267 74.7621 70.8987 74.7621 71.592C74.7621 72.268 74.5108 72.84 74.0081 73.308C73.5228 73.7587 72.8988 73.984 72.1361 73.984ZM74.3461 75.492V90H69.9001V75.492H74.3461ZM83.0801 75.284C84.1027 75.284 84.9954 75.492 85.7581 75.908C86.5381 76.324 87.1361 76.87 87.5521 77.546V75.492H91.9981V89.974C91.9981 91.3087 91.7294 92.5133 91.1921 93.588C90.6721 94.68 89.8661 95.5467 88.7741 96.188C87.6994 96.8293 86.3561 97.15 84.7441 97.15C82.5947 97.15 80.8527 96.6387 79.5181 95.616C78.1834 94.6107 77.4207 93.2413 77.2301 91.508H81.6241C81.7627 92.0627 82.0921 92.496 82.6121 92.808C83.1321 93.1373 83.7734 93.302 84.5361 93.302C85.4547 93.302 86.1827 93.0333 86.7201 92.496C87.2747 91.976 87.5521 91.1353 87.5521 89.974V87.92C87.1187 88.596 86.5207 89.1507 85.7581 89.584C84.9954 90 84.1027 90.208 83.0801 90.208C81.8841 90.208 80.8007 89.9047 79.8301 89.298C78.8594 88.674 78.0881 87.7987 77.5161 86.672C76.9614 85.528 76.6841 84.2107 76.6841 82.72C76.6841 81.2293 76.9614 79.9207 77.5161 78.794C78.0881 77.6673 78.8594 76.8007 79.8301 76.194C80.8007 75.5873 81.8841 75.284 83.0801 75.284ZM87.5521 82.746C87.5521 81.6367 87.2401 80.7613 86.6161 80.12C86.0094 79.4787 85.2641 79.158 84.3801 79.158C83.4961 79.158 82.7421 79.4787 82.1181 80.12C81.5114 80.744 81.2081 81.6107 81.2081 82.72C81.2081 83.8293 81.5114 84.7133 82.1181 85.372C82.7421 86.0133 83.4961 86.334 84.3801 86.334C85.2641 86.334 86.0094 86.0133 86.6161 85.372C87.2401 84.7307 87.5521 83.8553 87.5521 82.746ZM104.055 75.336C105.753 75.336 107.105 75.8907 108.111 77C109.133 78.092 109.645 79.6 109.645 81.524V90H105.225V82.122C105.225 81.1513 104.973 80.3973 104.471 79.86C103.968 79.3227 103.292 79.054 102.443 79.054C101.593 79.054 100.917 79.3227 100.415 79.86C99.9119 80.3973 99.6605 81.1513 99.6605 82.122V90H95.2145V75.492H99.6605V77.416C100.111 76.7747 100.718 76.272 101.481 75.908C102.243 75.5267 103.101 75.336 104.055 75.336Z" fill="white"/>
<defs>
<linearGradient id="paint0_linear_942_4909" x1="-9.425" y1="145.444" x2="135.854" y2="3.03666" gradientUnits="userSpaceOnUse">
<stop offset="0.159082" stop-color="#3A1562"/>
<stop offset="1" stop-color="#D56B46"/>
</linearGradient>
</defs>
</svg>
