<svg width="115" height="130" viewBox="0 0 115 130" fill="none" xmlns="http://www.w3.org/2000/svg">
<path fill-rule="evenodd" clip-rule="evenodd" d="M0.125264 0.105226C0.041029 0.147317 0.251616 3.07261 0.588555 6.56612C0.925493 10.0807 1.74678 18.8986 2.3996 26.2013C3.05242 33.483 4.00006 44.195 4.50547 49.9824C5.00507 55.4745 6.4339 71.4849 7.76619 86.4135L7.98015 88.8109C9.37002 104.384 10.5282 117.138 10.5704 117.159C10.5914 117.18 20.8891 120.063 33.4611 123.536C46.0332 127.029 56.6046 129.933 56.9416 129.996C57.3627 130.06 60.5426 129.281 66.7339 127.576C69.7494 126.731 73.6797 125.645 77.2565 124.656C79.6494 123.994 81.8841 123.377 83.5808 122.904C87.4516 121.826 93.1362 120.256 96.818 119.239L97.7954 118.969C101.375 117.98 104.345 117.159 104.366 117.138C104.408 117.138 104.808 112.866 105.271 107.646C105.341 106.861 105.419 105.989 105.502 105.054C105.97 99.8004 106.614 92.5666 107.061 87.6534C107.588 81.866 108.956 66.4819 110.115 53.4549C110.292 51.4608 110.473 49.4214 110.655 47.3784C111.659 36.0744 112.674 24.6594 113.084 20.2034C113.448 16.0652 113.891 11.0546 114.186 7.71138C114.266 6.80407 114.336 6.01957 114.39 5.40863C114.642 2.52543 114.811 0.126271 114.748 0.084181C114.684 0.0210452 88.9086 0 57.447 0C25.9853 0 0.18844 0.0420905 0.125264 0.105226ZM23.5425 47.0356C22.5317 35.9239 21.6472 26.2013 21.563 25.4226L21.4366 23.9916H57.468V38.5128H47.3599C38.5152 38.5128 37.2517 38.5549 37.2517 38.8285C37.2517 38.9968 37.4834 41.8169 37.7782 45.0789L37.9084 46.5321L37.9085 46.5328C38.1524 49.2569 38.3719 51.709 38.5152 53.034H57.468V67.3448L25.3536 67.2395L23.5425 47.0361L23.5425 47.0356ZM27.0383 86.2434C26.5118 80.3718 26.0696 75.3209 26.0696 75.0263V74.5001H33.2295C37.1675 74.5001 40.3895 74.5843 40.3895 74.6685C40.4097 74.7493 40.624 77.139 40.8834 80.0305L40.9159 80.3928C41.2107 83.4654 41.4634 86.0119 41.5056 86.0329C41.5266 86.054 44.9171 86.98 49.0235 88.0954L49.7987 88.3009L49.7994 88.3011C53.59 89.3063 56.7565 90.1461 57.447 90.2841V97.7551C57.447 101.88 57.3838 105.226 57.2996 105.226C57.2153 105.226 50.645 103.416 42.7059 101.207C34.7878 98.9968 28.2175 97.1448 28.1333 97.0606C28.0701 96.9765 27.5647 92.115 27.0383 86.2434ZM57.4681 38.5128V31.2522V23.9916H93.2678V24.5598C93.2678 24.8965 93.0362 27.6534 92.7414 30.726C92.4676 33.7987 92.1728 36.8081 92.0043 38.5128H57.4681ZM57.4681 67.3448V60.1894V53.034H90.7408L90.6144 54.2336C90.5862 54.5342 90.3944 56.6757 90.0988 59.9749L90.0979 59.9854L90.0962 60.0048L90.0947 60.0218C89.7283 64.1115 89.204 69.9634 88.6349 76.289C87.6031 87.7586 86.7186 97.1238 86.6975 97.1448C86.6554 97.1659 80.1904 98.9547 72.3145 101.122C64.4385 103.29 57.8682 105.121 57.7208 105.163C57.5313 105.205 57.4681 103.627 57.4681 97.7551C57.4681 93.6513 57.5102 90.2841 57.5734 90.2841C57.6366 90.2841 61.2165 89.337 65.5336 88.1796C69.8295 87.0221 73.3884 86.0329 73.3884 86.0119C73.4095 85.9908 73.8096 81.8449 74.2519 76.8151C74.7151 71.7853 75.0521 67.5973 75.01 67.5131C74.9889 67.4079 71.0088 67.3448 57.4681 67.3448Z" fill="url(#paint0_linear_199_1668)"/>
<path fill-rule="evenodd" clip-rule="evenodd" d="M104.218 9.89127H57.468V23.9916H57.468V23.9916H57.4681V23.9916H93.2678V24.5598C93.2678 24.8965 93.0362 27.6534 92.7414 30.726C92.668 31.5492 92.5932 32.3679 92.5196 33.1581C92.4493 33.9146 92.3822 34.6226 92.3231 35.2395C92.1982 36.5443 92.0863 37.6831 92.0043 38.5128L92.0042 38.5128H57.468V53.034L57.4681 53.034H90.7408L90.7396 53.0454C90.5685 54.7807 89.7067 64.3175 88.7401 75.342C88.6537 76.3068 88.5684 77.2593 88.4846 78.1946C87.6092 87.969 86.9025 95.8594 86.8449 96.282L86.7396 97.1238C86.7262 97.1275 86.7128 97.1312 86.6995 97.1349C86.6985 97.1411 86.6979 97.1444 86.6975 97.1448C86.6579 97.1646 80.945 98.7459 73.7194 100.736C61.6724 104.079 57.7387 105.178 57.6575 105.226C57.5523 105.289 57.4891 108.488 57.5312 112.718L57.5733 120.105C86.7817 111.961 95.2894 109.583 95.3105 109.562C95.3315 109.562 97.3531 87.3378 99.796 60.1894L100.152 56.2021C102.411 30.8803 104.218 10.6154 104.218 10.3753V9.89127ZM57.6007 90.2789C57.5853 90.2823 57.5761 90.2841 57.5734 90.2841C57.5733 90.2841 57.5733 90.2841 57.5732 90.2841C57.5101 90.2778 57.468 85.1242 57.468 78.8144V67.3448H57.8306C70.7931 67.3459 74.8155 67.4061 75.0031 67.5064C75.0072 67.5086 75.0094 67.5109 75.0099 67.5131C75.052 67.5973 74.7151 71.7853 74.2518 76.8151C73.8095 81.8449 73.4094 85.9909 73.3884 86.0119C73.3884 86.033 69.8295 87.0221 65.5124 88.1796C61.4012 89.2873 57.9457 90.2022 57.6007 90.2789Z" fill="url(#paint1_linear_199_1668)"/>
<defs>
<linearGradient id="paint0_linear_199_1668" x1="-8.20575" y1="145.444" x2="135.576" y2="21.1415" gradientUnits="userSpaceOnUse">
<stop offset="0.159082" stop-color="#3A1562"/>
<stop offset="1" stop-color="#D56B46"/>
</linearGradient>
<linearGradient id="paint1_linear_199_1668" x1="54.0786" y1="133.199" x2="141.423" y2="96.8816" gradientUnits="userSpaceOnUse">
<stop offset="0.159082" stop-color="#B24C37"/>
<stop offset="1" stop-color="#D56B46"/>
</linearGradient>
</defs>
</svg>
