<svg width="115" height="130" viewBox="0 0 115 130" fill="none" xmlns="http://www.w3.org/2000/svg">
<path d="M19.4848 0.185705C19.2528 0.185705 19.0672 0.162492 19.0672 0.131542V0.123804C19.0672 0.092854 19.2373 0.0696411 19.4539 0.0696411C19.6627 0.0696411 19.8561 0.092854 19.8715 0.123804C19.887 0.162492 19.7168 0.185705 19.4848 0.185705Z" fill="#FFDE24"/>
<path fill-rule="evenodd" clip-rule="evenodd" d="M0.791922 0.0619009C0.760986 0.108327 0.753252 0.170228 0.76872 0.208916C0.784188 0.239866 0.822858 0.595796 0.846059 0.998152C0.876995 1.40051 0.915665 1.91119 0.931133 2.12011C0.936951 2.2016 0.946051 2.30827 0.955965 2.42447C0.972408 2.6172 0.991088 2.83615 1.00074 3.00993C1.0047 3.05751 1.00957 3.11616 1.01514 3.18336C1.04221 3.50957 1.086 4.03738 1.12448 4.48008C1.17088 5.01397 1.22502 5.69488 1.24049 5.98891C1.2541 6.16589 1.27302 6.37479 1.28947 6.55633C1.30107 6.68434 1.31143 6.79874 1.31783 6.87874C1.32333 6.94759 1.33178 7.04487 1.34142 7.15592C1.35886 7.35687 1.38022 7.60293 1.39517 7.80725C1.4198 8.05991 1.44444 8.37636 1.46127 8.59245C1.46557 8.6477 1.46936 8.69638 1.47251 8.73577C1.47566 8.77515 1.47945 8.82383 1.48375 8.87908C1.50057 9.09517 1.52521 9.41163 1.54985 9.66428C1.55476 9.73152 1.56003 9.80502 1.56549 9.88131C1.58581 10.165 1.6089 10.4872 1.62719 10.6702C1.64083 10.8066 1.65714 11.0019 1.67298 11.1916C1.68409 11.3246 1.69496 11.4548 1.70452 11.56C1.71656 11.7587 1.74265 12.0652 1.76457 12.3226C1.77081 12.396 1.77672 12.4654 1.78186 12.5272C1.80507 12.8058 1.84374 13.2391 1.86694 13.4944C1.87687 13.6583 1.89636 13.8669 1.91314 14.0464C1.92249 14.1465 1.931 14.2376 1.93654 14.3068C1.94089 14.3612 1.94706 14.4344 1.9542 14.5192C1.97251 14.7363 1.99719 15.0292 2.01388 15.274C2.03057 15.5189 2.05526 15.8118 2.07356 16.0289C2.08071 16.1137 2.08688 16.1869 2.09122 16.2413C2.10715 16.3741 2.19964 17.4989 2.32613 19.0374C2.38388 19.7398 2.44871 20.5284 2.51659 21.3481C2.7254 23.9634 2.91875 26.3156 2.94195 26.571C2.95742 26.8263 3.01156 27.4917 3.05796 28.0411C3.07787 28.2801 3.09778 28.5348 3.11585 28.766C3.13991 29.0738 3.16072 29.34 3.17397 29.4726C3.18128 29.5824 3.19379 29.7458 3.20739 29.9236C3.22255 30.1217 3.23908 30.3377 3.25131 30.5172C3.268 30.762 3.29268 31.0549 3.31099 31.272C3.31813 31.3568 3.3243 31.43 3.32865 31.4844C3.3446 31.6174 3.37153 31.937 3.40188 32.2972C3.41566 32.4609 3.43016 32.633 3.44466 32.7997C3.4738 33.1351 3.50294 33.5192 3.52634 33.8276C3.5402 34.0102 3.55204 34.1663 3.56067 34.2699C3.58387 34.5484 3.65347 35.4151 3.71534 36.2043C3.77722 36.9935 3.84682 37.8601 3.87002 38.1387L3.87539 38.2032C3.89784 38.4733 3.92591 38.811 3.94736 38.9898C3.95413 39.0745 3.96534 39.1962 3.97776 39.3309C3.99371 39.5041 4.01165 39.6988 4.0247 39.8642C4.03495 39.9906 4.0467 40.1487 4.05863 40.3092C4.07371 40.5121 4.08908 40.7188 4.10204 40.8701C4.11299 40.9942 4.12565 41.1545 4.13842 41.316C4.15271 41.4968 4.16712 41.6792 4.17938 41.8141C4.18894 41.9193 4.19982 42.0495 4.21092 42.1824C4.22676 42.3721 4.24308 42.5674 4.25672 42.7039C4.279 42.9268 4.42256 44.67 4.58462 46.6378L4.58468 46.6386L4.60474 46.8822C4.77489 48.9482 5.05331 52.3759 5.22346 54.5038C5.36137 56.2284 5.48911 57.8616 5.54493 58.5751C5.55797 58.7419 5.56709 58.8585 5.57148 58.9142C5.58458 59.0802 5.60261 59.2807 5.61861 59.4586C5.63095 59.5959 5.64209 59.7198 5.64882 59.804C5.66332 59.9249 5.6929 60.3024 5.73004 60.7762C5.75235 61.0609 5.77738 61.3803 5.8035 61.6997C5.86537 62.5509 5.93498 63.4252 5.95818 63.6341C5.96497 63.7293 5.97922 63.896 5.99634 64.0964C6.01821 64.3523 6.04477 64.6631 6.06646 64.9495C6.11286 65.4602 6.167 66.1257 6.1902 66.4197C6.19705 66.5065 6.20457 66.6061 6.21237 66.7094C6.23099 66.9559 6.25119 67.2233 6.26754 67.3869C6.27989 67.5722 6.30702 67.866 6.32927 68.1068C6.33489 68.1677 6.3402 68.2252 6.34488 68.2767C6.35646 68.4679 6.38105 68.7719 6.40242 69.036C6.40958 69.1246 6.41639 69.2087 6.42222 69.2826C6.44963 69.5432 6.47705 69.8888 6.4937 70.0987C6.49583 70.1257 6.4978 70.1504 6.49956 70.1724C6.50392 70.227 6.52121 70.4324 6.54812 70.7522C6.61661 71.5661 6.74745 73.1208 6.88625 74.815C7.07187 77.175 7.24975 79.3183 7.27295 79.5736C7.2899 79.7602 7.33988 80.3764 7.39876 81.1022C7.42047 81.3698 7.44338 81.6523 7.46629 81.9336C7.53443 82.7702 7.60256 83.6415 7.63891 84.1064C7.64795 84.2219 7.65502 84.3124 7.65964 84.3709C7.67274 84.5369 7.69077 84.7375 7.70677 84.9154C7.71911 85.0527 7.73025 85.1765 7.73698 85.2608C7.74249 85.3296 7.75093 85.4269 7.76058 85.538C7.77802 85.7389 7.79938 85.985 7.81432 86.1893C7.8225 86.3011 7.8326 86.4322 7.84293 86.5663C7.86191 86.8124 7.88165 87.0685 7.89166 87.2339C7.91486 87.4892 7.98447 88.3403 8.04634 89.1296C8.0682 89.4084 8.09102 89.6998 8.11243 89.9731C8.1516 90.4732 8.18601 90.9125 8.20102 91.1027C8.21412 91.2687 8.23214 91.4692 8.24814 91.6471C8.26048 91.7844 8.27162 91.9083 8.27836 91.9925C8.28386 92.0613 8.29231 92.1586 8.30195 92.2697C8.31939 92.4706 8.34075 92.7167 8.3557 92.921C8.38033 93.1737 8.40497 93.4902 8.4218 93.7063C8.4261 93.7615 8.42989 93.8102 8.43303 93.8495C8.43618 93.8889 8.43997 93.9376 8.44428 93.9928C8.4611 94.2089 8.48574 94.5254 8.51037 94.778C8.52532 94.9824 8.54668 95.2284 8.56412 95.4294C8.57376 95.5404 8.58221 95.6377 8.58771 95.7066C8.60318 95.9 8.63412 96.2791 8.65732 96.5577L8.812 98.4147C8.82949 98.6247 8.84822 98.8465 8.86662 99.0643C8.91327 99.6168 8.95777 100.144 8.97441 100.388C8.9911 100.633 9.01578 100.926 9.03408 101.143C9.04123 101.227 9.0474 101.301 9.05175 101.355C9.0677 101.488 9.09463 101.808 9.12498 102.168C9.13877 102.332 9.15326 102.504 9.16776 102.67C9.20643 103.204 9.26056 103.847 9.28377 104.102C9.29513 104.227 9.32507 104.601 9.36538 105.105C9.40735 105.629 9.46056 106.294 9.51578 106.965C9.62406 108.28 9.7246 109.557 9.74007 109.789C9.76327 110.021 9.80194 110.478 9.82514 110.795C9.84412 111.054 9.87344 111.371 9.89195 111.571C9.89608 111.615 9.89966 111.654 9.90248 111.685C9.91605 111.834 9.98917 112.746 10.0748 113.814L10.1113 114.269C10.2737 116.381 10.2969 116.544 10.4439 116.606C10.5289 116.637 12.2691 117.14 14.3108 117.712C15.3791 118.012 16.6359 118.367 17.7775 118.689C18.8178 118.982 19.7625 119.249 20.3819 119.422C20.6802 119.506 20.9687 119.586 21.237 119.661C22.1372 119.913 22.8091 120.101 22.8568 120.119C22.9187 120.134 23.9782 120.428 25.2156 120.776C25.8425 120.954 26.8151 121.226 27.869 121.521C28.8825 121.804 29.9712 122.109 30.9001 122.37C32.7949 122.904 35.5095 123.67 36.9325 124.073C38.3556 124.475 40.3432 125.032 41.3409 125.311C42.3385 125.589 44.7438 126.262 46.6773 126.812C48.6108 127.353 51.4646 128.158 53.0191 128.599C54.5736 129.032 56.3137 129.528 56.886 129.698C57.4584 129.86 58.0152 130 58.1235 130C58.2317 130.007 58.719 129.884 59.2062 129.729C59.6935 129.582 61.3872 129.087 62.9572 128.63C64.5272 128.181 67.0562 127.446 68.5643 127.005C70.0724 126.564 72.524 125.852 74.0167 125.419C75.5016 124.993 78.2394 124.204 80.0878 123.67C81.9362 123.136 84.2022 122.479 85.1149 122.208C86.0275 121.937 88.1852 121.31 89.9099 120.815C91.238 120.434 93.2955 119.837 95.0367 119.331C95.5565 119.181 96.0481 119.038 96.4837 118.912C98.0287 118.47 100.026 117.89 101.39 117.493C101.699 117.403 101.975 117.323 102.207 117.256C103.46 116.892 104.504 116.575 104.527 116.552C104.55 116.528 104.713 114.795 104.89 112.706C105.068 110.609 105.355 107.298 105.525 105.34C105.703 103.382 106.12 98.523 106.46 94.5459C106.801 90.5688 107.149 86.5297 107.234 85.5703C107.261 85.2606 107.303 84.7841 107.354 84.2078C107.46 82.9987 107.606 81.3504 107.737 79.8831C107.826 78.8337 107.947 77.443 108.07 76.0311C108.2 74.5281 108.333 73.001 108.433 71.836C108.516 70.8618 108.618 69.6646 108.721 68.459C108.856 66.8686 108.993 65.2638 109.09 64.1371C109.12 63.7867 109.15 63.4416 109.178 63.1096C109.311 61.5651 109.419 60.3046 109.438 60.1135C109.458 59.9174 109.521 59.1799 109.592 58.3631L109.592 58.358L109.631 57.9083L109.632 57.9056L109.633 57.8946C109.718 56.9074 109.887 54.9537 110.018 53.5366C110.046 53.2149 110.079 52.8331 110.115 52.4148C110.24 50.9818 110.401 49.1196 110.521 47.772C110.582 47.0499 110.669 46.031 110.766 44.9079C110.902 43.3232 111.056 41.5312 111.178 40.0731C111.395 37.5816 111.689 34.1384 111.836 32.4129C111.986 30.7317 112.203 28.2647 112.329 26.8365L112.338 26.7257C112.358 26.5075 112.379 26.2602 112.403 25.9914C112.532 24.5353 112.717 22.4505 112.841 20.9612C112.988 19.197 113.181 16.9686 113.266 16.0091C113.306 15.5215 113.363 14.86 113.421 14.1902C113.477 13.5421 113.534 12.8862 113.576 12.3724C113.661 11.3279 113.8 9.71071 113.885 8.77446C113.97 7.8382 114.148 5.83416 114.272 4.32533C114.387 3.00184 114.508 1.6724 114.557 1.13598L114.573 0.959464C114.612 0.619009 114.627 0.317242 114.612 0.286292C114.597 0.247604 114.078 0.224391 113.46 0.224391C112.632 0.224391 112.331 0.247604 112.307 0.32498C112.276 0.402356 112.269 0.402356 112.269 0.32498C112.261 0.255341 112.098 0.224391 111.72 0.224391C111.341 0.224391 111.178 0.255341 111.178 0.32498C111.178 0.386881 111.152 0.379143 111.101 0.301767C111.031 0.201178 111.023 0.201178 111.023 0.301767C111.023 0.402356 111.016 0.402356 110.954 0.301767C110.892 0.201178 110.884 0.201178 110.846 0.301767C110.822 0.371405 110.799 0.379143 110.799 0.32498C110.791 0.247604 109.469 0.224391 104.45 0.224391C99.4303 0.224391 98.1078 0.247604 98.1078 0.32498C98.1078 0.386881 98.0821 0.379143 98.0305 0.301767C97.9609 0.201178 97.9532 0.201178 97.9532 0.301767C97.9532 0.402356 97.9454 0.402356 97.8758 0.301767C97.8062 0.201178 97.7985 0.201178 97.7985 0.301767C97.7985 0.402356 97.7907 0.402356 97.7211 0.301767C97.6515 0.201178 97.6438 0.201178 97.6438 0.301767C97.6438 0.402356 97.6361 0.402356 97.5665 0.301767C97.5046 0.201178 95.3623 0.185703 79.1597 0.170228C64.5349 0.154752 60.8303 0.170228 60.8303 0.247604C60.8303 0.317242 60.8149 0.317242 60.7685 0.247604C60.7298 0.170228 60.0183 0.139277 57.7136 0.131539C55.115 0.108327 54.7051 0.123802 54.6509 0.224391C54.5891 0.32498 54.5813 0.32498 54.5504 0.224391C54.5195 0.131539 54.3416 0.108327 53.5682 0.108327C52.818 0.108327 52.6092 0.131539 52.555 0.224391C52.4854 0.32498 52.4777 0.32498 52.4777 0.224391C52.4777 0.154752 52.4545 0.139277 52.4158 0.185703C52.3849 0.232128 52.2998 0.270817 52.2225 0.286292C52.1529 0.294029 52.0988 0.255341 52.1065 0.208916C52.122 0.131539 48.9665 0.100589 36.5458 0.0851138C24.0092 0.0696385 20.9543 0.0851137 20.9078 0.16249C20.8614 0.239866 20.846 0.232128 20.846 0.147015C20.846 0.0464257 20.8382 0.0464257 20.7686 0.147015C20.699 0.247604 20.6913 0.247604 20.6913 0.147015C20.6913 0.0464257 20.6836 0.0464257 20.614 0.147015C20.5444 0.247604 20.5366 0.247604 20.5366 0.147015C20.5366 0.0464257 20.5289 0.0464257 20.4593 0.147015C20.4077 0.224391 20.3819 0.232128 20.3819 0.170228C20.3819 0.108327 20.2737 0.0696385 20.1113 0.0696385C19.9566 0.0696385 19.856 0.100589 19.8792 0.147015C19.9024 0.19344 19.7632 0.216653 19.508 0.208916C19.2915 0.201178 19.0826 0.154752 19.0517 0.108327C19.013 0.0619009 18.9898 0.0773761 18.9898 0.147015C18.9898 0.247604 18.9821 0.247604 18.9125 0.147015C18.8661 0.0696385 18.7424 0.0386881 18.549 0.0541633C18.3866 0.0619009 18.2319 0.116064 18.201 0.170228C18.1546 0.239866 18.1391 0.232128 18.1391 0.147015C18.1391 0.0464257 18.1314 0.0464257 18.0695 0.147015C18.0154 0.239866 17.9922 0.239866 17.9767 0.16249C17.9535 0.0773761 16.4531 0.0464257 9.39204 0.0154752C3.16624 -0.0154752 0.822858 0 0.791922 0.0619009ZM62.3772 75.7048V49.807V23.9015H79.5465C88.9896 23.9015 96.7158 23.9247 96.7158 23.9634C96.7158 23.9944 96.6462 24.4199 96.5611 24.9074C96.5276 25.1187 96.4912 25.3401 96.4588 25.5371L96.4584 25.5393C96.4162 25.7958 96.3809 26.0106 96.3678 26.1067C96.3564 26.1691 96.29 26.5662 96.1385 27.4725L96.1382 27.4742C95.8762 29.0411 95.3599 32.1283 94.4343 37.6358L75.5248 37.6745V48.894C75.5248 57.8155 75.548 60.1135 75.6254 60.1135H85.0608C92.4699 60.1135 94.3956 60.1368 94.4033 60.2141C94.4075 60.2393 94.4094 60.2848 94.4116 60.3348C94.4133 60.3771 94.4153 60.4227 94.4188 60.4617C94.4188 60.5469 94.3956 61.0885 94.3647 61.6611C94.3341 62.2264 94.2961 62.9123 94.2802 63.1978L94.2796 63.2086L94.2699 63.3811L94.2698 63.3824C94.2514 63.7086 94.2215 64.2362 94.2023 64.6787C94.1867 65.0379 94.164 65.4706 94.1462 65.8119C94.1375 65.978 94.13 66.1224 94.1249 66.2263C94.1199 66.3283 94.1126 66.4695 94.1041 66.6319L94.1037 66.6395C94.0858 66.981 94.0632 67.4142 94.0476 67.7738C94.032 68.1329 94.0094 68.5656 93.9915 68.9069C93.9828 69.073 93.9753 69.2175 93.9702 69.3213C93.9664 69.4007 93.9611 69.5037 93.9549 69.622L93.949 69.7345C93.9312 70.076 93.9085 70.5093 93.8929 70.8688C93.8737 71.3112 93.8438 71.8387 93.8254 72.1649L93.8156 72.339C93.7924 72.6175 93.7614 73.3139 93.7382 73.8865C93.715 74.4591 93.6841 75.1942 93.6609 75.5114C93.6543 75.6457 93.6436 75.8424 93.6317 76.0615L93.6317 76.0626C93.6154 76.3609 93.5969 76.7008 93.5835 76.9815C93.5702 77.2619 93.5517 77.6012 93.5355 77.8992L93.5354 77.9008C93.5235 78.1202 93.5128 78.3172 93.5062 78.4517C93.5012 78.5537 93.4939 78.695 93.4854 78.8575L93.485 78.865C93.4671 79.2065 93.4445 79.6397 93.4289 79.9992L93.4235 80.1227C93.4011 80.6405 93.373 81.2878 93.3515 81.6241C93.3348 81.8858 93.3141 82.2997 93.2952 82.6785L93.2952 82.679L93.2951 82.6799C93.2878 82.827 93.2807 82.9688 93.2742 83.0943C93.2677 83.22 93.2606 83.3621 93.2532 83.5095L93.2532 83.51C93.2343 83.8888 93.2135 84.3027 93.1969 84.5644C93.1785 84.8528 93.1552 85.3504 93.1348 85.7871L93.1347 85.7887L93.1195 86.1119L93.1043 86.4351C93.0839 86.8723 93.0606 87.3707 93.0422 87.6595C93.0335 87.8639 93.0174 88.1734 93.001 88.4919C92.996 88.5874 92.991 88.6837 92.9862 88.7782C92.9785 88.9292 92.9711 89.0757 92.9648 89.207C92.9547 89.4203 92.9416 89.6737 92.9287 89.9216L92.9287 89.9228C92.9122 90.241 92.8962 90.5502 92.8875 90.7545C92.8767 91.009 92.8545 91.3998 92.8342 91.7574C92.8255 91.9109 92.8171 92.0582 92.8102 92.186C92.7987 92.5001 92.7747 92.9913 92.7535 93.4231C92.7495 93.5043 92.7457 93.5835 92.742 93.659C92.7388 93.7258 92.7357 93.7896 92.7328 93.8495L92.7176 94.1728L92.7176 94.1743C92.6971 94.6111 92.6739 95.1087 92.6555 95.3971C92.6402 95.6359 92.6217 95.995 92.6041 96.3339L92.604 96.3355C92.5949 96.512 92.5861 96.6829 92.5781 96.8285C92.5636 97.096 92.5459 97.4919 92.5291 97.8701L92.5287 97.8794C92.5188 98.0997 92.5093 98.3135 92.5008 98.4921L92.4954 98.6049C92.473 99.0777 92.4449 99.6689 92.4235 99.9623L92.4097 100.239C92.3911 100.608 92.364 101.146 92.3461 101.587C92.3229 102.16 92.2842 102.825 92.2688 103.057C92.2533 103.289 92.2146 103.955 92.1837 104.527C92.1605 105.1 92.1141 105.595 92.0909 105.618C92.06 105.649 91.3407 105.835 90.49 106.036C89.9689 106.155 89.4013 106.288 88.9615 106.391C88.6834 106.456 88.4563 106.509 88.3245 106.539C88.0148 106.61 87.1929 106.802 86.4239 106.982L86.4138 106.984L86.1977 107.034C85.3701 107.228 82.7406 107.839 80.3585 108.389C79.3883 108.612 78.2731 108.871 77.1844 109.123L77.1829 109.123C75.599 109.49 74.0713 109.844 73.1273 110.06C71.9005 110.346 70.5866 110.65 69.8035 110.832L69.7875 110.835L69.2604 110.957L68.6732 111.094C68.0735 111.233 67.2649 111.421 66.5922 111.576C66.0932 111.692 65.4932 111.829 64.9455 111.955C64.466 112.065 64.0267 112.165 63.7306 112.234C63.0887 112.381 62.5241 112.513 62.47 112.536C62.4004 112.567 62.3772 111.112 62.3772 98.26L62.7407 98.1362C62.9495 98.0743 63.8079 97.7803 64.6587 97.4862C65.5094 97.1999 67.497 96.519 69.067 95.9774C69.7647 95.7367 70.6273 95.441 71.4899 95.1453L71.4904 95.1451C72.5688 94.7755 73.6472 94.4058 74.4034 94.1436C75.1806 93.8785 76.2679 93.505 77.3313 93.1396L77.3385 93.1372C78.1351 92.8635 78.9179 92.5945 79.5465 92.3794C81.0159 91.8764 82.2688 91.4431 82.3307 91.4199C82.4235 91.3812 82.4622 91.1259 82.5163 90.1897C82.5472 89.5474 82.5936 88.9594 82.6014 88.8975C82.6169 88.8356 82.6478 88.2785 82.6787 87.6595C82.7097 87.0404 82.7483 86.4833 82.7561 86.4214C82.7638 86.3595 82.8025 85.8024 82.8334 85.1834C82.8566 84.5644 82.8953 83.9763 82.9107 83.868C82.9262 83.7597 82.9571 83.2026 82.9881 82.63C83.019 82.0574 83.0499 81.5003 83.0654 81.392C83.0809 81.2837 83.1118 80.7498 83.1428 80.1927C83.166 79.6355 83.2046 79.063 83.2201 78.916C83.2356 78.7689 83.2742 78.1964 83.2974 77.6392L83.3063 77.479L83.3064 77.4782C83.3342 76.9758 83.3608 76.4954 83.3748 76.3625C83.3902 76.2155 83.4289 75.6584 83.4521 75.1245C83.483 74.5906 83.5294 73.8323 83.5604 73.4377C83.5836 73.0354 83.5836 72.6949 83.5449 72.6794C83.514 72.664 83.3284 72.664 83.1273 72.6872C82.9185 72.7104 82.3926 72.78 81.944 72.8497C81.6194 72.8945 81.2948 72.9433 81.0991 72.9727C81.0244 72.984 80.9685 72.9924 80.9386 72.9967C80.8899 73.0036 80.8194 73.0153 80.7417 73.0281C80.6466 73.0438 80.5408 73.0613 80.4513 73.0741C80.2967 73.0973 80.0492 73.1282 79.9177 73.1437C79.8076 73.1621 79.2425 73.2434 78.5595 73.3416L77.9997 73.4222L77.4354 73.5037L77.4228 73.5055C76.7527 73.6023 76.2079 73.6809 76.1049 73.6931C75.9734 73.7163 74.8984 73.871 73.7074 74.0413C72.5163 74.2115 70.9696 74.4359 70.2658 74.5442C69.8594 74.6023 69.4504 74.6629 69.1446 74.7083L69.1433 74.7085L69.1412 74.7088C68.9191 74.7418 68.7519 74.7666 68.6803 74.7763L68.5757 74.7905C68.4219 74.8112 68.2451 74.835 68.1389 74.8537C68.058 74.868 67.942 74.8852 67.8304 74.9017L67.8293 74.9019C67.76 74.9122 67.6924 74.9222 67.6362 74.9311C67.545 74.9407 67.0871 75.007 66.4679 75.0966L66.4504 75.0991C66.0763 75.1533 65.6446 75.2157 65.2001 75.2793C64.8646 75.3294 64.5347 75.3783 64.2225 75.4246C63.4259 75.5426 62.7439 75.6437 62.3772 75.7048ZM40.7067 59.7808C40.6989 40.1041 40.7221 23.9866 40.7453 23.9634C40.7763 23.9402 43.5605 23.9247 53.0732 23.9247L53.081 68.2148C53.0964 110.354 53.0887 112.497 52.9649 112.458C52.8876 112.443 52.0446 112.219 51.0856 111.963C50.1266 111.716 47.9224 111.143 46.1746 110.687C44.4344 110.238 42.5551 109.75 41.9982 109.603C41.7153 109.529 41.2006 109.394 40.6004 109.237L40.5963 109.236C40.0164 109.084 39.3572 108.912 38.75 108.752C37.5126 108.435 35.8266 108.002 34.999 107.785C34.5645 107.671 34.0853 107.545 33.672 107.436C33.2983 107.337 32.9785 107.252 32.7949 107.205C32.4082 107.096 30.4128 106.578 28.3479 106.044C26.2829 105.51 23.4832 104.783 19.6472 103.785L19.6085 82.2431L19.8251 82.2818C19.9411 82.305 20.4825 82.3901 21.0393 82.4752C21.3754 82.5266 22.0271 82.6287 22.7528 82.7424C23.2295 82.8171 23.7381 82.8968 24.2102 82.9704C24.7559 83.0591 25.3958 83.1623 26.0063 83.2608C26.7284 83.3773 27.4094 83.4872 27.8452 83.5585C28.2215 83.6195 28.5828 83.6787 28.873 83.7264C29.2091 83.7815 29.4499 83.821 29.508 83.8293C29.5916 83.8472 29.8226 83.879 30.0767 83.9139L30.0773 83.914C30.1521 83.9243 30.2289 83.9348 30.3046 83.9454C30.6294 83.9841 30.9233 84.015 30.9619 84.0073C30.9929 83.9918 31.0315 86.1738 31.0934 93.7257L31.4028 93.7876C31.5729 93.8186 32.7253 94.0352 33.955 94.2674C34.4089 94.3525 34.8431 94.4345 35.2163 94.5051C35.8603 94.6267 36.3226 94.7141 36.3912 94.7239C36.4393 94.7342 36.5959 94.7644 36.817 94.807L36.8188 94.8073L36.8208 94.8077C37.0965 94.8609 37.4715 94.9332 37.8606 95.0102C38.5644 95.1417 39.4847 95.3197 39.9101 95.4048C40.1168 95.4424 40.3071 95.4782 40.4499 95.505C40.6009 95.5334 40.6987 95.5518 40.7067 95.5518C40.7144 95.5518 40.7144 79.4576 40.7067 59.7808Z" fill="url(#paint0_linear_199_1689)"/>
<path fill-rule="evenodd" clip-rule="evenodd" d="M58.1234 64.9108C58.1234 100.713 58.1466 118.687 58.2008 118.687C58.2394 118.687 58.8272 118.525 59.5001 118.331C60.1652 118.138 60.7684 117.968 60.8303 117.96C60.8922 117.944 61.1396 117.875 61.3717 117.797C61.432 117.779 61.4966 117.76 61.5614 117.74C61.7456 117.684 61.9318 117.627 62.029 117.604C62.062 117.594 62.1394 117.572 62.2507 117.54C62.5832 117.443 63.219 117.259 63.8852 117.062C64.7746 116.799 65.5944 116.575 65.7027 116.552C65.8109 116.528 66.012 116.459 66.1512 116.397C66.2827 116.335 66.3987 116.304 66.3987 116.327C66.3987 116.35 66.4915 116.327 66.6153 116.281C66.7313 116.234 66.8782 116.188 66.9401 116.173C67.002 116.157 68.1543 115.824 69.4923 115.437C70.8302 115.051 71.9826 114.718 72.0445 114.702C72.1063 114.687 72.1605 114.671 72.1605 114.664C72.1605 114.656 72.2146 114.64 72.2765 114.625C72.3384 114.61 73.367 114.315 74.558 113.967C75.749 113.619 76.8395 113.302 76.9787 113.263C77.1102 113.224 77.3577 113.155 77.5124 113.116C77.5539 113.104 77.597 113.092 77.6392 113.08C77.7617 113.045 77.8762 113.012 77.9223 113C77.9841 112.985 78.0383 112.969 78.0383 112.961C78.0383 112.954 78.0924 112.938 78.1543 112.923C78.2161 112.907 78.8813 112.714 79.6237 112.497C79.8282 112.437 80.0321 112.378 80.2233 112.322C80.7263 112.175 81.1414 112.053 81.2478 112.025C81.3293 112.004 81.4203 111.978 81.4958 111.956C81.5564 111.938 81.607 111.924 81.6345 111.917C81.6964 111.901 81.7505 111.886 81.7505 111.878C81.7505 111.87 81.8047 111.855 81.8666 111.839C81.8941 111.833 81.9447 111.818 82.0053 111.801C82.0808 111.779 82.1718 111.753 82.2532 111.731C82.4002 111.692 83.2509 111.445 84.1481 111.182C84.7048 111.023 85.2228 110.874 85.5561 110.778C85.7599 110.719 85.8946 110.68 85.9269 110.671C86.0042 110.657 86.2733 110.579 86.5424 110.501L86.5425 110.501L86.6229 110.478C86.7196 110.447 86.8338 110.412 86.9526 110.375C87.1952 110.299 87.457 110.218 87.6283 110.16C87.8835 110.083 88.162 110.006 88.247 109.982C88.3321 109.967 89.1287 109.743 90.0258 109.479C90.923 109.216 91.7041 108.992 91.766 108.977C91.8278 108.961 91.882 108.946 91.882 108.938C91.882 108.93 91.9361 108.915 91.998 108.899C92.021 108.893 92.1806 108.848 92.4345 108.775C92.8618 108.653 93.5565 108.455 94.3182 108.241C95.5324 107.893 96.5455 107.584 96.5765 107.553C96.6074 107.53 96.6538 107.259 96.677 106.965C96.6937 106.753 96.7184 106.494 96.7367 106.301C96.7438 106.226 96.75 106.161 96.7543 106.114L96.7579 106.074L96.7579 106.074C96.7752 105.885 96.8101 105.502 96.8317 105.185C96.8461 105.026 96.8606 104.854 96.8734 104.7C96.8881 104.525 96.9008 104.374 96.909 104.295C96.9245 104.148 96.9632 103.746 96.9864 103.405C97.0008 103.246 97.0153 103.074 97.0281 102.92C97.0428 102.745 97.0555 102.594 97.0637 102.516C97.0792 102.369 97.1178 101.982 97.141 101.664C97.1573 101.498 97.1735 101.312 97.1875 101.152C97.2002 101.007 97.211 100.883 97.2184 100.813C97.2275 100.727 97.242 100.546 97.2587 100.337C97.2703 100.192 97.283 100.034 97.2957 99.8848C97.3084 99.7356 97.3211 99.5773 97.3327 99.4323C97.3494 99.2239 97.3639 99.043 97.3731 98.9563C97.3885 98.8093 97.4272 98.407 97.4504 98.0665C97.4649 97.9075 97.4793 97.735 97.4922 97.5813C97.5069 97.4059 97.5195 97.255 97.5277 97.1767C97.536 97.0983 97.5486 96.9474 97.5633 96.772C97.5762 96.6184 97.5906 96.4459 97.6051 96.2869C97.6195 96.1279 97.634 95.9554 97.6468 95.8017C97.6615 95.6263 97.6742 95.4754 97.6824 95.397C97.6915 95.3103 97.706 95.1295 97.7227 94.9211C97.7344 94.7761 97.7471 94.6178 97.7598 94.4685C97.783 94.1049 97.8216 93.7257 97.8371 93.6174C97.8526 93.5091 97.8912 93.1299 97.9144 92.7662C97.9271 92.617 97.9398 92.4587 97.9515 92.3137C97.9682 92.1053 97.9827 91.9244 97.9918 91.8377C98.0009 91.751 98.0154 91.5702 98.0321 91.3618C98.0437 91.2168 98.0564 91.0584 98.0691 90.9092C98.0923 90.5455 98.131 90.1664 98.1465 90.0581C98.1619 89.9498 98.2006 89.5706 98.2238 89.2069C98.2329 89.0999 98.242 88.9868 98.2509 88.8762C98.2723 88.611 98.2925 88.3599 98.3089 88.2397C98.3243 88.0695 98.3553 87.6826 98.3785 87.3886L98.3844 87.3133C98.4068 87.0292 98.4345 86.6762 98.4558 86.4988C98.4773 86.3199 98.5053 85.9823 98.5278 85.7123L98.5278 85.7119L98.5331 85.6476C98.5564 85.3691 98.595 84.9358 98.6182 84.6804C98.6414 84.4251 98.6724 84.0614 98.6878 83.868C98.691 83.8282 98.6952 83.7777 98.7 83.7193C98.7185 83.4937 98.7467 83.151 98.7652 82.8621C98.7698 82.8075 98.7745 82.7526 98.779 82.6983C98.805 82.3907 98.8294 82.103 98.8425 82.011C98.858 81.9026 98.8966 81.5235 98.9198 81.1598C98.9325 81.0106 98.9452 80.8522 98.9569 80.7072C98.9736 80.4988 98.9881 80.318 98.9972 80.2313C99.0127 80.0843 99.0513 79.6974 99.0745 79.3802C99.0908 79.2136 99.107 79.0277 99.121 78.8675C99.1337 78.7227 99.1445 78.5988 99.1519 78.529C99.161 78.4423 99.1755 78.2613 99.1922 78.0528C99.2038 77.9079 99.2165 77.7496 99.2292 77.6005C99.2419 77.4513 99.2546 77.2929 99.2662 77.1479C99.2829 76.9395 99.2974 76.7587 99.3065 76.672C99.322 76.525 99.3607 76.1072 99.3839 75.7435C99.4071 75.3798 99.4458 75.0007 99.4612 74.8924C99.4767 74.784 99.5154 74.4049 99.5386 74.0412C99.5477 73.9342 99.5568 73.8211 99.5657 73.7105C99.587 73.4453 99.6073 73.1941 99.6236 73.074C99.6391 72.9038 99.67 72.5169 99.6932 72.2229C99.7063 72.0569 99.7244 71.8563 99.7404 71.6783C99.7527 71.5411 99.7638 71.4173 99.7706 71.3331C99.7781 71.2388 99.7912 71.1004 99.8053 70.951C99.8201 70.7939 99.836 70.6247 99.8479 70.4819C99.8789 70.2034 99.9098 69.8242 99.9253 69.6308C99.9296 69.5765 99.9358 69.5033 99.9429 69.4185C99.9612 69.2014 99.9859 68.9085 100.003 68.6636C100.017 68.5046 100.031 68.3321 100.044 68.1784C100.059 68.003 100.072 67.8521 100.08 67.7738C100.088 67.6954 100.101 67.5444 100.116 67.3689C100.128 67.2153 100.143 67.0429 100.157 66.8839C100.18 66.5435 100.219 66.1411 100.235 65.9941C100.258 65.8471 100.289 65.4602 100.312 65.143C100.335 64.8257 100.366 64.4079 100.389 64.2144C100.411 64.0357 100.439 63.6982 100.461 63.4282L100.461 63.4279L100.467 63.3633C100.498 63.0848 100.529 62.7056 100.544 62.5122C100.547 62.4724 100.551 62.4219 100.556 62.3636C100.575 62.1379 100.603 61.7952 100.621 61.5063C100.626 61.4518 100.631 61.3969 100.635 61.3427C100.661 61.035 100.686 60.7472 100.699 60.6551C100.714 60.5468 100.753 60.1677 100.776 59.804C100.785 59.697 100.794 59.5839 100.803 59.4732C100.824 59.208 100.845 58.9569 100.861 58.8368C100.877 58.6666 100.907 58.2797 100.931 57.9857C100.944 57.8198 100.962 57.6194 100.978 57.4415C100.99 57.3041 101.001 57.1801 101.008 57.0958C101.016 57.0016 101.029 56.8631 101.043 56.7138C101.057 56.5567 101.073 56.3875 101.085 56.2447C101.109 55.9662 101.147 55.5328 101.17 55.2775C101.194 55.0222 101.225 54.6585 101.24 54.4651C101.244 54.4108 101.251 54.3376 101.258 54.2528C101.276 54.0357 101.301 53.7427 101.317 53.4979C101.332 53.3388 101.346 53.1663 101.359 53.0125C101.374 52.8372 101.386 52.6864 101.395 52.608C101.41 52.461 101.449 52.0587 101.472 51.7182C101.486 51.5592 101.501 51.3866 101.514 51.2329C101.529 51.0576 101.541 50.9067 101.549 50.8284C101.559 50.7416 101.573 50.5606 101.59 50.3521C101.601 50.2072 101.614 50.049 101.627 49.8999C101.65 49.5362 101.689 49.1571 101.704 49.0487C101.72 48.9404 101.758 48.5458 101.781 48.1589L101.789 48.0698L101.789 48.0694C101.817 47.7129 101.844 47.369 101.859 47.2691C101.874 47.1607 101.913 46.7816 101.936 46.4179C101.949 46.2688 101.961 46.1106 101.973 45.9657C101.99 45.7571 102.004 45.5762 102.013 45.4894C102.023 45.4027 102.037 45.2219 102.054 45.0135C102.065 44.8685 102.078 44.7102 102.091 44.5609C102.114 44.1972 102.153 43.8181 102.168 43.7098C102.184 43.6014 102.222 43.2223 102.245 42.8586C102.255 42.7502 102.264 42.6383 102.273 42.5314C102.293 42.2798 102.312 42.0557 102.323 41.9688C102.331 41.845 102.361 41.4426 102.392 41.079C102.423 40.7153 102.462 40.2975 102.477 40.1505C102.493 40.0035 102.532 39.6166 102.555 39.2993C102.57 39.095 102.591 38.8489 102.609 38.6479C102.618 38.5369 102.627 38.4397 102.632 38.3708C102.64 38.2765 102.653 38.1379 102.667 37.9885C102.682 37.8315 102.698 37.6624 102.709 37.5197C102.717 37.4301 102.725 37.326 102.734 37.2184C102.752 36.9915 102.771 36.7486 102.787 36.5912L102.787 36.5911C102.81 36.3589 102.849 35.9721 102.864 35.74C102.877 35.61 102.893 35.4289 102.908 35.2513C102.92 35.1119 102.931 34.9746 102.941 34.8657C102.956 34.7176 102.973 34.5017 102.99 34.2944C103 34.166 103.01 34.0408 103.019 33.9372C103.03 33.8131 103.042 33.6529 103.055 33.4914C103.069 33.3105 103.084 33.1281 103.096 32.9932C103.106 32.884 103.119 32.755 103.131 32.628C103.148 32.458 103.165 32.2915 103.174 32.1807C103.192 32.0273 103.215 31.7666 103.236 31.538C103.241 31.4784 103.246 31.421 103.251 31.3683C103.261 31.203 103.281 30.9468 103.3 30.7007C103.31 30.5666 103.32 30.4356 103.328 30.3237C103.351 30.0065 103.39 29.6196 103.406 29.4726C103.429 29.3255 103.46 28.9387 103.483 28.6214C103.498 28.4171 103.519 28.171 103.537 27.97C103.546 27.859 103.555 27.7617 103.56 27.6929C103.566 27.6241 103.574 27.5268 103.584 27.4158C103.601 27.2148 103.623 26.9687 103.638 26.7644C103.654 26.5978 103.67 26.4121 103.684 26.2519C103.697 26.107 103.708 25.9831 103.715 25.9133C103.724 25.8266 103.738 25.6457 103.755 25.4373C103.767 25.2923 103.78 25.134 103.792 24.9847C103.823 24.6211 103.862 24.2187 103.877 24.0949C103.885 23.9711 103.916 23.5997 103.947 23.2825C103.962 23.0781 103.983 22.832 104.001 22.6311C104.01 22.52 104.019 22.4228 104.024 22.354C104.031 22.2753 104.041 22.1711 104.051 22.0595C104.067 21.8966 104.085 21.718 104.094 21.5802C104.117 21.3481 104.156 20.9148 104.179 20.613C104.202 20.3112 104.233 19.9321 104.249 19.7619C104.266 19.6356 104.287 19.3561 104.31 19.0623C104.318 18.96 104.326 18.8559 104.334 18.756C104.357 18.3691 104.395 17.9745 104.411 17.8661C104.424 17.7741 104.448 17.4864 104.474 17.1789C104.479 17.1245 104.484 17.0696 104.488 17.015C104.511 16.6513 104.55 16.2335 104.566 16.0865C104.581 15.9395 104.62 15.5526 104.643 15.2354C104.658 15.031 104.679 14.7849 104.697 14.5839C104.706 14.4729 104.715 14.3757 104.72 14.3068C104.742 14.1279 104.77 13.7901 104.792 13.52L104.798 13.4557C104.805 13.3661 104.813 13.262 104.822 13.1544C104.84 12.9275 104.859 12.6846 104.875 12.5272C104.886 12.4181 104.898 12.2766 104.911 12.134C104.926 11.973 104.94 11.8105 104.952 11.6915L104.991 11.2892C97.2261 11.2814 92.1604 11.266 88.7111 11.2505C85.2617 11.235 76.971 11.2041 70.2811 11.1808L58.1234 11.1344V64.9108ZM62.3771 75.7048V49.807V23.9015H79.5464C88.9895 23.9015 96.7157 23.9247 96.7157 23.9634C96.7157 23.9944 96.6461 24.4199 96.5611 24.9074C96.5275 25.1187 96.4911 25.3402 96.4587 25.5371L96.4583 25.5393C96.4161 25.7958 96.3808 26.0106 96.3677 26.1067C96.3564 26.1691 96.29 26.5662 96.1384 27.4725L96.138 27.4751C95.8759 29.0423 95.3597 32.1294 94.4342 37.6358L75.5248 37.6745V48.894C75.5248 57.8155 75.548 60.1135 75.6253 60.1135H85.0607C92.4698 60.1135 94.3956 60.1368 94.4033 60.2141C94.4075 60.2392 94.4094 60.2847 94.4115 60.3346L94.4115 60.3348C94.4133 60.3771 94.4152 60.4227 94.4187 60.4617C94.4187 60.5469 94.3956 61.0885 94.3646 61.6611C94.3341 62.2264 94.296 62.9123 94.2801 63.1978L94.2795 63.2086L94.2698 63.3811L94.2698 63.3824C94.2513 63.7086 94.2214 64.2362 94.2022 64.6787C94.1866 65.0379 94.164 65.4706 94.1461 65.8119C94.1375 65.978 94.1299 66.1224 94.1249 66.2263C94.1199 66.3284 94.1125 66.4698 94.104 66.6325L94.1036 66.6395C94.0858 66.981 94.0631 67.4142 94.0475 67.7738C94.0319 68.1329 94.0093 68.5656 93.9915 68.9069C93.9828 69.073 93.9752 69.2175 93.9702 69.3213C93.9651 69.4249 93.9576 69.5689 93.949 69.7345C93.9311 70.076 93.9085 70.5093 93.8928 70.8688C93.8736 71.3112 93.8438 71.8386 93.8253 72.1649L93.8155 72.339C93.7923 72.6175 93.7614 73.3139 93.7382 73.8865C93.715 74.4591 93.684 75.1942 93.6608 75.5114C93.6543 75.6457 93.6436 75.8424 93.6316 76.0615L93.6316 76.0628C93.6153 76.361 93.5969 76.7008 93.5835 76.9815C93.5701 77.262 93.5517 77.6014 93.5354 77.8994L93.5354 77.9008C93.5234 78.1202 93.5127 78.3172 93.5061 78.4517C93.5012 78.5537 93.4938 78.695 93.4853 78.8575L93.4849 78.865C93.4671 79.2065 93.4444 79.6397 93.4288 79.9992L93.4234 80.1227C93.401 80.6405 93.3729 81.2878 93.3515 81.6241C93.3348 81.8858 93.3141 82.2999 93.2951 82.6787L93.2951 82.679L93.2951 82.6799C93.2877 82.827 93.2806 82.9688 93.2741 83.0943C93.2676 83.22 93.2605 83.3621 93.2532 83.5095L93.2531 83.5099C93.2342 83.8887 93.2135 84.3027 93.1968 84.5644C93.1784 84.8528 93.1551 85.3504 93.1347 85.7871L93.1347 85.7887L93.1195 86.1119L93.1043 86.4351C93.0838 86.8723 93.0605 87.3707 93.0421 87.6595C93.0334 87.8639 93.0174 88.1734 93.0009 88.4919C92.9881 88.74 92.9749 88.9935 92.9648 89.207C92.9546 89.4203 92.9415 89.6737 92.9287 89.9216L92.9286 89.9228C92.9121 90.241 92.8961 90.5502 92.8874 90.7545C92.8766 91.009 92.8544 91.3998 92.8341 91.7574C92.8254 91.9109 92.8171 92.0582 92.8101 92.186C92.7987 92.4999 92.7747 92.9906 92.7535 93.4221L92.7535 93.4231C92.746 93.5762 92.7388 93.7219 92.7328 93.8495L92.7176 94.1728L92.7175 94.1743C92.6971 94.6111 92.6738 95.1087 92.6554 95.3971C92.6402 95.6359 92.6216 95.995 92.6041 96.3339L92.604 96.3355L92.6037 96.3403C92.5947 96.5151 92.5859 96.6842 92.5781 96.8285C92.5635 97.096 92.5459 97.4919 92.529 97.8701L92.5286 97.8794C92.5188 98.0997 92.5092 98.3135 92.5007 98.4921L92.4954 98.6049C92.4729 99.0777 92.4449 99.6689 92.4234 99.9623L92.4096 100.239L92.4096 100.239C92.391 100.608 92.3639 101.146 92.3461 101.587C92.3229 102.16 92.2842 102.825 92.2687 103.057C92.2533 103.289 92.2146 103.955 92.1836 104.527C92.1604 105.1 92.114 105.595 92.0908 105.618C92.0599 105.649 91.3407 105.835 90.4899 106.036C89.9688 106.155 89.4012 106.288 88.9615 106.391C88.6833 106.456 88.4563 106.509 88.3244 106.539C88.0148 106.61 87.1928 106.802 86.4238 106.982L86.4138 106.984L86.1976 107.034C85.3701 107.228 82.7405 107.839 80.3585 108.389C79.3899 108.612 78.2768 108.87 77.1898 109.122L77.1828 109.123C75.599 109.49 74.0712 109.844 73.1273 110.06C71.901 110.346 70.5877 110.65 69.8045 110.831L69.7874 110.835L69.2603 110.957L68.6731 111.094C68.0734 111.233 67.2648 111.421 66.5921 111.576C66.0932 111.692 65.4931 111.829 64.9454 111.955C64.4659 112.065 64.0266 112.165 63.7305 112.234C63.0886 112.381 62.5241 112.513 62.4699 112.536C62.4003 112.567 62.3771 111.112 62.3771 98.26L62.7406 98.1362C62.9494 98.0743 63.8079 97.7803 64.6586 97.4862C65.5094 97.1999 67.497 96.519 69.067 95.9774C69.7646 95.7367 70.6272 95.441 71.4899 95.1453C72.5685 94.7756 73.6471 94.4058 74.4034 94.1436C75.1821 93.878 76.2722 93.5034 77.3377 93.1374L77.3384 93.1372C78.135 92.8635 78.9178 92.5945 79.5464 92.3794C81.0159 91.8764 82.2688 91.4431 82.3306 91.4199C82.4234 91.3812 82.4621 91.1259 82.5162 90.1897C82.5472 89.5474 82.5936 88.9594 82.6013 88.8975C82.6168 88.8356 82.6477 88.2785 82.6787 87.6595C82.7096 87.0404 82.7483 86.4833 82.756 86.4214C82.7637 86.3595 82.8024 85.8024 82.8333 85.1834C82.8565 84.5644 82.8952 83.9763 82.9107 83.868C82.9261 83.7597 82.9571 83.2026 82.988 82.63C83.019 82.0574 83.0499 81.5003 83.0654 81.392C83.0808 81.2837 83.1118 80.7498 83.1427 80.1926C83.1659 79.6355 83.2046 79.063 83.22 78.9159C83.2355 78.7689 83.2742 78.1964 83.2974 77.6392L83.3063 77.479L83.3063 77.4782C83.3341 76.9758 83.3607 76.4954 83.3747 76.3625C83.3902 76.2155 83.4288 75.6584 83.452 75.1245C83.483 74.5906 83.5294 73.8323 83.5603 73.4377C83.5835 73.0354 83.5835 72.6949 83.5449 72.6794C83.5139 72.664 83.3283 72.664 83.1272 72.6872C82.9184 72.7104 82.3925 72.78 81.9439 72.8497C81.6193 72.8945 81.2947 72.9433 81.0991 72.9727L81.0961 72.9732C81.0229 72.9842 80.9681 72.9925 80.9385 72.9967C80.8899 73.0036 80.8193 73.0153 80.7417 73.0281C80.6465 73.0438 80.5407 73.0613 80.4513 73.0741C80.2966 73.0973 80.0491 73.1282 79.9176 73.1437C79.8077 73.162 79.2439 73.2432 78.5619 73.3413L78.5594 73.3416L77.9996 73.4222L77.4353 73.5037L77.4334 73.504C76.7584 73.6014 76.2084 73.6809 76.1048 73.6931C75.9733 73.7163 74.8983 73.871 73.7073 74.0413C72.5163 74.2115 70.9695 74.4359 70.2657 74.5442C69.8596 74.6022 69.4508 74.6629 69.1451 74.7082L69.1433 74.7085L69.143 74.7085C68.92 74.7416 68.752 74.7665 68.6803 74.7763L68.5756 74.7905C68.4219 74.8112 68.2451 74.835 68.1389 74.8537C68.0577 74.868 67.9411 74.8853 67.8292 74.9019C67.7599 74.9122 67.6924 74.9222 67.6362 74.9311C67.5449 74.9407 67.087 75.007 66.4678 75.0966L66.461 75.0976C66.0845 75.1521 65.6488 75.2151 65.2 75.2793C64.8646 75.3294 64.5347 75.3783 64.2224 75.4246C63.4258 75.5426 62.7438 75.6437 62.3771 75.7048Z" fill="#D57F78"/>
<defs>
<linearGradient id="paint0_linear_199_1689" x1="-7.49365" y1="145.444" x2="136.14" y2="22.1332" gradientUnits="userSpaceOnUse">
<stop offset="0.159082" stop-color="#3A1562"/>
<stop offset="1" stop-color="#D56B46"/>
</linearGradient>
</defs>
</svg>
