<svg width="135" height="130" viewBox="0 0 135 130" fill="none" xmlns="http://www.w3.org/2000/svg">
<path fill-rule="evenodd" clip-rule="evenodd" d="M9.08282 8.7868C0.296021 17.5736 0.296021 31.7157 0.296021 60V70C0.296021 98.2843 0.296021 112.426 9.08282 121.213C17.8696 130 32.0117 130 60.296 130H74.9723C103.257 130 117.399 130 126.185 121.213C134.972 112.426 134.972 98.2843 134.972 70V60C134.972 31.7157 134.972 17.5736 126.185 8.7868C117.399 0 103.257 0 74.9723 0H60.296C32.0117 0 17.8696 0 9.08282 8.7868ZM30.3902 46.4888C25.0085 51.8231 25.0084 60.4716 30.39 65.806C35.7717 71.1405 44.4973 71.1405 49.8791 65.8062L79.1123 36.8302C81.8032 34.1631 86.1658 34.1631 88.8567 36.8302L103.474 51.3181C106.164 53.9853 106.164 58.3096 103.474 60.9767C100.783 63.6438 96.4201 63.6438 93.7293 60.9767L88.6829 55.9749C86.0882 53.403 81.8813 53.403 79.2865 55.9749L73.0222 62.184C71.1778 64.0122 68.548 64.5873 66.2095 63.9093C64.3833 63.3799 62.1871 63.2651 60.8416 64.5987C59.4962 65.9323 59.4819 68.1422 61.1177 69.1055C66.4062 72.2201 73.345 71.5227 77.8944 67.0133L83.9847 60.9767L88.857 65.806C94.2387 71.1403 102.964 71.1403 108.346 65.806C113.728 60.4718 113.728 51.8231 108.346 46.4888L93.7288 32.0009C88.3471 26.6666 79.6218 26.6666 74.2401 32.0009L45.0068 60.9768C42.3159 63.644 37.9531 63.644 35.2623 60.9767C32.5715 58.3096 32.5716 53.9853 35.2624 51.3181L49.8792 36.8301C51.7236 35.0019 54.3534 34.4268 56.6919 35.1048C58.5182 35.6342 60.7143 35.749 62.0597 34.4154C63.4052 33.0818 63.4195 30.8719 61.7837 29.9086C56.4952 26.794 49.5564 27.4914 45.0069 32.0007L30.3902 46.4888ZM43.2785 83C40.7387 83 38.8151 83.9091 37.5452 85.7273C36.4296 83.9091 34.6591 83 32.3124 83C29.8882 83 28.1183 83.8333 26.964 85.5379V83.5303H22V102.47H26.964V91.8258C26.964 89.0606 28.3876 87.5454 30.5806 87.5454C32.6199 87.5454 33.8129 88.8712 33.8129 91.1439V102.47H38.7763V91.8258C38.7763 89.0606 40.0849 87.5454 42.3548 87.5454C44.3941 87.5454 45.5871 88.8712 45.5871 91.1439V102.47H50.5505V90.803C50.5505 86.0682 47.7032 83 43.2785 83ZM62.7312 83C65.4247 83 67.5027 83.9091 69.0032 85.7652V83.5303H73.9667V102.47H69.0032V100.235C67.5027 102.091 65.4247 103 62.7312 103C60.1532 103 57.9602 102.053 56.1134 100.121C54.3048 98.1894 53.3812 95.803 53.3812 93C53.3812 90.197 54.3048 87.8485 56.1134 85.9167C57.9602 83.9848 60.1532 83 62.7312 83ZM58.3452 93C58.3452 94.553 58.8452 95.8409 59.8457 96.8637C60.8457 97.8485 62.1156 98.3409 63.6548 98.3409C65.1941 98.3409 66.464 97.8485 67.464 96.8637C68.5032 95.8409 69.0032 94.553 69.0032 93C69.0032 91.447 68.5032 90.1591 67.464 89.1742C66.464 88.1515 65.1941 87.6591 63.6548 87.6591C62.1156 87.6591 60.8457 88.1515 59.8457 89.1742C58.8452 90.1591 58.3452 91.447 58.3452 93ZM92.2817 86.7879V83.5304H77.8521V88.1137H85.5865L77.4677 99.2122V102.47H92.6661V97.8864H84.1241L92.2817 86.7879ZM113.613 93C113.613 93.6439 113.536 94.2879 113.42 95.0076H98.9144C99.5687 97.3939 101.377 98.5682 104.34 98.5682C106.225 98.5682 107.688 97.9242 108.649 96.6742L112.651 98.947C110.765 101.636 107.957 103 104.263 103C101.069 103 98.5295 102.053 96.6058 100.159C94.6816 98.2652 93.7198 95.8788 93.7198 93C93.7198 90.1591 94.6816 87.7727 96.5671 85.8788C98.4526 83.947 100.915 83 103.878 83C106.687 83 109.034 83.947 110.842 85.8788C112.69 87.8106 113.613 90.1591 113.613 93ZM103.878 87.3939C101.223 87.3939 99.4144 88.7955 98.8375 91.2197H108.649C108.072 88.6439 106.148 87.3939 103.878 87.3939Z" fill="url(#paint0_linear_675_6341)"/>
<defs>
<linearGradient id="paint0_linear_675_6341" x1="-9.46801" y1="145.444" x2="135.823" y2="-2.09786" gradientUnits="userSpaceOnUse">
<stop offset="0.159082" stop-color="#3A1562"/>
<stop offset="1" stop-color="#D56B46"/>
</linearGradient>
</defs>
</svg>
