<svg width="133" height="132" viewBox="0 0 133 132" fill="none" xmlns="http://www.w3.org/2000/svg">
<path fill-rule="evenodd" clip-rule="evenodd" d="M66.6015 0C70.3656 0 73.4335 0.0773438 73.4335 0.20625C73.4335 0.309375 74.207 0.489844 75.1609 0.592969C76.1406 0.696094 78.0226 1.03125 79.3632 1.28906C80.7038 1.57266 83.0757 2.16563 84.6484 2.60391C86.221 3.04219 89.057 4.04766 90.9648 4.82109C92.8726 5.56875 95.8374 6.96094 97.539 7.88906C99.2406 8.81719 101.741 10.3383 103.082 11.2148C104.423 12.1172 106.743 13.8445 108.238 15.0305C109.734 16.2164 112.209 18.5367 113.781 20.1352C115.354 21.7594 117.391 24.0539 118.319 25.2656C119.247 26.4773 120.587 28.3336 121.284 29.3906C122.005 30.4477 122.908 31.9172 123.32 32.6133C123.733 33.3352 124.609 35.0109 125.28 36.3516C125.95 37.6922 126.775 39.4969 127.136 40.3477C127.497 41.1984 128.141 42.9516 128.58 44.2148C129.044 45.4781 129.74 47.8758 130.152 49.5C130.565 51.1242 131.055 53.625 131.287 55.043C131.493 56.4609 131.751 58.0336 131.854 58.5234C131.957 59.0133 132.034 62.3391 132.034 65.8711C132.034 70.6922 131.931 73.0383 131.596 75.1523C131.364 76.725 130.874 79.2516 130.513 80.8242C130.152 82.3969 129.43 84.9234 128.941 86.4961C128.425 88.0687 127.497 90.5437 126.878 92.0391C126.259 93.5344 125.151 95.8547 124.429 97.1953C123.707 98.5359 122.263 100.908 121.232 102.48C120.201 104.053 118.705 106.116 117.906 107.121C117.107 108.127 115.509 109.957 114.348 111.22C113.188 112.484 110.842 114.701 109.115 116.119C107.413 117.562 105.17 119.29 104.139 120.012C102.953 120.837 102.18 121.198 102.051 121.043C101.922 120.914 97.4874 114.262 92.2023 106.296C86.9171 98.3039 76.4241 82.4742 68.8702 71.1047C61.3421 59.7094 53.3757 47.7211 51.2101 44.4727C47.4976 38.9039 47.1882 38.5172 45.9765 37.8984C45.0226 37.4344 44.2749 37.2797 43.1406 37.2797C42.2124 37.2797 41.2585 37.4602 40.7687 37.718C40.3046 37.95 39.6859 38.4656 39.4023 38.8523C38.8609 39.5742 38.8609 39.7031 39.0156 99.7477L39.789 100.547C40.2273 100.985 40.9749 101.475 41.4648 101.63C41.9546 101.784 42.9601 101.913 43.6562 101.913C44.3781 101.913 45.3835 101.681 45.9507 101.423C46.4921 101.14 47.1882 100.573 47.4976 100.16C48.039 99.3867 48.039 99.2578 48.1163 77.55C48.1421 65.5102 48.2452 55.6875 48.3741 55.6875C48.4773 55.7133 50.5913 58.7297 53.0663 62.4164C55.5413 66.1031 58.9187 71.0531 60.5429 73.4508C62.1671 75.8484 65.1062 80.1539 67.0656 83.0414C69.0249 85.9289 73.8718 93.0445 77.8163 98.8711C81.7609 104.698 87.3554 112.87 90.2429 117.098C93.1304 121.301 95.4765 124.833 95.4765 124.962C95.4765 125.065 94.2648 125.709 92.7695 126.354C91.2742 127.024 88.6445 128.055 86.8913 128.623C85.164 129.216 82.1991 130.015 80.3171 130.453C78.4609 130.866 76.0632 131.304 75.032 131.407C74.0007 131.51 73.1757 131.691 73.1757 131.82C73.1757 131.923 70.1077 132 66.3437 132C61.9609 132 59.5116 131.897 59.5116 131.742C59.5116 131.613 59.1249 131.484 58.6609 131.484C58.2226 131.484 56.5726 131.252 54.9999 130.969C53.4273 130.685 50.9007 130.118 49.3281 129.68C47.7554 129.267 45.332 128.52 43.914 128.004C42.496 127.488 39.4796 126.173 37.2109 125.065C34.9421 123.93 31.5132 121.997 29.6054 120.708C27.6976 119.445 25.0163 117.459 23.6757 116.325C22.3351 115.191 20.0663 113.077 18.6226 111.607C17.2046 110.137 15.2968 107.998 14.3945 106.863C13.4921 105.729 11.8421 103.409 10.7335 101.707C9.59915 100.005 7.89759 96.9891 6.9179 95.0039C5.93821 93.0188 4.72649 90.2344 4.21087 88.8164C3.66946 87.3984 2.84446 84.6656 2.35462 82.7578C1.86477 80.85 1.22024 77.7562 0.910867 75.9258C0.446805 73.1156 0.34368 71.5172 0.369461 66.1289C0.369461 61.4625 0.472586 58.9359 0.781961 56.9766C1.01399 55.4812 1.50384 53.0062 1.86477 51.4336C2.19993 49.8609 2.87024 47.4375 3.30852 46.0195C3.77259 44.6016 4.46868 42.5906 4.88118 41.5852C5.29368 40.5539 6.32493 38.2852 7.20149 36.5578C8.05227 34.8047 9.65071 32.0461 10.7077 30.4219C11.7648 28.7977 13.2859 26.632 14.0851 25.6523C14.8843 24.6727 16.3538 22.9195 17.3335 21.8109C18.339 20.7023 20.2726 18.7687 21.639 17.557C22.9796 16.3453 24.9648 14.6953 26.0218 13.8961C27.0531 13.0969 28.8062 11.8594 29.8632 11.1633C30.9202 10.4414 33.0601 9.15234 34.6327 8.27578C36.2054 7.425 38.8093 6.13594 40.4335 5.43984C42.0577 4.74375 44.8421 3.7125 46.621 3.14531C48.3999 2.57812 51.339 1.80469 53.1952 1.41797C55.0515 1.05703 57.2687 0.670313 58.171 0.567188C59.0476 0.464063 59.7695 0.309375 59.7695 0.20625C59.7695 0.0773438 62.8374 0 66.6015 0V0ZM85.1124 37.2539L84.5195 37.8984V77.0859C89.1859 84.1758 91.1452 87.1922 91.9187 88.3781C92.6663 89.5383 93.3882 90.4922 93.5429 90.4922C93.7234 90.4922 93.8007 81.675 93.8007 64.582C93.8007 43.6992 93.7234 38.5172 93.4656 37.8469C93.2335 37.2797 92.7695 36.8156 92.0991 36.4805C91.5062 36.1969 90.4234 35.9648 89.4179 35.9133C88.3867 35.8617 87.3296 35.9906 86.7109 36.2227C86.1437 36.4289 85.4218 36.893 85.1124 37.2539Z" fill="url(#paint0_linear_324_2900)"/>
<defs>
<linearGradient id="paint0_linear_324_2900" x1="-9.18017" y1="147.682" x2="138.326" y2="3.4542" gradientUnits="userSpaceOnUse">
<stop offset="0.159082" stop-color="#3A1562"/>
<stop offset="1" stop-color="#D56B46"/>
</linearGradient>
</defs>
</svg>
