<svg width="134" height="130" viewBox="0 0 134 130" fill="none" xmlns="http://www.w3.org/2000/svg">
<path fill-rule="evenodd" clip-rule="evenodd" d="M19.1285 0.402926C18.2118 0.611281 16.8577 0.986321 16.1077 1.23635C15.3577 1.48637 14.0035 2.06977 13.0868 2.52815C12.1702 2.98653 10.8577 3.75745 10.1702 4.21583C9.48267 4.67421 8.06601 5.90351 7.02434 6.94529C5.98268 7.98706 4.73268 9.44555 4.23268 10.1956C3.73268 10.9457 2.96184 12.2583 2.54518 13.1126C2.10768 13.9669 1.52434 15.4253 1.21184 16.3421C0.920176 17.2589 0.545176 18.8007 0.378509 19.78C0.107676 21.301 0.0660095 27.6975 0.0660095 65.1598C0.0660095 107.102 0.0868429 108.81 0.461843 110.665C0.670176 111.727 1.06601 113.207 1.31601 113.957C1.56601 114.707 2.10768 116.019 2.54518 116.874C2.96184 117.728 3.73268 119.04 4.23268 119.791C4.73268 120.541 5.98268 121.999 7.02434 123.041C8.06601 124.083 9.48267 125.312 10.1702 125.77C10.8577 126.229 12.1702 127 13.0868 127.458C14.0035 127.916 15.3577 128.5 16.1077 128.75C16.8577 129 18.2952 129.375 19.3368 129.604C21.1493 130 22.691 130 66.7327 130C112.003 130 112.274 130 114.233 129.562C115.316 129.333 116.774 128.958 117.462 128.729C118.149 128.479 119.42 127.958 120.274 127.521C121.128 127.104 122.441 126.333 123.191 125.833C123.941 125.333 125.399 124.083 126.441 123.041C127.483 121.999 128.712 120.582 129.17 119.895C129.628 119.207 130.399 117.895 130.858 116.978C131.316 116.061 131.899 114.707 132.149 113.957C132.399 113.207 132.795 111.686 133.003 110.56C133.378 108.623 133.399 106.914 133.399 64.9306C133.399 22.6761 133.399 21.2801 133.003 19.3633C132.774 18.2798 132.399 16.7797 132.149 16.0296C131.899 15.2795 131.316 13.9252 130.858 13.0084C130.399 12.0917 129.628 10.779 129.17 10.0915C128.712 9.40388 127.483 7.98706 126.441 6.94529C125.399 5.90351 123.795 4.5492 122.878 3.9658C121.962 3.36157 120.649 2.61149 119.962 2.27812C119.274 1.94476 118.108 1.48637 117.358 1.23635C116.608 0.986321 115.17 0.611281 114.128 0.38209C112.316 -0.013785 110.837 -0.013785 66.5243 0.00705053C23.4618 0.0278861 20.691 0.0487216 19.1285 0.402926ZM30.1077 33.4898C30.1493 33.4689 31.8993 33.3856 34.0243 33.3231C36.1493 33.2397 41.3993 33.1981 45.691 33.2189C52.7535 33.2606 53.691 33.3023 55.4827 33.6981C56.566 33.9482 58.1702 34.3857 59.0243 34.6982C59.8785 34.9899 61.1493 35.5317 61.8368 35.8859C62.5243 36.2192 63.6493 36.886 64.3368 37.3652C65.0243 37.8236 66.1077 38.7195 66.7327 39.3654C67.3785 39.9905 68.2952 41.1156 68.816 41.8657C69.316 42.6157 69.9827 43.7825 70.2952 44.4701C70.6077 45.1577 71.066 46.4703 71.2952 47.3871C71.5452 48.3038 71.8368 49.8873 71.941 50.9291C72.0452 52.0334 72.0452 53.7002 71.941 54.9921C71.8368 56.2005 71.5868 57.9299 71.3577 58.8466C71.1285 59.7634 70.6702 61.1177 70.3368 61.8678C70.0035 62.6179 69.4202 63.6805 69.0243 64.2639C68.6285 64.8264 67.7118 65.9515 66.9618 66.7433C66.2118 67.5142 65.0243 68.5768 64.3368 69.056C63.6493 69.5561 62.2327 70.3687 61.2118 70.8479C60.191 71.3271 58.316 71.973 57.0452 72.2856C55.7743 72.6189 53.7952 72.9731 52.6285 73.0981C51.441 73.2231 48.6077 73.3273 42.1493 73.3273V82.3283C42.1702 89.454 42.1077 91.4126 41.8993 91.6001C41.691 91.8085 40.191 91.8501 30.1702 91.7668L30.1285 62.6387C30.0868 46.637 30.0868 33.5106 30.1077 33.4898ZM89.0243 47.5954C89.7743 47.4079 90.8993 47.1787 91.5243 47.0745C92.1493 46.9704 94.5452 46.9287 96.8368 46.9704C99.4618 47.012 101.691 47.1579 102.878 47.3662C103.899 47.5538 105.358 47.908 106.108 48.158C106.858 48.4289 107.587 48.7414 107.733 48.8872C107.92 49.0956 107.962 50.3874 107.941 54.2003C107.878 59.0758 107.858 59.2633 107.462 59.3258C107.233 59.3675 106.191 59.0758 105.17 58.6591C104.149 58.2632 102.399 57.7215 101.316 57.4715C99.6702 57.0756 98.7118 56.9923 95.691 56.9923C92.3993 56.9714 91.9618 57.0131 91.2118 57.409C90.6563 57.6868 90.2466 58.1035 89.9827 58.6591C89.7327 59.2008 89.6285 59.68 89.7327 60.1384C89.7952 60.5135 90.191 61.1594 90.5868 61.5552C90.9827 61.9511 92.0452 62.6387 92.941 63.0971C93.816 63.5346 95.6702 64.3472 97.0452 64.8889C98.4202 65.4307 100.399 66.3057 101.42 66.8058C102.441 67.3267 103.899 68.1601 104.649 68.6393C105.399 69.1185 106.524 70.077 107.149 70.7646C107.774 71.4313 108.587 72.5564 108.962 73.2231C109.316 73.9107 109.774 75.0775 109.941 75.8276C110.128 76.5777 110.274 77.932 110.274 78.8487C110.274 79.7655 110.128 81.1615 109.962 81.9741C109.774 82.7867 109.316 84.0785 108.92 84.8911C108.524 85.7036 107.67 86.9538 107.003 87.683C106.337 88.4123 105.191 89.3915 104.441 89.8916C103.691 90.3708 102.483 91.0167 101.733 91.3084C100.983 91.6209 99.6702 92.0585 98.816 92.2668C97.9618 92.496 96.0243 92.7877 94.5452 92.9127C92.4827 93.1003 91.1493 93.1003 89.0243 92.9127C87.4827 92.7877 85.316 92.5169 84.2327 92.2877C83.1493 92.0793 81.5452 91.6626 80.691 91.3709C79.8368 91.0792 78.8993 90.6417 78.0868 90.0583L78.0452 84.8077C78.0035 80.7865 78.0452 79.5572 78.2535 79.453C78.3785 79.3905 79.1493 79.6613 79.9618 80.0572C80.7743 80.4531 82.066 81.0156 82.8785 81.3073C83.691 81.599 85.316 82.0366 86.5243 82.3074C88.2743 82.7033 89.3368 82.8075 91.8368 82.8075C93.8785 82.8075 95.2952 82.7033 95.8993 82.5158C96.4202 82.3699 97.1285 81.9324 97.5243 81.5365C98.066 80.9531 98.191 80.6614 98.191 79.8905C98.191 79.1196 98.066 78.8071 97.4827 78.1612C97.1077 77.7445 96.0868 77.0569 95.2535 76.6193C94.3993 76.2026 92.4827 75.39 91.0035 74.7858C89.5243 74.2024 87.5868 73.3482 86.7327 72.8689C85.8785 72.4106 84.7535 71.723 84.2327 71.3896C83.7118 71.0354 82.9202 70.4312 82.4618 70.0145C82.0035 69.6186 81.2743 68.8477 80.8368 68.3268C80.3993 67.8059 79.7535 66.8475 79.4202 66.1807C79.0868 65.5348 78.6702 64.4514 78.5035 63.7846C78.3368 63.1387 78.191 61.7428 78.191 60.7218C78.191 59.68 78.3368 58.2841 78.5035 57.5965C78.6702 56.9089 79.1702 55.638 79.5868 54.7837C80.1493 53.6169 80.7743 52.8043 82.0243 51.5334C83.4202 50.1374 84.0452 49.679 85.691 48.8872C86.7743 48.3664 88.2743 47.783 89.0243 47.5954ZM42.1077 53.4502C42.0452 44.3451 42.066 44.1784 42.4618 44.0742C42.691 44.0117 44.8368 44.0117 47.2535 44.0325C51.0035 44.095 51.8577 44.1784 53.191 44.5743C54.0452 44.8243 55.2118 45.2827 55.7743 45.5744C56.316 45.8869 57.191 46.5745 57.691 47.137C58.191 47.6788 58.8577 48.658 59.191 49.3248C59.7118 50.429 59.7535 50.6791 59.7535 53.3252C59.7535 55.9713 59.7118 56.2213 59.1702 57.3881C58.8368 58.1174 58.1702 59.0341 57.5868 59.5759C57.0452 60.0967 56.1285 60.7635 55.566 61.076C55.0035 61.3885 53.6077 61.8886 52.4618 62.2011C50.7952 62.6387 49.7118 62.7637 47.0452 62.847C45.2118 62.9095 43.3577 62.9095 42.1493 62.7012L42.1077 53.4502Z" fill="url(#paint0_linear_199_1739)"/>
<defs>
<linearGradient id="paint0_linear_199_1739" x1="-9.60066" y1="145.444" x2="135.705" y2="-0.641805" gradientUnits="userSpaceOnUse">
<stop offset="0.159082" stop-color="#3A1562"/>
<stop offset="1" stop-color="#D56B46"/>
</linearGradient>
</defs>
</svg>
