<svg width="129" height="130" viewBox="0 0 129 130" fill="none" xmlns="http://www.w3.org/2000/svg">
<path fill-rule="evenodd" clip-rule="evenodd" d="M63.555 0.00256357C66.0808 -0.0140548 69.2546 0.0524188 70.6005 0.135511C71.9631 0.235221 74.2894 0.467879 75.8015 0.650681C77.3136 0.833484 79.291 1.13261 80.2049 1.31542C81.1189 1.49822 82.4316 1.84721 83.1129 2.07986C83.7941 2.31252 85.0238 2.84431 85.8546 3.27639C86.6854 3.69185 87.9151 4.4563 88.5964 4.97147C89.2777 5.47002 90.3245 6.41727 90.9227 7.04877C91.5209 7.68026 92.2686 8.6109 92.6176 9.10945C92.9499 9.608 93.4817 10.5885 93.814 11.2698C94.1463 11.9512 94.5784 13.1145 95.1599 15.1752V31.9597C95.1599 45.2046 95.1101 48.9604 94.9439 49.7414C94.8276 50.2898 94.5617 51.2205 94.379 51.8187C94.1962 52.417 93.7808 53.4141 93.4484 54.0622C93.1327 54.7103 92.5179 55.7074 92.0859 56.3057C91.6372 56.904 90.8064 57.8346 90.2248 58.3996C89.6598 58.9647 88.6628 59.7457 88.0148 60.1612C87.3667 60.5766 86.403 61.125 85.8546 61.3743C85.3063 61.607 84.3425 61.9726 83.6944 62.172C82.5479 62.521 82.3319 62.521 64.5022 62.6207C48.5336 62.7204 46.3235 62.7703 45.2268 63.0029C44.5456 63.1525 43.4987 63.4516 42.9005 63.6344C42.3023 63.8338 41.1391 64.3324 40.3249 64.7312C39.5107 65.1467 38.3475 65.828 37.7493 66.2435C37.1511 66.659 36.1209 67.5397 35.4396 68.1712C34.7583 68.8194 33.7946 69.9162 33.2794 70.5975C32.7643 71.2789 32.0332 72.4422 31.651 73.1734C31.2688 73.9046 30.7537 75.018 30.5211 75.6661C30.2718 76.3143 29.9561 77.2781 29.8066 77.8265C29.5905 78.6575 29.5407 80.2861 29.3579 96.1068H23.0436C17.8093 96.1068 16.5132 96.0569 15.483 95.8243C14.8017 95.6747 13.6385 95.3257 12.9074 95.0432C12.1763 94.7607 11.0962 94.2123 10.498 93.8301C9.89979 93.4312 8.93602 92.6668 8.35444 92.1184C7.77285 91.57 6.85893 90.5562 6.36043 89.8749C5.84532 89.1935 5.08095 87.9638 4.64892 87.1328C4.21688 86.3019 3.60207 84.8894 3.26973 83.9753C2.9374 83.0613 2.45552 81.4493 2.18965 80.4024C1.92378 79.3554 1.50837 77.5108 1.27573 76.3309C1.02648 75.151 0.694148 73.1568 0.511365 71.927C0.295348 70.4812 0.145798 68.354 0.079331 65.9444C0.0128643 63.5679 0.0627144 61.4242 0.179031 60.0448C0.295348 58.8649 0.561215 56.8043 0.793848 55.4748C1.00986 54.1453 1.45852 51.9517 1.75762 50.5724C2.07333 49.2096 2.52198 47.4813 2.75462 46.7501C3.00387 46.0189 3.56883 44.6728 4.01748 43.7588C4.46613 42.8448 5.31358 41.4655 5.89517 40.6844C6.49337 39.9033 7.47375 38.7899 8.10519 38.2083C8.73662 37.61 9.84994 36.7458 10.5811 36.2639C11.3122 35.782 12.3923 35.1671 12.9905 34.9012C13.5887 34.6353 14.6688 34.2199 15.3999 33.9872C16.131 33.7545 17.5102 33.4554 18.474 33.3058C20.0027 33.0732 23.0436 33.0399 64.1699 33.0399V29.2177H33.0967V22.7698C33.0967 19.2301 33.1797 15.4743 33.2794 14.4273C33.3791 13.3804 33.5952 11.9512 33.7779 11.2698C33.9441 10.5885 34.3762 9.45843 34.7085 8.77708C35.1073 7.9794 35.7221 7.11524 36.42 6.40065C37.0182 5.76915 37.982 4.95485 38.5802 4.57262C39.1784 4.20702 40.1089 3.70847 40.6573 3.45919C41.2056 3.20992 42.2525 2.81107 42.9836 2.57842C43.7147 2.32914 45.0939 1.94692 46.0577 1.73088C47.0214 1.51484 48.7828 1.16585 49.9626 0.983049C51.1424 0.800247 53.2361 0.534352 54.6153 0.384787C55.9778 0.25184 57.5232 0.118892 58.0217 0.0856556C58.5202 0.0524188 61.0127 0.019182 63.5384 0.00256357H63.555ZM42.834 11.1867C42.3688 11.6354 41.8038 12.3999 41.5878 12.8486C41.2222 13.5632 41.1724 13.9122 41.1724 15.4244C41.1724 16.9866 41.2222 17.2525 41.6044 18.0003C41.8537 18.4656 42.3688 19.147 42.7676 19.5458C43.1664 19.9446 43.9141 20.4764 44.4126 20.7091C45.177 21.0913 45.5426 21.1578 46.739 21.1578C47.9021 21.1578 48.3175 21.0913 49.0653 20.7257C49.5638 20.4931 50.3115 20.0111 50.6937 19.6455C51.1091 19.2799 51.6409 18.5321 51.94 17.9172C52.4052 16.97 52.4717 16.6874 52.4717 15.4244C52.4717 14.1781 52.4052 13.8789 51.9566 12.9317C51.6076 12.2171 51.1258 11.5856 50.5442 11.0538C50.0457 10.6051 49.2647 10.1066 48.7662 9.92375C48.2012 9.72433 47.5033 9.608 46.6891 9.62462C45.8749 9.62462 45.2102 9.74095 44.5788 9.99022C43.9972 10.2063 43.3492 10.655 42.834 11.1867ZM98.9153 33.0399H105.346C110.348 33.0399 112.126 33.0898 113.239 33.2892C114.053 33.4222 115.25 33.7379 115.898 33.9872C116.562 34.2365 117.626 34.7849 118.274 35.217C118.922 35.6324 119.935 36.4966 120.534 37.1281C121.132 37.7596 121.929 38.7234 122.295 39.2718C122.661 39.8203 123.259 40.8672 123.624 41.5984C123.99 42.3296 124.571 43.6757 124.92 44.5897C125.253 45.5037 125.801 47.2653 126.117 48.4951C126.433 49.7248 126.914 51.7855 127.164 53.0651C127.43 54.3447 127.795 56.4387 127.978 57.7183C128.161 58.9979 128.41 61.3577 128.51 62.9531C128.676 65.2298 128.676 66.4429 128.51 68.6033C128.393 70.1156 128.161 72.2095 127.978 73.2565C127.795 74.3034 127.43 76.0317 127.164 77.0787C126.898 78.1257 126.349 79.9703 125.934 81.1502C125.535 82.3301 124.97 83.8923 124.688 84.6068C124.405 85.3048 123.79 86.6509 123.325 87.5981C122.843 88.5288 122.162 89.7419 121.796 90.2903C121.431 90.8387 120.667 91.7694 120.118 92.3344C119.553 92.916 118.623 93.7137 118.024 94.0959C117.426 94.4948 116.529 94.9767 116.031 95.1928C115.532 95.3922 114.635 95.6913 114.036 95.8243C113.073 96.0569 110.181 96.0902 64.3526 96.1899V100.012H95.2597V106.377C95.2597 111.396 95.2098 113.041 95.0104 114.221C94.8609 115.052 94.5451 116.198 94.3125 116.797C94.0633 117.395 93.6146 118.326 93.2823 118.874C92.9666 119.422 92.169 120.42 91.5209 121.101C90.8895 121.782 89.7595 122.779 89.0284 123.328C88.2973 123.86 86.7685 124.774 85.622 125.355C84.4588 125.937 82.415 126.751 80.9693 127.233C79.5569 127.682 77.1973 128.33 75.7351 128.662C74.2728 128.978 72.2289 129.36 71.1987 129.51C70.1851 129.643 68.1579 129.826 66.7122 129.925C65.0339 130.025 63.1895 130.025 61.5278 129.925C60.1154 129.842 58.354 129.693 57.6229 129.593C56.8917 129.493 55.5126 129.26 54.5488 129.078C53.585 128.895 51.8237 128.479 50.6439 128.18C49.4641 127.865 47.8523 127.383 47.0713 127.117C46.2903 126.851 45.0607 126.369 44.3295 126.053C43.5984 125.737 42.5183 125.189 41.9201 124.857C41.3219 124.524 40.2917 123.86 39.6104 123.394C38.9291 122.912 37.7327 121.849 36.9517 121.018C35.9215 119.938 35.3067 119.107 34.7417 118.026C34.3097 117.212 33.7946 115.949 33.1964 113.888L33.1465 98.101C33.1133 87.2326 33.1465 81.7983 33.2794 80.6517C33.3958 79.6712 33.6783 78.3417 33.994 77.4111C34.2931 76.5469 34.858 75.2507 35.2734 74.5195C35.6889 73.8049 36.4699 72.6914 37.0182 72.0433C37.5666 71.3952 38.5802 70.4147 39.2781 69.8497C39.976 69.3013 41.1724 68.5368 41.9367 68.1546C42.7011 67.789 43.8477 67.3071 44.4957 67.1243C45.1438 66.9249 46.2571 66.6922 46.9882 66.6091C47.7692 66.5094 55.0473 66.4429 64.8511 66.4429C78.6928 66.4429 81.6174 66.4097 82.7971 66.1937C83.5781 66.0607 84.7745 65.7616 85.4558 65.5289C86.1371 65.2963 87.3003 64.7977 88.0314 64.4321C88.7625 64.0499 89.9423 63.3353 90.6734 62.8201C91.388 62.2883 92.5844 61.2414 93.3321 60.4603C94.0799 59.6792 95.0769 58.4827 95.5421 57.8014C95.9908 57.12 96.6056 56.1063 96.8715 55.5579C97.154 55.0095 97.6192 53.8794 97.9017 53.0651C98.2008 52.2508 98.5498 50.938 98.6827 50.1569C98.8655 49.0601 98.9153 47.0326 98.9153 40.9005V33.0399ZM78.643 108.836C78.2276 109.069 77.646 109.551 77.3469 109.917C77.0478 110.266 76.6656 110.847 76.4828 111.213C76.3 111.595 76.0674 112.343 75.9511 112.875C75.8015 113.722 75.8015 114.071 76.0508 115.035C76.2169 115.716 76.5659 116.564 76.8982 117.079C77.2139 117.561 77.8288 118.209 78.2774 118.525C78.7094 118.841 79.4738 119.223 79.9723 119.373C80.6204 119.572 81.2352 119.638 82.0494 119.589C82.9633 119.522 83.4452 119.389 84.276 118.94C84.8576 118.625 85.5887 118.076 85.9045 117.694C86.2202 117.328 86.619 116.747 86.7851 116.365C86.9679 115.999 87.1839 115.251 87.267 114.703C87.3833 114.071 87.3833 113.373 87.267 112.792C87.1839 112.293 86.9679 111.595 86.7851 111.213C86.619 110.847 86.2202 110.266 85.9045 109.883C85.5887 109.518 84.8576 108.969 84.276 108.654C83.3621 108.172 83.0298 108.072 81.8832 108.022C81.069 107.989 80.3213 108.055 79.9723 108.188C79.6566 108.305 79.0584 108.604 78.643 108.836Z" fill="url(#paint0_linear_199_1758)"/>
<defs>
<linearGradient id="paint0_linear_199_1758" x1="-9.27283" y1="145.444" x2="135.966" y2="4.62626" gradientUnits="userSpaceOnUse">
<stop offset="0.159082" stop-color="#3A1562"/>
<stop offset="1" stop-color="#D56B46"/>
</linearGradient>
</defs>
</svg>
