<svg width="146" height="130" viewBox="0 0 146 130" fill="none" xmlns="http://www.w3.org/2000/svg">
<path fill-rule="evenodd" clip-rule="evenodd" d="M46.9397 0.00979119C47.9621 0.0481175 49.483 0.175872 50.3265 0.316402C51.17 0.456932 52.4097 0.712441 53.0743 0.891297C53.7389 1.07015 55.0936 1.49174 56.0777 1.83668C57.0618 2.18162 58.621 2.79484 59.5284 3.21643C60.4358 3.62524 62.0589 4.44287 63.1069 5.03054C64.1677 5.61821 65.9442 6.70413 67.0689 7.4451C68.1935 8.18608 69.8806 9.3742 70.8135 10.0896C71.7593 10.805 72.6028 11.4438 72.705 11.5077C72.8243 11.5929 72.9436 11.5929 73.0629 11.5077C73.1651 11.4438 74.0214 10.805 74.9544 10.0896C75.8874 9.3742 77.5744 8.18608 78.6991 7.45788C79.8237 6.7169 81.4341 5.72042 82.2776 5.23495C83.1211 4.76226 84.5653 4.02128 85.4727 3.57414C86.3801 3.13978 87.6837 2.57766 88.3483 2.30937C89.0129 2.05386 90.0736 1.6706 90.7127 1.46619C91.3517 1.26179 92.438 0.955175 93.1409 0.789094C93.8439 0.610237 95.058 0.367504 95.8248 0.252525C96.7834 0.0992193 97.9208 0.0225666 99.4034 0.0225666C100.924 0.0225666 101.959 0.0992193 102.854 0.252525C103.557 0.380279 104.771 0.68689 105.538 0.929624C106.305 1.18513 107.544 1.69615 108.286 2.07941C109.027 2.4499 110.113 3.127 110.714 3.57414C111.315 4.02128 112.35 4.95389 113.015 5.64376C113.679 6.34641 114.612 7.48343 115.085 8.18608C115.558 8.88873 116.197 9.98742 116.529 10.6134C116.849 11.2522 117.334 12.3381 117.603 13.0408C117.871 13.7434 118.267 14.9443 118.485 15.7236C118.702 16.5029 118.996 17.7038 119.136 18.4064C119.277 19.1091 119.494 20.3994 119.609 21.2809C119.737 22.2646 119.839 24.2448 119.878 26.455C119.916 28.5885 119.89 30.8242 119.801 32.0123C119.724 33.0982 119.533 34.9634 119.392 36.1643C119.251 37.3652 119.149 38.3361 119.175 38.3489C119.2 38.3617 120.133 38.7577 121.258 39.2304C122.383 39.7031 124.325 40.6102 125.565 41.2234C126.817 41.8494 128.492 42.7437 129.271 43.2164C130.064 43.6763 131.291 44.4428 131.993 44.9155C132.696 45.3882 133.936 46.2825 134.741 46.9085C135.546 47.5345 137.016 48.8503 138.013 49.834C138.997 50.8178 140.211 52.172 140.71 52.8363C141.208 53.5006 141.937 54.5993 142.333 55.2636C142.729 55.9279 143.279 57.0011 143.56 57.6271C143.828 58.2531 144.199 59.3007 144.39 59.9267C144.569 60.5527 144.799 61.5619 144.914 62.1624C145.017 62.7628 145.106 64.002 145.106 64.9091C145.106 65.8161 145.042 66.9659 144.966 67.4642C144.889 67.9624 144.774 68.614 144.697 68.9334C144.633 69.2527 144.403 70.0576 144.186 70.7219C143.969 71.3862 143.483 72.536 143.125 73.277C142.755 74.018 142.128 75.1039 141.745 75.7043C141.349 76.3048 140.697 77.1863 140.301 77.6845C139.905 78.1828 139.061 79.1154 138.409 79.7797C137.757 80.4313 136.799 81.3511 136.275 81.8238C135.751 82.2837 134.856 83.0247 134.294 83.4463C133.732 83.8679 132.722 84.5961 132.057 85.0432C131.393 85.4903 130.243 86.2185 129.501 86.6657C128.76 87.1 127.175 87.9688 125.987 88.5692C124.785 89.1824 122.779 90.115 119.213 91.6481L119.226 92.2102C119.239 92.5041 119.366 93.7944 119.533 95.0591C119.737 96.7583 119.826 98.3552 119.878 101.191C119.929 103.657 119.89 105.637 119.801 106.749C119.711 107.694 119.558 109.048 119.456 109.751C119.354 110.454 119.124 111.693 118.945 112.498C118.766 113.302 118.357 114.746 118.05 115.692C117.731 116.637 117.143 118.106 116.734 118.949C116.312 119.792 115.635 120.993 115.213 121.632C114.791 122.271 114.05 123.242 113.564 123.804C113.078 124.366 112.222 125.209 111.66 125.669C111.11 126.142 110.216 126.793 109.692 127.138C109.168 127.47 108.273 127.969 107.711 128.224C107.148 128.493 106.177 128.876 105.538 129.08C104.899 129.297 103.672 129.578 102.79 129.732C101.678 129.923 100.643 130 99.4034 130C98.2915 130 96.9623 129.898 95.8887 129.744C94.943 129.604 93.4093 129.297 92.5019 129.055C91.5945 128.812 90.2654 128.403 89.5624 128.148C88.8595 127.892 87.5048 127.343 86.559 126.934C85.6133 126.512 83.9646 125.695 82.9166 125.107C81.8558 124.519 80.2327 123.561 79.2997 122.961C78.3668 122.373 76.5392 121.096 72.884 118.374L71.1203 119.69C70.1617 120.418 68.7303 121.44 67.9635 121.977C67.1967 122.501 65.8419 123.37 64.9601 123.893C64.0782 124.43 62.698 125.209 61.8928 125.631C61.0876 126.052 59.7073 126.717 58.8255 127.1C57.9436 127.483 56.5378 128.033 55.6943 128.314C54.8508 128.607 53.56 128.991 52.8187 129.182C52.0774 129.361 50.7227 129.617 49.8153 129.757C48.8056 129.898 47.4509 130 46.3646 130C45.1249 130 44.0897 129.923 42.9778 129.732C42.0959 129.578 40.8562 129.297 40.23 129.08C39.6037 128.876 38.6196 128.493 38.0573 128.224C37.495 127.969 36.6003 127.47 36.0763 127.138C35.5523 126.793 34.6577 126.142 34.1081 125.669C33.5458 125.209 32.6895 124.366 32.2039 123.804C31.7182 123.242 30.9769 122.271 30.5552 121.632C30.1334 120.993 29.4561 119.792 29.0343 118.949C28.6253 118.106 28.0374 116.637 27.7179 115.692C27.4112 114.746 27.0022 113.302 26.8233 112.498C26.6444 111.693 26.4143 110.454 26.3121 109.751C26.2098 109.048 26.0565 107.694 25.967 106.749C25.8775 105.637 25.8392 103.657 25.8903 101.191C25.9414 98.3552 26.0309 96.7583 26.2354 95.0591C26.4015 93.7944 26.5293 92.5168 26.5549 91.6481L24.2544 90.6644C22.9892 90.115 21.0721 89.2335 19.9985 88.697C18.9378 88.1476 17.4041 87.33 16.6117 86.8573C15.8321 86.3974 14.5796 85.6053 13.8384 85.1198C13.0971 84.6216 12.1514 83.9701 11.7296 83.6507C11.3078 83.3185 10.4771 82.6542 9.87643 82.1432C9.27575 81.6321 8.2022 80.6229 7.48649 79.9075C6.77079 79.1793 5.86338 78.1828 5.46719 77.6845C5.07099 77.1863 4.43197 76.3048 4.03578 75.7043C3.63958 75.1039 3.0389 74.0691 2.70661 73.4048C2.37432 72.7404 1.97813 71.8717 1.83754 71.4884C1.68418 71.1052 1.45413 70.3898 1.31355 69.8915C1.17296 69.3933 0.981254 68.4862 0.86623 67.8474C0.751206 67.1831 0.661743 65.9567 0.661743 64.973C0.661743 64.0276 0.751206 62.7628 0.85345 62.1624C0.968474 61.5619 1.19852 60.5527 1.37745 59.9267C1.56915 59.3007 1.93979 58.2531 2.20818 57.6271C2.48935 57.0011 3.0389 55.9279 3.4351 55.2636C3.83129 54.5993 4.55978 53.5006 5.05821 52.8363C5.55665 52.172 6.77079 50.8178 7.75488 49.834C8.75176 48.8503 10.2215 47.5345 11.0267 46.9085C11.8318 46.2825 13.2121 45.2988 14.094 44.7239C14.9758 44.1362 16.2667 43.3313 16.9696 42.9353C17.6725 42.5265 19.1934 41.7216 20.3564 41.1467C21.5194 40.5718 23.3854 39.7031 24.51 39.2304C25.6347 38.7577 26.5677 38.3617 26.5932 38.3489C26.6188 38.3489 26.5166 37.3652 26.376 36.1643C26.2354 34.9634 26.0437 33.1621 25.967 32.1401C25.8775 31.0414 25.852 28.7929 25.8903 26.5827C25.9287 24.1937 26.0181 22.3157 26.1587 21.2809C26.2737 20.3994 26.491 19.1091 26.6316 18.4064C26.7722 17.7038 27.0533 16.5029 27.2706 15.7236C27.4879 14.9443 27.8968 13.7434 28.1652 13.0408C28.4336 12.3381 28.9193 11.2522 29.2388 10.6134C29.5711 9.98742 30.1973 8.91428 30.6319 8.24996C31.0792 7.58563 32.0121 6.43584 32.7023 5.70764C33.4052 4.97944 34.4532 4.02128 35.0539 3.57414C35.6546 3.127 36.6898 2.48823 37.3544 2.13052C38.0189 1.78558 39.1436 1.30011 39.8465 1.05738C40.5495 0.814645 41.5847 0.520809 42.147 0.40583C42.7094 0.290851 43.604 0.150321 44.128 0.0736684C44.652 0.00979119 45.9173 -0.0157597 46.9397 0.00979119V0.00979119ZM42.2748 7.56008C41.917 7.67506 41.2907 7.94335 40.869 8.16053C40.4472 8.36494 39.7571 8.78653 39.3353 9.08036C38.9136 9.38697 38.1851 10.0257 37.725 10.4984C37.2649 10.9839 36.6003 11.8143 36.268 12.3381C35.923 12.8619 35.4373 13.7562 35.1689 14.3183C34.9133 14.8804 34.5171 15.8897 34.2998 16.554C34.0826 17.2183 33.7631 18.3937 33.5841 19.173C33.418 19.9523 33.1752 21.3192 33.0474 22.2391C32.8812 23.4911 32.8301 24.8069 32.8301 27.6048C32.8301 30.2237 32.894 31.9101 33.0601 33.3537C33.1752 34.478 33.303 35.5255 33.3285 35.6916C33.3669 35.8449 33.418 35.9727 33.4563 35.9727C33.4947 35.9727 34.6321 35.6661 35.9741 35.2828C37.3288 34.8995 39.8721 34.2735 41.6358 33.8775C43.3867 33.4942 45.8406 32.996 47.0675 32.7788C48.2944 32.5744 50.2754 32.255 51.4767 32.0762C52.6781 31.8973 53.7133 31.6929 53.79 31.6035C53.8667 31.5141 54.7485 30.4281 55.7198 29.2017C56.7039 27.9753 58.1353 26.2506 58.8894 25.3691C59.6434 24.4876 61.1515 22.8012 62.2506 21.6131C63.3625 20.425 64.9857 18.7642 65.8803 17.9082L67.5034 16.3624C67.0689 15.9408 66.4298 15.4553 65.7908 14.9954C65.1518 14.5483 64.1294 13.8328 63.4903 13.3985C62.8513 12.9769 61.7394 12.2742 60.9982 11.8271C60.2569 11.3927 58.9789 10.6901 58.1481 10.2813C57.3302 9.85966 56.116 9.31032 55.477 9.02926C54.8252 8.76098 53.6622 8.33939 52.8826 8.08388C52.103 7.84114 50.9016 7.50898 50.1987 7.35568C49.2913 7.16404 48.32 7.07462 46.8119 7.03629C45.2782 6.99796 44.4603 7.03629 43.8085 7.16404C43.31 7.26625 42.6199 7.4451 42.2748 7.56008V7.56008ZM94.5468 7.59841C93.9845 7.73894 92.9492 8.05833 92.2463 8.30106C91.5434 8.54379 90.4826 8.95261 89.8819 9.20812C89.2813 9.46362 87.9904 10.0896 87.0063 10.6006C86.0222 11.1117 84.5525 11.9548 83.7473 12.4531C82.9422 12.9641 81.613 13.8456 80.8078 14.4205C80.0027 14.9826 79.0953 15.6342 78.7885 15.8769L78.2517 16.2985C80.7823 18.7514 82.4054 20.425 83.5173 21.6131C84.6164 22.8012 86.2523 24.6409 87.1597 25.6884C88.0543 26.7488 89.5496 28.5374 90.4571 29.6872C91.8373 31.4119 92.1824 31.7823 92.5019 31.8207C92.7064 31.859 93.3454 31.9356 93.9078 32.0123C94.4701 32.0889 96.1444 32.3572 97.6141 32.6C99.0838 32.8427 101.129 33.226 102.151 33.4304C103.174 33.6476 104.925 34.0436 106.049 34.3119C107.174 34.5802 109.04 35.0656 110.203 35.385C111.366 35.7172 112.324 35.9599 112.35 35.9471C112.363 35.9216 112.465 35.2828 112.567 34.5035C112.657 33.7242 112.81 32.0889 112.9 30.8625C112.989 29.5466 113.015 27.6303 112.976 26.1995C112.925 24.8708 112.797 23.0567 112.695 22.1752C112.58 21.2937 112.35 19.9523 112.184 19.173C112.005 18.3937 111.685 17.2183 111.468 16.554C111.251 15.8897 110.816 14.8165 110.522 14.1905C110.216 13.5645 109.73 12.6703 109.423 12.2103C109.129 11.7504 108.477 10.9584 107.979 10.4346C107.481 9.92354 106.727 9.25922 106.305 8.97816C105.883 8.6971 105.142 8.26273 104.643 8.03277C104.145 7.80282 103.289 7.49621 102.726 7.3429C101.947 7.13849 101.244 7.06184 99.7229 7.02351C98.4448 6.99796 97.3585 7.04906 96.6556 7.16404C96.0549 7.25347 95.1091 7.45788 94.5468 7.59841V7.59841ZM67.1839 26.5316C66.1231 27.6814 64.8323 29.0995 64.3339 29.6872C63.8354 30.2621 63.4392 30.7603 63.452 30.7986C63.4776 30.8242 64.615 30.7986 65.9825 30.7348C67.35 30.6709 70.4557 30.607 72.884 30.607C75.3122 30.607 78.4179 30.6709 79.7854 30.7348C81.1529 30.7986 82.2904 30.8242 82.3031 30.7986C82.3287 30.7603 81.9325 30.2621 81.4341 29.6872C80.9356 29.0995 79.6448 27.6814 78.584 26.5316C77.5233 25.3818 75.8235 23.6444 74.801 22.6607C73.7786 21.6897 72.9223 20.8849 72.8712 20.8977C72.8328 20.8977 71.9766 21.6897 70.9541 22.6607C69.9445 23.6444 68.2447 25.3818 67.1839 26.5316V26.5316ZM64.9601 37.7612C63.6565 37.8251 61.4455 37.9912 60.0524 38.1062L57.4963 38.3361C56.4739 39.7287 55.5154 41.0956 54.7102 42.2965C53.905 43.4974 52.5631 45.567 51.7196 46.8957C50.8888 48.2243 49.4702 50.6134 48.5756 52.1975C47.6682 53.7817 46.1984 56.5412 45.291 58.3297C44.3836 60.1183 43.2845 62.354 42.8627 63.2866L42.0831 64.973C42.7988 66.6082 43.6935 68.4607 44.5242 70.147C45.3421 71.8334 46.6202 74.299 47.3614 75.6405C48.0899 76.9819 49.3424 79.1537 50.1348 80.4951C50.9272 81.8366 52.218 83.8934 52.9848 85.0943C53.7517 86.2952 55.0808 88.2498 55.9371 89.4635L57.4835 91.6609C58.3782 91.7631 59.7201 91.8781 61.0621 91.993C62.404 92.0952 64.7045 92.2358 66.1742 92.3124C67.644 92.3763 70.6729 92.4402 72.884 92.4402C75.095 92.4402 78.1239 92.3763 79.5937 92.3124C81.0634 92.2358 83.3639 92.0952 84.7059 91.993C86.0478 91.8781 87.3898 91.7631 87.7093 91.7248L88.2844 91.6609C90.6871 88.2498 92.0163 86.2952 92.7831 85.0943C93.5499 83.8934 94.8407 81.8366 95.6331 80.4951C96.4255 79.1537 97.678 76.9819 98.4065 75.6405C99.1478 74.299 100.426 71.8334 101.244 70.147C102.074 68.4607 102.969 66.6082 103.225 66.0333L103.685 64.973C102.483 62.354 101.384 60.1183 100.477 58.3297C99.5695 56.5412 98.0998 53.7817 97.1923 52.1975C96.2977 50.6134 94.8791 48.2371 94.0484 46.8957C93.2049 45.567 91.8629 43.4974 91.0577 42.2965C90.2526 41.0956 89.294 39.7287 88.9234 39.2304L88.2716 38.3361C84.2202 37.9784 82.1242 37.8251 80.9995 37.7612C79.8749 37.6974 76.9354 37.6079 74.4815 37.5824C72.0149 37.5568 69.4077 37.5568 68.6664 37.5824C67.9252 37.6079 66.2637 37.6846 64.9601 37.7612V37.7612ZM40.3578 41.3384C39.0158 41.6705 37.1882 42.1688 36.2936 42.4371C35.399 42.7181 34.6705 42.9992 34.6705 43.0631C34.6705 43.1397 34.9261 44.2256 35.2456 45.4904C35.5651 46.7552 36.1147 48.7354 36.4597 49.8979C36.8048 51.0605 37.3799 52.8363 37.725 53.8583C38.0701 54.8804 38.4024 55.8257 38.4407 55.9663C38.5174 56.1707 38.773 55.7619 39.6165 54.1138C40.2172 52.9513 41.278 50.9711 41.9937 49.7063C42.6966 48.4415 43.9363 46.3208 44.7415 44.9794C45.5594 43.6507 46.633 41.9005 47.157 41.1212C47.6682 40.3291 48.0132 39.6776 47.9238 39.6903C47.8471 39.6903 46.6457 39.9203 45.2782 40.2014C43.9107 40.4952 41.6869 40.9934 40.3578 41.3384ZM98.6365 41.1084C99.135 41.9005 100.145 43.523 100.873 44.7239C101.589 45.9248 102.675 47.7644 103.276 48.812C103.877 49.8724 105.014 51.9675 105.806 53.4751L107.238 56.2218C107.864 54.446 108.362 52.9129 108.759 51.6865C109.142 50.46 109.704 48.531 110.011 47.4067C110.318 46.2825 110.688 44.8133 110.842 44.149C110.995 43.4846 111.097 42.9225 111.072 42.9098C111.046 42.897 110.369 42.6926 109.564 42.4498C108.759 42.2071 106.944 41.7089 105.538 41.3639C104.132 41.0062 102.011 40.5207 100.809 40.278C99.6078 40.0353 98.4321 39.7925 98.1764 39.7542L97.7163 39.6648L98.6365 41.1084ZM24.0627 47.049C23.3215 47.3939 21.9795 48.0966 21.0593 48.6076C20.1519 49.1186 18.8227 49.9235 18.1198 50.3706C17.4169 50.8305 16.2667 51.6482 15.5637 52.1847C14.8608 52.7213 13.5444 53.8966 12.6242 54.8165C11.6274 55.813 10.6433 56.9372 10.1704 57.6271C9.74863 58.2658 9.12239 59.3262 8.80288 59.9905C8.48337 60.6549 8.09995 61.6641 7.95937 62.2262C7.81879 62.7884 7.66542 63.7721 7.62708 64.3981C7.57596 65.0496 7.6143 65.9567 7.69098 66.506C7.78044 67.0298 8.02327 68.0135 8.25332 68.6778C8.48337 69.3422 8.93068 70.3386 9.23741 70.9008C9.55692 71.4501 10.1704 72.3699 10.5921 72.9448C11.0267 73.507 11.9213 74.5162 12.5731 75.1805C13.2377 75.8321 14.3496 76.8414 15.0525 77.4035C15.7554 77.9656 17.0463 78.911 17.9281 79.4859C18.81 80.0608 20.3308 80.9806 21.3149 81.5299C22.299 82.0793 24.0883 82.9736 25.2769 83.5101C26.4782 84.0595 27.5773 84.5194 27.7435 84.5449C28.0246 84.5833 28.063 84.4811 28.5359 82.667C28.8043 81.6194 29.2644 79.9202 29.5583 78.8982C29.8523 77.8762 30.4529 75.9598 30.9002 74.6184C31.3476 73.2898 32.0888 71.1563 32.5617 69.8915C33.0474 68.6267 33.6736 67.017 33.9676 66.3144L34.5171 65.0368C33.942 63.6571 33.3669 62.1879 32.8684 60.8848C32.37 59.5817 31.5904 57.4354 31.1431 56.094C30.683 54.7654 30.0567 52.7724 29.7372 51.6865C29.4049 50.6006 28.8937 48.7354 28.587 47.5345C28.2803 46.3464 28.0119 45.3499 27.9863 45.3371C27.9607 45.3243 27.3728 45.5543 26.6699 45.8609C25.9798 46.1675 24.804 46.6913 24.0627 47.049V47.049ZM117.628 45.7842C117.564 46.0397 117.27 47.1768 116.976 48.301C116.683 49.4252 116.171 51.2649 115.826 52.3891C115.481 53.5134 114.88 55.3786 114.484 56.5412C114.088 57.7037 113.372 59.6839 112.887 60.9487C112.401 62.2135 111.839 63.6571 111.634 64.1426L111.264 65.0368C112.606 68.3074 113.423 70.4792 113.96 71.9739C114.497 73.4559 115.315 75.9343 115.775 77.4674C116.235 78.9876 116.861 81.2233 117.168 82.4115C117.475 83.6123 117.782 84.5961 117.833 84.6216C117.897 84.6472 118.996 84.1745 120.299 83.5868C121.603 83.0119 123.469 82.0793 124.453 81.5299C125.437 80.9806 126.958 80.0608 127.84 79.4859C128.722 78.911 130.012 77.9656 130.715 77.4035C131.418 76.8414 132.53 75.8449 133.195 75.1805C133.847 74.5162 134.741 73.507 135.176 72.9448C135.61 72.3699 136.211 71.4501 136.531 70.9008C136.85 70.3386 137.285 69.3422 137.515 68.6778C137.745 68.0135 138 67.0298 138.077 66.506C138.166 65.9567 138.192 65.0496 138.154 64.3981C138.103 63.7721 137.962 62.7884 137.809 62.2262C137.668 61.6641 137.285 60.6549 136.965 59.9905C136.646 59.3262 136.032 58.2658 135.598 57.6271C135.125 56.9372 134.153 55.813 133.144 54.8165C132.236 53.8966 130.907 52.7213 130.204 52.1847C129.501 51.6482 128.351 50.8305 127.648 50.3706C126.945 49.9107 125.565 49.0931 124.581 48.5437C123.597 47.9944 121.935 47.1512 120.874 46.6657C119.826 46.1803 118.689 45.6693 118.357 45.5415L117.743 45.3115L117.628 45.7842ZM37.5333 76.7264C37.1499 77.8889 36.5236 79.8947 36.153 81.1978C35.7824 82.5009 35.2967 84.3405 35.0667 85.2859C34.8366 86.2313 34.696 87.0489 34.7599 87.0873C34.8238 87.1384 35.8974 87.4705 37.1627 87.8282C38.4279 88.186 40.5623 88.7353 41.8914 89.0419C43.2334 89.3485 45.1249 89.7573 46.109 89.949C47.0931 90.1278 47.9238 90.2684 47.9366 90.2428C47.9621 90.2173 47.3231 89.1697 46.5179 87.9049C45.7255 86.6401 44.5753 84.7749 43.9746 83.7529C43.3739 82.7308 42.3132 80.8656 41.6102 79.6009C40.9073 78.3361 39.9616 76.5347 39.5143 75.6021C39.0542 74.6695 38.6452 73.9158 38.5941 73.9158C38.5429 73.9158 38.4407 74.0691 38.3768 74.2607C38.3001 74.4523 37.9167 75.5638 37.5333 76.7264V76.7264ZM104.426 79.1537C103.787 80.3163 102.688 82.2326 101.985 83.4335C101.282 84.6216 100.055 86.6401 99.2628 87.9049C98.4576 89.1697 97.8442 90.23 97.8825 90.2684C97.9208 90.3067 99.0327 90.1023 100.336 89.834C101.653 89.5529 103.646 89.1058 104.771 88.8375C105.896 88.5692 107.736 88.0837 108.861 87.7644C109.986 87.445 110.957 87.1384 111.021 87.0873C111.072 87.0489 110.919 86.1419 110.663 85.0943C110.407 84.0339 109.934 82.2581 109.615 81.1339C109.295 80.0097 108.656 77.9656 108.196 76.5986C107.749 75.2316 107.327 74.0563 107.289 73.9924C107.238 73.9285 106.829 74.5929 106.381 75.4616C105.947 76.3303 105.052 77.9911 104.426 79.1537V79.1537ZM33.0857 96.5283C32.9707 97.5504 32.8429 99.5561 32.8045 101C32.7534 102.609 32.779 104.372 32.8684 105.599C32.9579 106.685 33.1113 108.154 33.2263 108.857C33.3285 109.559 33.5586 110.735 33.7375 111.476C33.9164 112.217 34.2359 113.302 34.4532 113.903C34.6577 114.503 35.1306 115.564 35.4884 116.266C35.8463 116.969 36.4853 118.004 36.9071 118.553C37.3288 119.115 38.1084 119.946 38.6324 120.393C39.2459 120.904 40.0766 121.44 40.869 121.836C41.6742 122.22 42.6071 122.565 43.3612 122.731C44.2941 122.948 45.0098 123.012 46.3646 123.012C47.5148 123.012 48.6139 122.935 49.4319 122.782C50.1348 122.667 51.2084 122.424 51.7963 122.258C52.3969 122.079 53.4577 121.734 54.1606 121.479C54.8636 121.223 56.2438 120.636 57.2279 120.163C58.212 119.703 59.6562 118.949 60.423 118.502C61.2027 118.055 62.519 117.237 63.3625 116.675C64.2061 116.113 65.4841 115.219 66.2126 114.682L67.5162 113.711C62.9152 109.061 60.7426 106.749 59.7201 105.586C58.7105 104.424 57.1768 102.622 56.3333 101.562C55.477 100.514 54.5568 99.3389 54.2629 98.9557L53.7389 98.253C51.7963 97.9847 49.9047 97.6909 48.2816 97.4226C46.6713 97.1543 44.3708 96.72 43.1695 96.4644C41.9809 96.2089 39.9616 95.7362 38.6963 95.4296C37.431 95.1102 35.8207 94.6887 35.1178 94.4843C34.4149 94.2798 33.7503 94.0754 33.648 94.0371C33.5075 93.9732 33.418 94.0499 33.3541 94.3182C33.3157 94.5098 33.1879 95.5063 33.0857 96.5283V96.5283ZM107.327 95.3658C105.998 95.7107 103.749 96.2345 102.343 96.5155C100.937 96.8094 98.611 97.2437 97.1668 97.4737C95.7354 97.7164 93.9845 97.9847 93.2943 98.0742L92.0418 98.253C91.2239 99.3389 90.2909 100.514 89.4474 101.562C88.6039 102.622 87.0702 104.424 86.0606 105.586C85.0382 106.749 82.8655 109.061 81.2296 110.709L78.2645 113.711C80.2838 115.219 81.5619 116.113 82.4054 116.675C83.2489 117.237 84.5142 118.029 85.2171 118.438C85.92 118.834 87.0447 119.447 87.7093 119.78C88.3866 120.112 89.473 120.61 90.1375 120.904C90.8149 121.185 91.9907 121.619 92.7575 121.875C93.5371 122.13 94.7385 122.462 95.4414 122.603C96.1444 122.744 97.3329 122.922 98.0614 122.986C99.0327 123.088 99.7868 123.088 100.745 122.986C101.487 122.897 102.432 122.744 102.854 122.641C103.276 122.539 104.196 122.169 104.899 121.824C105.717 121.428 106.535 120.917 107.136 120.393C107.672 119.946 108.452 119.115 108.874 118.553C109.295 118.004 109.947 116.943 110.331 116.203C110.701 115.462 111.225 114.197 111.494 113.392C111.762 112.587 112.094 111.322 112.248 110.581C112.388 109.84 112.593 108.576 112.695 107.771C112.81 106.966 112.925 105.241 112.976 103.938C113.027 102.494 113.002 100.655 112.9 99.2112C112.823 97.9081 112.669 96.2089 112.567 95.4424C112.465 94.6631 112.363 94.0243 112.337 94.0243C112.324 94.0116 111.724 94.1776 111.034 94.382C110.331 94.5737 108.669 95.0208 107.327 95.3658V95.3658ZM64.9984 101.064C65.8547 102.047 67.9379 104.245 69.625 105.944C71.312 107.656 72.7817 109.048 72.884 109.048C72.999 109.048 74.4687 107.656 76.1558 105.957C77.8428 104.245 79.926 102.047 80.7823 101.064C81.6386 100.08 82.3415 99.2495 82.3415 99.2112C82.3415 99.1728 81.613 99.1856 80.7184 99.2495C79.8237 99.3006 76.2963 99.3517 72.884 99.3517C69.4844 99.3517 65.957 99.3006 65.0623 99.2495C64.1677 99.1856 63.4264 99.1728 63.4392 99.2112C63.4392 99.2495 64.1294 100.08 64.9984 101.064V101.064ZM72.6923 51.1882C73.0501 51.1755 73.8553 51.2393 74.4815 51.316C75.1205 51.3927 76.1302 51.5971 76.7181 51.7759C77.3188 51.942 78.2134 52.2742 78.6991 52.5041C79.1975 52.7213 80.0282 53.2068 80.5522 53.5645C81.089 53.9222 81.8814 54.5482 82.3287 54.957C82.7888 55.3658 83.4789 56.1451 83.8751 56.6689C84.2585 57.1927 84.8209 58.087 85.1148 58.6491C85.4088 59.2112 85.805 60.1311 85.9839 60.6932C86.1628 61.2553 86.4057 62.2262 86.5079 62.865C86.6102 63.491 86.6868 64.4236 86.6868 64.9346C86.6868 65.4457 86.6357 66.3144 86.5462 66.8509C86.4696 67.4003 86.2779 68.3201 86.0989 68.895C85.9328 69.4827 85.6005 70.3642 85.3577 70.8752C85.1148 71.3862 84.6675 72.1783 84.3736 72.6382C84.0796 73.0981 83.2617 74.0435 82.546 74.7462C81.8175 75.4872 80.8462 76.292 80.2966 76.6242C79.7726 76.9563 78.8524 77.429 78.2517 77.6845C77.6638 77.94 76.6798 78.2722 76.0791 78.4255C75.1972 78.6427 74.6221 78.6938 72.884 78.6938C71.0819 78.7066 70.6218 78.6555 69.625 78.4C68.9987 78.2339 67.9891 77.8889 67.3884 77.6334C66.8005 77.3779 65.8803 76.8797 65.3435 76.5347C64.8195 76.1898 63.8354 75.3594 63.1708 74.6823C62.4935 74.018 61.7011 73.0981 61.4071 72.6382C61.1132 72.1783 60.6659 71.3862 60.423 70.8752C60.1802 70.3642 59.8479 69.4827 59.669 68.895C59.5029 68.3201 59.2984 67.3236 59.2089 66.6976C59.1194 66.0078 59.0811 64.9985 59.1322 64.2064C59.1706 63.4399 59.3495 62.3157 59.5284 61.5875C59.7329 60.8082 60.1291 59.7606 60.5509 58.9046C60.9343 58.1125 61.6116 57.0394 62.0717 56.4773C62.519 55.9152 63.2475 55.1231 63.6948 54.727C64.1549 54.331 65.0368 53.6795 65.663 53.2834C66.302 52.8874 67.2478 52.4019 67.7718 52.1975C68.3086 51.9931 69.0754 51.7504 69.4971 51.6354C69.9189 51.5204 70.6729 51.3799 71.1586 51.316C71.657 51.2521 72.3472 51.201 72.6923 51.1882Z" fill="url(#paint0_linear_199_1746)"/>
<defs>
<linearGradient id="paint0_linear_199_1746" x1="-9.81048" y1="145.444" x2="134.969" y2="-12.2426" gradientUnits="userSpaceOnUse">
<stop offset="0.159082" stop-color="#3A1562"/>
<stop offset="1" stop-color="#D56B46"/>
</linearGradient>
</defs>
</svg>
