<svg width="146" height="130" viewBox="0 0 146 130" fill="none" xmlns="http://www.w3.org/2000/svg">
<path fill-rule="evenodd" clip-rule="evenodd" d="M72.6193 0.0044871C101.857 -0.0124416 102.872 0.00448711 104.175 0.309204C104.92 0.495419 106.053 0.867851 106.713 1.13871C107.373 1.4265 108.321 1.88357 108.828 2.18829C109.336 2.49301 110.097 2.96701 110.52 3.2548C110.943 3.54259 111.84 4.30438 112.517 4.9646C113.193 5.62482 114.056 6.62361 114.412 7.18226C114.767 7.7409 121.434 19.2524 129.234 32.7446C137.017 46.2537 143.616 57.7652 143.886 58.3577C144.14 58.9333 144.529 60.0675 144.732 60.8801C145.02 62.0651 145.105 62.8777 145.105 64.9091C145.122 66.8221 145.037 67.787 144.8 68.8027C144.631 69.5476 144.309 70.6141 144.089 71.1728C143.869 71.7314 137.068 83.6492 128.98 97.6662C115.241 121.502 114.209 123.229 113.041 124.481C112.347 125.226 111.265 126.191 110.605 126.665C109.945 127.122 108.574 127.901 107.559 128.392C106.544 128.883 105.055 129.458 104.26 129.644C102.822 130 102.703 130 72.7039 130C43.72 130 42.5356 130 41.3173 129.678C40.6236 129.509 39.4731 129.12 38.7793 128.832C38.0856 128.544 36.9351 127.969 36.2413 127.562C35.5476 127.156 34.4478 126.377 33.7879 125.819C33.145 125.277 32.2651 124.397 31.8421 123.872C31.4191 123.347 24.5665 111.632 16.5972 97.8185C8.6279 84.0047 1.96142 72.4255 1.80914 72.1038C1.63994 71.7822 1.33538 71.0204 1.13234 70.411C0.929297 69.8015 0.658577 68.735 0.540137 68.0409C0.404777 67.2284 0.370937 65.8741 0.421697 64.232C0.472457 62.6238 0.607817 61.2864 0.793937 60.5923C0.963137 59.9829 1.31846 59.001 1.58918 58.3916C1.8599 57.7822 8.61098 45.9828 16.5803 32.169C24.5496 18.3552 31.4191 6.64054 31.8421 6.11575C32.2651 5.59096 33.145 4.71067 33.7879 4.16895C34.4478 3.6103 35.5476 2.83158 36.2413 2.42529C36.9351 2.019 38.0856 1.44343 38.7793 1.15564C39.4731 0.867851 40.5898 0.478491 41.2327 0.309204C42.3495 0.0214158 43.9399 0.0044871 72.6193 0.0044871V0.0044871ZM69.6583 22.0287C69.3876 22.1811 68.8293 22.6043 68.4401 22.9937C68.034 23.3661 67.5095 24.094 67.2557 24.585L66.7819 25.4653V64.232C67.4757 65.6709 68.034 66.4158 68.457 66.8221C68.88 67.2114 69.5568 67.7024 69.9629 67.9224C70.572 68.2441 70.9273 68.2949 72.4501 68.2949C74.1083 68.2949 74.2944 68.261 75.1404 67.787C75.648 67.5162 76.3925 66.9067 76.7986 66.4327C77.2047 65.9756 77.6953 65.18 77.8815 64.706C78.186 63.8426 78.2029 63.2332 78.1691 44.6455L78.1183 25.4653C77.3908 24.094 76.8663 23.3661 76.4771 22.9767C76.071 22.5874 75.3265 22.0795 74.8189 21.8425C74.1929 21.5547 73.5161 21.4024 72.7039 21.3685C72.0271 21.3347 71.2319 21.4193 70.8427 21.5378C70.4705 21.6732 69.9291 21.8933 69.6583 22.0287V22.0287ZM49.5235 30.0868C49.1513 30.273 48.2038 30.9502 47.4085 31.5765C46.6133 32.2198 45.2428 33.4725 44.3629 34.3528C43.4831 35.2331 42.231 36.6043 41.605 37.4C40.962 38.1956 39.9299 39.6007 39.3208 40.5318C38.6947 41.4629 37.6457 43.2912 36.9858 44.5947C36.3259 45.8982 35.4799 47.845 35.1077 48.9115C34.7185 49.978 34.1771 51.8063 33.9064 52.9744C33.6187 54.1425 33.2465 56.0046 33.0942 57.1219C32.8912 58.4932 32.8066 60.2368 32.8066 62.4545C32.8066 64.7229 32.8912 66.4158 33.1111 67.8717C33.2634 69.0397 33.6526 70.9865 33.9571 72.1885C34.2617 73.3904 34.8031 75.151 35.1415 76.0821C35.4799 77.0132 36.1737 78.6045 36.6474 79.6371C37.1381 80.6698 37.9841 82.2272 38.5425 83.1075C39.0839 83.9878 40.0991 85.4775 40.7928 86.4086C41.4865 87.3397 42.8571 88.931 43.8384 89.9467C44.8198 90.9624 46.3257 92.3675 47.1547 93.0616C48.0007 93.7726 49.5912 94.9407 50.7079 95.6855C51.8247 96.4304 53.8043 97.5477 55.1071 98.191C56.41 98.8173 58.3558 99.6299 59.4217 100.002C60.4877 100.375 62.1966 100.866 63.2287 101.103C64.2609 101.34 65.9698 101.678 67.0357 101.848C68.4063 102.051 70.0137 102.135 72.4501 102.135C74.8697 102.135 76.5109 102.051 77.8645 101.848C78.9305 101.678 80.7579 101.323 81.9253 101.035C83.0928 100.747 84.9202 100.189 85.9861 99.8161C87.0521 99.4437 88.9979 98.5803 90.3007 97.9201C91.6036 97.2599 93.3463 96.278 94.1923 95.7194C95.0383 95.1607 96.4427 94.1281 97.3225 93.4171C98.2024 92.7061 99.8436 91.1825 100.96 90.0313C102.077 88.8802 103.532 87.2042 104.192 86.3239C104.869 85.4437 105.85 83.9878 106.392 83.1075C106.933 82.2272 107.796 80.5851 108.337 79.4678C108.862 78.3505 109.59 76.6407 109.928 75.6589C110.266 74.677 110.774 72.9672 111.045 71.8499C111.315 70.7326 111.671 68.9382 111.823 67.8717C112.009 66.5681 112.111 64.8076 112.111 62.5391C112.111 60.6431 112.026 58.4424 111.891 57.5451C111.772 56.6649 111.501 55.1074 111.282 54.0748C111.062 53.0421 110.605 51.3323 110.266 50.2658C109.911 49.1993 109.302 47.5403 108.896 46.5923C108.49 45.6273 107.762 44.1376 107.288 43.2912C106.798 42.4278 105.969 41.0735 105.444 40.2779C104.92 39.4822 103.989 38.2295 103.414 37.4846C102.822 36.7398 101.502 35.2839 100.47 34.2682C99.4375 33.2355 97.9147 31.8643 97.0687 31.221C96.2227 30.5777 95.1906 29.9006 94.7507 29.7482C94.2939 29.5789 93.5155 29.4435 93.0079 29.4435C92.5003 29.4435 91.6713 29.5959 91.1975 29.7821C90.7068 29.9514 89.9623 30.3915 89.5563 30.747C89.1671 31.1025 88.6426 31.7797 88.4226 32.2367C88.1857 32.7107 87.9658 33.5064 87.8981 34.0142C87.8473 34.5221 87.8812 35.3347 87.9996 35.7918C88.1011 36.2658 88.4057 36.9429 88.6595 37.3153C88.9133 37.6878 90.0131 38.7204 91.0791 39.6177C92.1281 40.5149 93.4986 41.8184 94.1247 42.4955C94.7338 43.1896 95.5798 44.2053 96.0028 44.764C96.4258 45.3226 97.1026 46.3045 97.4917 46.9647C97.8978 47.6249 98.5915 48.9115 99.0315 49.8426C99.4883 50.7737 100.114 52.3311 100.436 53.313C100.757 54.2948 101.18 55.92 101.383 56.9526C101.62 58.1207 101.789 59.7797 101.84 61.4388C101.908 63.0639 101.857 64.706 101.739 65.7556C101.62 66.6866 101.366 68.1425 101.18 68.972C100.994 69.8015 100.571 71.2574 100.25 72.1885C99.9282 73.1196 99.1668 74.8294 98.5746 75.9974C97.9655 77.1655 96.9672 78.8415 96.3412 79.7217C95.7151 80.602 94.3277 82.1933 93.2617 83.2768C92.1958 84.3433 90.6053 85.7145 89.7424 86.3239C88.8795 86.9334 87.6274 87.746 86.9506 88.1353C86.2907 88.5247 84.8187 89.2187 83.7019 89.6927C82.5852 90.1498 80.944 90.7254 80.0641 90.9455C79.1843 91.1825 77.6615 91.4872 76.6801 91.6395C75.6988 91.7919 73.8714 91.9104 72.6193 91.9104C71.3673 91.9104 69.6922 91.8258 68.8969 91.7411C68.1017 91.6396 66.5112 91.3348 65.3437 91.047C64.1763 90.7423 62.3997 90.1837 61.3675 89.7605C60.3354 89.3542 59.0157 88.7278 58.4065 88.3892C57.7974 88.0676 56.7315 87.4074 56.0377 86.9503C55.344 86.4763 54.1935 85.6299 53.4997 85.0543C52.806 84.4787 51.7231 83.4461 51.0971 82.7858C50.4541 82.1256 49.4728 80.9575 48.9144 80.1958C48.3391 79.417 47.4931 78.1474 47.0363 77.3517C46.5625 76.5561 45.9027 75.2695 45.5473 74.4739C45.2089 73.6782 44.7521 72.544 44.5491 71.9345C44.3291 71.3251 43.9907 70.0724 43.7707 69.1413C43.5339 68.2102 43.2801 66.8051 43.1785 66.0095C43.0939 65.2139 43.0093 63.5718 43.0093 62.3698C43.0093 61.1679 43.1278 59.3734 43.2801 58.3916C43.4154 57.4097 43.6861 56.0385 43.8553 55.3444C44.0245 54.6503 44.4137 53.3807 44.7013 52.5512C45.0059 51.7217 45.7335 50.0796 46.3257 48.9115C46.9348 47.7434 47.8992 46.1352 48.4745 45.3226C49.0498 44.527 50.0481 43.2743 50.7079 42.5463C51.3678 41.8184 52.7214 40.5318 53.7535 39.6854C54.7857 38.8389 55.7839 37.9248 55.987 37.637C56.19 37.3661 56.4777 36.8075 56.613 36.3843C56.7653 35.9611 56.8837 35.1315 56.8837 34.5221C56.8837 33.7434 56.7653 33.1847 56.4946 32.5753C56.2746 32.1013 55.8009 31.4242 55.4286 31.0687C55.0733 30.6962 54.3965 30.2222 53.9227 30.0191C53.4659 29.8159 52.7383 29.6128 52.3153 29.562C51.8923 29.5112 51.2494 29.5281 50.8771 29.6128C50.5049 29.6805 49.8958 29.9006 49.5235 30.0868V30.0868Z" fill="url(#paint0_linear_199_1652)"/>
<defs>
<linearGradient id="paint0_linear_199_1652" x1="-10.092" y1="145.444" x2="134.665" y2="-12.5049" gradientUnits="userSpaceOnUse">
<stop offset="0.159082" stop-color="#3A1562"/>
<stop offset="1" stop-color="#D56B46"/>
</linearGradient>
</defs>
</svg>
