<svg width="130" height="130" viewBox="0 0 130 130" fill="none" xmlns="http://www.w3.org/2000/svg">
<rect x="1" y="1" width="128" height="128" rx="31" fill="url(#paint0_linear_942_4893)"/>
<rect x="1" y="1" width="128" height="128" rx="31" stroke="#862DB7" stroke-width="2"/>
<path d="M33.6304 39.748V50.668C33.6304 51.76 33.8991 52.6007 34.4364 53.19C34.9737 53.7793 35.7624 54.074 36.8024 54.074C37.8424 54.074 38.6397 53.7793 39.1944 53.19C39.7491 52.6007 40.0264 51.76 40.0264 50.668V39.748H44.4724V50.642C44.4724 52.2713 44.1257 53.6493 43.4324 54.776C42.7391 55.9027 41.8031 56.752 40.6244 57.324C39.4631 57.896 38.1631 58.182 36.7244 58.182C35.2857 58.182 33.9944 57.9047 32.8504 57.35C31.7237 56.778 30.8311 55.9287 30.1724 54.802C29.5137 53.658 29.1844 52.2713 29.1844 50.642V39.748H33.6304ZM52.0404 39.748V58H47.5944V39.748H52.0404ZM65.1684 33.3L58.2004 62.862H53.9104L60.8784 33.3H65.1684ZM71.4116 39.748V50.668C71.4116 51.76 71.6803 52.6007 72.2176 53.19C72.755 53.7793 73.5436 54.074 74.5836 54.074C75.6236 54.074 76.421 53.7793 76.9756 53.19C77.5303 52.6007 77.8076 51.76 77.8076 50.668V39.748H82.2536V50.642C82.2536 52.2713 81.907 53.6493 81.2136 54.776C80.5203 55.9027 79.5843 56.752 78.4056 57.324C77.2443 57.896 75.9443 58.182 74.5056 58.182C73.067 58.182 71.7756 57.9047 70.6316 57.35C69.505 56.778 68.6123 55.9287 67.9536 54.802C67.295 53.658 66.9656 52.2713 66.9656 50.642V39.748H71.4116ZM96.5557 58L92.8377 52.41L89.5617 58H84.5177L90.3677 48.718L84.3877 39.748H89.5617L93.2277 45.26L96.4517 39.748H101.496L95.6977 48.952L101.73 58H96.5557ZM27.3279 71.748C29.2519 71.748 30.9333 72.1293 32.3719 72.892C33.8106 73.6547 34.9199 74.7293 35.6999 76.116C36.4973 77.4853 36.8959 79.0713 36.8959 80.874C36.8959 82.6593 36.4973 84.2453 35.6999 85.632C34.9199 87.0187 33.8019 88.0933 32.3459 88.856C30.9073 89.6187 29.2346 90 27.3279 90H20.4899V71.748H27.3279ZM27.0419 86.152C28.7233 86.152 30.0319 85.6927 30.9679 84.774C31.9039 83.8553 32.3719 82.5553 32.3719 80.874C32.3719 79.1927 31.9039 77.884 30.9679 76.948C30.0319 76.012 28.7233 75.544 27.0419 75.544H24.9359V86.152H27.0419ZM53.0566 82.512C53.0566 82.928 53.0306 83.3613 52.9786 83.812H42.9166C42.9859 84.7133 43.2719 85.4067 43.7746 85.892C44.2946 86.36 44.9272 86.594 45.6726 86.594C46.7819 86.594 47.5532 86.126 47.9866 85.19H52.7186C52.4759 86.1433 52.0339 87.0013 51.3926 87.764C50.7686 88.5267 49.9799 89.1247 49.0266 89.558C48.0732 89.9913 47.0072 90.208 45.8286 90.208C44.4072 90.208 43.1419 89.9047 42.0326 89.298C40.9232 88.6913 40.0566 87.8247 39.4326 86.698C38.8086 85.5713 38.4966 84.254 38.4966 82.746C38.4966 81.238 38.7999 79.9207 39.4066 78.794C40.0306 77.6673 40.8972 76.8007 42.0066 76.194C43.1159 75.5873 44.3899 75.284 45.8286 75.284C47.2326 75.284 48.4806 75.5787 49.5726 76.168C50.6646 76.7573 51.5139 77.598 52.1206 78.69C52.7446 79.782 53.0566 81.056 53.0566 82.512ZM48.5066 81.342C48.5066 80.5793 48.2466 79.9727 47.7266 79.522C47.2066 79.0713 46.5566 78.846 45.7766 78.846C45.0312 78.846 44.3986 79.0627 43.8786 79.496C43.3759 79.9293 43.0639 80.5447 42.9426 81.342H48.5066ZM61.304 90.208C60.0387 90.208 58.912 89.9913 57.924 89.558C56.936 89.1247 56.156 88.5353 55.584 87.79C55.012 87.0273 54.6914 86.178 54.622 85.242H59.016C59.068 85.7447 59.302 86.152 59.718 86.464C60.134 86.776 60.6454 86.932 61.252 86.932C61.8067 86.932 62.2314 86.828 62.526 86.62C62.838 86.3947 62.994 86.1087 62.994 85.762C62.994 85.346 62.7774 85.0427 62.344 84.852C61.9107 84.644 61.2087 84.4187 60.238 84.176C59.198 83.9333 58.3314 83.682 57.638 83.422C56.9447 83.1447 56.3467 82.72 55.844 82.148C55.3414 81.5587 55.09 80.77 55.09 79.782C55.09 78.95 55.3154 78.196 55.766 77.52C56.234 76.8267 56.91 76.2807 57.794 75.882C58.6954 75.4833 59.7614 75.284 60.992 75.284C62.812 75.284 64.242 75.7347 65.282 76.636C66.3394 77.5373 66.946 78.7333 67.102 80.224H62.994C62.9247 79.7213 62.6994 79.3227 62.318 79.028C61.954 78.7333 61.4687 78.586 60.862 78.586C60.342 78.586 59.9434 78.69 59.666 78.898C59.3887 79.0887 59.25 79.3573 59.25 79.704C59.25 80.12 59.4667 80.432 59.9 80.64C60.3507 80.848 61.044 81.056 61.98 81.264C63.0547 81.5413 63.93 81.8187 64.606 82.096C65.282 82.356 65.8714 82.7893 66.374 83.396C66.894 83.9853 67.1627 84.7827 67.18 85.788C67.18 86.6373 66.9374 87.4 66.452 88.076C65.984 88.7347 65.2994 89.2547 64.398 89.636C63.514 90.0173 62.4827 90.208 61.304 90.208ZM72.1361 73.984C71.3561 73.984 70.7148 73.7587 70.2121 73.308C69.7268 72.84 69.4841 72.268 69.4841 71.592C69.4841 70.8987 69.7268 70.3267 70.2121 69.876C70.7148 69.408 71.3561 69.174 72.1361 69.174C72.8988 69.174 73.5228 69.408 74.0081 69.876C74.5108 70.3267 74.7621 70.8987 74.7621 71.592C74.7621 72.268 74.5108 72.84 74.0081 73.308C73.5228 73.7587 72.8988 73.984 72.1361 73.984ZM74.3461 75.492V90H69.9001V75.492H74.3461ZM83.0801 75.284C84.1027 75.284 84.9954 75.492 85.7581 75.908C86.5381 76.324 87.1361 76.87 87.5521 77.546V75.492H91.9981V89.974C91.9981 91.3087 91.7294 92.5133 91.1921 93.588C90.6721 94.68 89.8661 95.5467 88.7741 96.188C87.6994 96.8293 86.3561 97.15 84.7441 97.15C82.5947 97.15 80.8527 96.6387 79.5181 95.616C78.1834 94.6107 77.4207 93.2413 77.2301 91.508H81.6241C81.7627 92.0627 82.0921 92.496 82.6121 92.808C83.1321 93.1373 83.7734 93.302 84.5361 93.302C85.4547 93.302 86.1827 93.0333 86.7201 92.496C87.2747 91.976 87.5521 91.1353 87.5521 89.974V87.92C87.1187 88.596 86.5207 89.1507 85.7581 89.584C84.9954 90 84.1027 90.208 83.0801 90.208C81.8841 90.208 80.8007 89.9047 79.8301 89.298C78.8594 88.674 78.0881 87.7987 77.5161 86.672C76.9614 85.528 76.6841 84.2107 76.6841 82.72C76.6841 81.2293 76.9614 79.9207 77.5161 78.794C78.0881 77.6673 78.8594 76.8007 79.8301 76.194C80.8007 75.5873 81.8841 75.284 83.0801 75.284ZM87.5521 82.746C87.5521 81.6367 87.2401 80.7613 86.6161 80.12C86.0094 79.4787 85.2641 79.158 84.3801 79.158C83.4961 79.158 82.7421 79.4787 82.1181 80.12C81.5114 80.744 81.2081 81.6107 81.2081 82.72C81.2081 83.8293 81.5114 84.7133 82.1181 85.372C82.7421 86.0133 83.4961 86.334 84.3801 86.334C85.2641 86.334 86.0094 86.0133 86.6161 85.372C87.2401 84.7307 87.5521 83.8553 87.5521 82.746ZM104.055 75.336C105.753 75.336 107.105 75.8907 108.111 77C109.133 78.092 109.645 79.6 109.645 81.524V90H105.225V82.122C105.225 81.1513 104.973 80.3973 104.471 79.86C103.968 79.3227 103.292 79.054 102.443 79.054C101.593 79.054 100.917 79.3227 100.415 79.86C99.9119 80.3973 99.6605 81.1513 99.6605 82.122V90H95.2145V75.492H99.6605V77.416C100.111 76.7747 100.718 76.272 101.481 75.908C102.243 75.5267 103.101 75.336 104.055 75.336Z" fill="white"/>
<defs>
<linearGradient id="paint0_linear_942_4893" x1="-9.425" y1="145.444" x2="135.854" y2="3.03666" gradientUnits="userSpaceOnUse">
<stop offset="0.159082" stop-color="#3A1562"/>
<stop offset="1" stop-color="#D56B46"/>
</linearGradient>
</defs>
</svg>
