<svg width="757" height="727" viewBox="0 0 757 727" fill="none" xmlns="http://www.w3.org/2000/svg">
<mask id="mask0_235_69" style="mask-type:alpha" maskUnits="userSpaceOnUse" x="0" y="0" width="757" height="727">
<ellipse cx="378.579" cy="363.805" rx="378.421" ry="363.195" fill="#C4C4C4"/>
</mask>
<g mask="url(#mask0_235_69)">
<rect x="-39.1581" y="-4.18433" width="879.705" height="798.311" fill="url(#paint0_linear_235_69)"/>
<path d="M170 533.977C183.169 518.373 254.3 496.653 288.22 487.744C379.378 490.152 569.776 498.435 602.099 512.305C634.422 526.175 679.416 691.7 697.872 772.729C502.96 775.136 106.102 778.508 77.9688 772.729C42.8023 765.505 153.539 553.482 170 533.977Z" fill="#535353"/>
<path d="M377.257 638.004C323.086 639.16 127.463 521.007 264.65 484.857C263.278 477.633 350.546 504.217 358.926 502.194C369.401 499.666 438.986 484.857 480.139 484.857C521.291 484.857 499.966 515.92 493.232 556.013C486.498 596.106 444.972 636.56 377.257 638.004Z" fill="#161411"/>
<ellipse cx="384.741" cy="342.181" rx="168.35" ry="162.539" fill="#FFEED5"/>
<path d="M398.208 197.342C344.618 122.458 276.123 383.239 232.85 438.983C219.008 413.82 104.905 275.723 246.318 137.383C339.057 46.6588 467.311 80.4958 522.786 137.383C643.251 260.913 568.928 366.865 548.227 419.84C492.235 361.447 529.521 380.831 398.208 197.342Z" fill="#161411"/>
<path d="M279.615 445.483C268.841 426.123 247.442 313.164 256.421 286.917C231.979 326.649 174.789 354.461 199.929 377.578C225.069 400.695 230.98 539.033 369.401 507.248C329.496 497.014 290.39 464.843 279.615 445.483Z" fill="#161411"/>
<path d="M481.26 446.567C492.035 427.206 513.434 314.248 504.455 288.001C528.897 327.733 595.739 282.583 572.17 373.244C563.718 405.754 529.895 540.117 391.474 508.331C431.379 498.098 470.486 465.927 481.26 446.567Z" fill="#161411"/>
<path d="M358.553 338.571C380.393 323.942 402.698 338.571 402.698 338.571" stroke="#343446" stroke-width="7.14218"/>
<path d="M296.45 293.059C321.516 272.832 338.351 288.049 338.351 288.049" stroke="#161411" stroke-width="7.14218" stroke-linecap="round"/>
<path d="M464.8 292.003C439.735 271.776 422.9 286.993 422.9 286.993" stroke="#161411" stroke-width="7.14218" stroke-linecap="round"/>
<path d="M359.012 342.182C359.012 365.118 340.231 383.74 317.026 383.74C293.822 383.74 275.041 365.118 275.041 342.182C275.041 319.247 293.822 300.624 317.026 300.624C340.231 300.624 359.012 319.247 359.012 342.182Z" stroke="#343446" stroke-width="3.57109"/>
<path d="M485.462 342.182C485.462 365.118 466.681 383.74 443.477 383.74C420.272 383.74 401.491 365.118 401.491 342.182C401.491 319.247 420.272 300.624 443.477 300.624C466.681 300.624 485.462 319.247 485.462 342.182Z" stroke="#343446" stroke-width="3.57109"/>
<path d="M239.585 798.375C217.138 784.794 111.938 660.758 266.615 492.692L384.365 584.907C380.998 615.368 327.875 641.398 315.903 660.758C300.939 684.959 292.709 764.422 299.069 812.1C305.429 859.778 267.643 815.351 239.585 798.375Z" fill="#161411"/>
<path d="M560.573 516.64C543.214 518.374 497.722 568.653 477.146 593.575C485.251 552.399 501.238 472.357 500.341 481.604C499.443 490.851 572.918 467.517 607.711 514.112C592.372 521.336 577.931 514.907 560.573 516.64Z" fill="#161411"/>
</g>
<defs>
<linearGradient id="paint0_linear_235_69" x1="233.6" y1="18.5903" x2="603.103" y2="490.187" gradientUnits="userSpaceOnUse">
<stop offset="0.0364583" stop-color="#8442CA"/>
<stop offset="1" stop-color="#8442CA" stop-opacity="0"/>
</linearGradient>
</defs>
</svg>
